<?xml version="1.0" encoding="utf-8"?>
<!-- Generator: Adobe Illustrator 19.1.0, SVG Export Plug-In . SVG Version: 6.00 Build 0)  -->
<svg version="1.1" xmlns="http://www.w3.org/2000/svg" xmlns:xlink="http://www.w3.org/1999/xlink" x="0px" y="0px"
	 viewBox="0 0 82.4 82.4" style="enable-background:new 0 0 82.4 82.4;" xml:space="preserve">
<style type="text/css">
	.st0{display:none;}
	.st1{display:inline;opacity:0.2;fill:url(#SVGID_1_);}
	.st2{display:inline;opacity:0.2;fill:url(#SVGID_2_);}
	.st3{display:inline;opacity:0.2;fill:url(#SVGID_3_);}
	.st4{display:inline;opacity:0.2;fill:url(#SVGID_4_);}
	.st5{display:inline;opacity:0.2;fill:url(#SVGID_5_);}
	.st6{display:inline;opacity:0.2;fill:url(#SVGID_6_);}
	.st7{display:inline;opacity:0.2;fill:url(#SVGID_7_);}
	.st8{display:inline;opacity:0.2;fill:url(#SVGID_8_);}
	.st9{display:inline;opacity:0.2;fill:url(#SVGID_9_);}
	.st10{display:inline;opacity:0.2;fill:url(#SVGID_10_);}
	.st11{display:inline;opacity:0.2;fill:url(#SVGID_11_);}
	.st12{display:inline;opacity:0.2;fill:url(#SVGID_12_);}
	.st13{opacity:0.2;clip-path:url(#XMLID_6_);}
	.st14{opacity:0;}
	.st15{opacity:2.439000e-002;}
	.st16{opacity:4.878000e-002;}
	.st17{opacity:7.317100e-002;}
	.st18{opacity:9.756100e-002;}
	.st19{opacity:0.122;}
	.st20{opacity:0.1463;}
	.st21{opacity:0.1707;}
	.st22{opacity:0.1951;}
	.st23{opacity:0.2195;}
	.st24{opacity:0.2439;}
	.st25{opacity:0.2683;}
	.st26{opacity:0.2927;}
	.st27{opacity:0.3171;}
	.st28{opacity:0.3415;}
	.st29{opacity:0.3659;}
	.st30{opacity:0.3902;}
	.st31{opacity:0.4146;}
	.st32{opacity:0.439;}
	.st33{opacity:0.4634;}
	.st34{opacity:0.4878;}
	.st35{opacity:0.5122;}
	.st36{opacity:0.5366;}
	.st37{opacity:0.561;}
	.st38{opacity:0.5854;}
	.st39{opacity:0.6098;}
	.st40{opacity:0.6341;}
	.st41{opacity:0.6585;}
	.st42{opacity:0.6829;}
	.st43{opacity:0.7073;}
	.st44{opacity:0.7317;}
	.st45{opacity:0.7561;}
	.st46{opacity:0.7805;}
	.st47{opacity:0.8049;}
	.st48{opacity:0.8293;}
	.st49{opacity:0.8537;}
	.st50{opacity:0.878;}
	.st51{opacity:0.9024;}
	.st52{opacity:0.9268;}
	.st53{opacity:0.9512;}
	.st54{opacity:0.9756;}
	.st55{fill:#FFFFFF;}
	.st56{display:inline;}
	.st57{opacity:0.2;clip-path:url(#XMLID_7_);}
	.st58{display:inline;fill:#FFFFFF;}
	.st59{opacity:0.2;clip-path:url(#XMLID_8_);}
	.st60{display:inline;fill:#EF1401;}
	.st61{opacity:0.2;clip-path:url(#XMLID_9_);}
	.st62{display:inline;fill:#1EB40F;}
	.st63{fill:url(#SVGID_13_);}
	.st64{fill:#5C960B;}
	.st65{opacity:0.8;}
	.st66{fill:url(#SVGID_14_);}
	.st67{fill:url(#SVGID_15_);}
	.st68{fill:url(#SVGID_16_);}
	.st69{display:inline;opacity:0.8;fill:url(#SVGID_17_);}
	.st70{fill:url(#SVGID_18_);}
	.st71{fill:#D90439;}
	.st72{fill:url(#SVGID_19_);}
	.st73{fill:url(#SVGID_20_);}
	.st74{fill:url(#SVGID_21_);}
	.st75{display:inline;opacity:0.8;fill:url(#SVGID_22_);}
	.st76{fill:#C7C7C7;}
</style>
<g id="OBJECTS">
	<g class="st0">
		
			<radialGradient id="SVGID_1_" cx="77.8854" cy="408.2339" r="27.7659" gradientTransform="matrix(1.5691 0 0 0.5 -40.4935 211.1169)" gradientUnits="userSpaceOnUse">
			<stop  offset="0" style="stop-color:#747474"/>
			<stop  offset="6.604260e-002" style="stop-color:#8A8A8A"/>
			<stop  offset="0.1904" style="stop-color:#AEAEAE"/>
			<stop  offset="0.3219" style="stop-color:#CBCBCB"/>
			<stop  offset="0.4606" style="stop-color:#E2E2E2"/>
			<stop  offset="0.61" style="stop-color:#F2F2F2"/>
			<stop  offset="0.7773" style="stop-color:#FCFCFC"/>
			<stop  offset="1" style="stop-color:#FFFFFF"/>
		</radialGradient>
		<ellipse class="st1" cx="81.7" cy="415.2" rx="43.6" ry="13.9"/>
		
			<radialGradient id="SVGID_2_" cx="151.8555" cy="408.2339" r="27.7659" gradientTransform="matrix(1.5691 0 0 0.5 -40.4935 211.1169)" gradientUnits="userSpaceOnUse">
			<stop  offset="0" style="stop-color:#747474"/>
			<stop  offset="6.604260e-002" style="stop-color:#8A8A8A"/>
			<stop  offset="0.1904" style="stop-color:#AEAEAE"/>
			<stop  offset="0.3219" style="stop-color:#CBCBCB"/>
			<stop  offset="0.4606" style="stop-color:#E2E2E2"/>
			<stop  offset="0.61" style="stop-color:#F2F2F2"/>
			<stop  offset="0.7773" style="stop-color:#FCFCFC"/>
			<stop  offset="1" style="stop-color:#FFFFFF"/>
		</radialGradient>
		<ellipse class="st2" cx="197.8" cy="415.2" rx="43.6" ry="13.9"/>
		
			<radialGradient id="SVGID_3_" cx="225.8255" cy="408.2339" r="27.7659" gradientTransform="matrix(1.5691 0 0 0.5 -40.4935 211.1169)" gradientUnits="userSpaceOnUse">
			<stop  offset="0" style="stop-color:#747474"/>
			<stop  offset="6.604260e-002" style="stop-color:#8A8A8A"/>
			<stop  offset="0.1904" style="stop-color:#AEAEAE"/>
			<stop  offset="0.3219" style="stop-color:#CBCBCB"/>
			<stop  offset="0.4606" style="stop-color:#E2E2E2"/>
			<stop  offset="0.61" style="stop-color:#F2F2F2"/>
			<stop  offset="0.7773" style="stop-color:#FCFCFC"/>
			<stop  offset="1" style="stop-color:#FFFFFF"/>
		</radialGradient>
		<ellipse class="st3" cx="313.8" cy="415.2" rx="43.6" ry="13.9"/>
		
			<radialGradient id="SVGID_4_" cx="299.7956" cy="408.2339" r="27.7659" gradientTransform="matrix(1.5691 0 0 0.5 -40.4935 211.1169)" gradientUnits="userSpaceOnUse">
			<stop  offset="0" style="stop-color:#747474"/>
			<stop  offset="6.604260e-002" style="stop-color:#8A8A8A"/>
			<stop  offset="0.1904" style="stop-color:#AEAEAE"/>
			<stop  offset="0.3219" style="stop-color:#CBCBCB"/>
			<stop  offset="0.4606" style="stop-color:#E2E2E2"/>
			<stop  offset="0.61" style="stop-color:#F2F2F2"/>
			<stop  offset="0.7773" style="stop-color:#FCFCFC"/>
			<stop  offset="1" style="stop-color:#FFFFFF"/>
		</radialGradient>
		<ellipse class="st4" cx="429.9" cy="415.2" rx="43.6" ry="13.9"/>
		
			<radialGradient id="SVGID_5_" cx="77.8854" cy="149.106" r="27.7659" gradientTransform="matrix(1.5691 0 0 0.5 -40.4935 211.1169)" gradientUnits="userSpaceOnUse">
			<stop  offset="0" style="stop-color:#747474"/>
			<stop  offset="6.604260e-002" style="stop-color:#8A8A8A"/>
			<stop  offset="0.1904" style="stop-color:#AEAEAE"/>
			<stop  offset="0.3219" style="stop-color:#CBCBCB"/>
			<stop  offset="0.4606" style="stop-color:#E2E2E2"/>
			<stop  offset="0.61" style="stop-color:#F2F2F2"/>
			<stop  offset="0.7773" style="stop-color:#FCFCFC"/>
			<stop  offset="1" style="stop-color:#FFFFFF"/>
		</radialGradient>
		<ellipse class="st5" cx="81.7" cy="285.7" rx="43.6" ry="13.9"/>
		
			<radialGradient id="SVGID_6_" cx="151.8555" cy="149.106" r="27.7659" gradientTransform="matrix(1.5691 0 0 0.5 -40.4935 211.1169)" gradientUnits="userSpaceOnUse">
			<stop  offset="0" style="stop-color:#747474"/>
			<stop  offset="6.604260e-002" style="stop-color:#8A8A8A"/>
			<stop  offset="0.1904" style="stop-color:#AEAEAE"/>
			<stop  offset="0.3219" style="stop-color:#CBCBCB"/>
			<stop  offset="0.4606" style="stop-color:#E2E2E2"/>
			<stop  offset="0.61" style="stop-color:#F2F2F2"/>
			<stop  offset="0.7773" style="stop-color:#FCFCFC"/>
			<stop  offset="1" style="stop-color:#FFFFFF"/>
		</radialGradient>
		<ellipse class="st6" cx="197.8" cy="285.7" rx="43.6" ry="13.9"/>
		
			<radialGradient id="SVGID_7_" cx="225.8255" cy="149.106" r="27.7659" gradientTransform="matrix(1.5691 0 0 0.5 -40.4935 211.1169)" gradientUnits="userSpaceOnUse">
			<stop  offset="0" style="stop-color:#747474"/>
			<stop  offset="6.604260e-002" style="stop-color:#8A8A8A"/>
			<stop  offset="0.1904" style="stop-color:#AEAEAE"/>
			<stop  offset="0.3219" style="stop-color:#CBCBCB"/>
			<stop  offset="0.4606" style="stop-color:#E2E2E2"/>
			<stop  offset="0.61" style="stop-color:#F2F2F2"/>
			<stop  offset="0.7773" style="stop-color:#FCFCFC"/>
			<stop  offset="1" style="stop-color:#FFFFFF"/>
		</radialGradient>
		<ellipse class="st7" cx="313.8" cy="285.7" rx="43.6" ry="13.9"/>
		
			<radialGradient id="SVGID_8_" cx="299.7956" cy="149.106" r="27.7659" gradientTransform="matrix(1.5691 0 0 0.5 -40.4935 211.1169)" gradientUnits="userSpaceOnUse">
			<stop  offset="0" style="stop-color:#747474"/>
			<stop  offset="6.604260e-002" style="stop-color:#8A8A8A"/>
			<stop  offset="0.1904" style="stop-color:#AEAEAE"/>
			<stop  offset="0.3219" style="stop-color:#CBCBCB"/>
			<stop  offset="0.4606" style="stop-color:#E2E2E2"/>
			<stop  offset="0.61" style="stop-color:#F2F2F2"/>
			<stop  offset="0.7773" style="stop-color:#FCFCFC"/>
			<stop  offset="1" style="stop-color:#FFFFFF"/>
		</radialGradient>
		<ellipse class="st8" cx="429.9" cy="285.7" rx="43.6" ry="13.9"/>
		
			<radialGradient id="SVGID_9_" cx="77.8854" cy="-108.0219" r="27.7659" gradientTransform="matrix(1.5691 0 0 0.5 -40.4935 211.1169)" gradientUnits="userSpaceOnUse">
			<stop  offset="0" style="stop-color:#747474"/>
			<stop  offset="6.604260e-002" style="stop-color:#8A8A8A"/>
			<stop  offset="0.1904" style="stop-color:#AEAEAE"/>
			<stop  offset="0.3219" style="stop-color:#CBCBCB"/>
			<stop  offset="0.4606" style="stop-color:#E2E2E2"/>
			<stop  offset="0.61" style="stop-color:#F2F2F2"/>
			<stop  offset="0.7773" style="stop-color:#FCFCFC"/>
			<stop  offset="1" style="stop-color:#FFFFFF"/>
		</radialGradient>
		<ellipse class="st9" cx="81.7" cy="157.1" rx="43.6" ry="13.9"/>
		
			<radialGradient id="SVGID_10_" cx="151.8555" cy="-108.0219" r="27.7659" gradientTransform="matrix(1.5691 0 0 0.5 -40.4935 211.1169)" gradientUnits="userSpaceOnUse">
			<stop  offset="0" style="stop-color:#747474"/>
			<stop  offset="6.604260e-002" style="stop-color:#8A8A8A"/>
			<stop  offset="0.1904" style="stop-color:#AEAEAE"/>
			<stop  offset="0.3219" style="stop-color:#CBCBCB"/>
			<stop  offset="0.4606" style="stop-color:#E2E2E2"/>
			<stop  offset="0.61" style="stop-color:#F2F2F2"/>
			<stop  offset="0.7773" style="stop-color:#FCFCFC"/>
			<stop  offset="1" style="stop-color:#FFFFFF"/>
		</radialGradient>
		<ellipse class="st10" cx="197.8" cy="157.1" rx="43.6" ry="13.9"/>
		
			<radialGradient id="SVGID_11_" cx="225.8255" cy="-108.0219" r="27.7659" gradientTransform="matrix(1.5691 0 0 0.5 -40.4935 211.1169)" gradientUnits="userSpaceOnUse">
			<stop  offset="0" style="stop-color:#747474"/>
			<stop  offset="6.604260e-002" style="stop-color:#8A8A8A"/>
			<stop  offset="0.1904" style="stop-color:#AEAEAE"/>
			<stop  offset="0.3219" style="stop-color:#CBCBCB"/>
			<stop  offset="0.4606" style="stop-color:#E2E2E2"/>
			<stop  offset="0.61" style="stop-color:#F2F2F2"/>
			<stop  offset="0.7773" style="stop-color:#FCFCFC"/>
			<stop  offset="1" style="stop-color:#FFFFFF"/>
		</radialGradient>
		<ellipse class="st11" cx="313.8" cy="157.1" rx="43.6" ry="13.9"/>
		
			<radialGradient id="SVGID_12_" cx="299.7956" cy="-108.0219" r="27.7659" gradientTransform="matrix(1.5691 0 0 0.5 -40.4935 211.1169)" gradientUnits="userSpaceOnUse">
			<stop  offset="0" style="stop-color:#747474"/>
			<stop  offset="6.604260e-002" style="stop-color:#8A8A8A"/>
			<stop  offset="0.1904" style="stop-color:#AEAEAE"/>
			<stop  offset="0.3219" style="stop-color:#CBCBCB"/>
			<stop  offset="0.4606" style="stop-color:#E2E2E2"/>
			<stop  offset="0.61" style="stop-color:#F2F2F2"/>
			<stop  offset="0.7773" style="stop-color:#FCFCFC"/>
			<stop  offset="1" style="stop-color:#FFFFFF"/>
		</radialGradient>
		<ellipse class="st12" cx="429.9" cy="157.1" rx="43.6" ry="13.9"/>
	</g>
	<g>
		<g>
			<defs>
				<path id="XMLID_1_" d="M70.3,12.1C62.3,4,51.8,0,41.2,0S20.1,4,12.1,12.1C-4,28.2-4,54.3,12.1,70.3c8,8,18.6,12.1,29.1,12.1
					s21.1-4,29.1-12.1C86.4,54.3,86.4,28.2,70.3,12.1z"/>
			</defs>
			<use xlink:href="#XMLID_1_"  style="overflow:visible;fill:#EF1401;"/>
			<clipPath id="XMLID_6_">
				<use xlink:href="#XMLID_1_"  style="overflow:visible;"/>
			</clipPath>
			<g class="st13">
				<polygon class="st14" points="78,51.8 65.9,63.9 53.9,51.8 43.6,62.1 55.6,74.2 43.6,86.2 53.9,96.5 65.9,84.5 78,96.5 
					88.3,86.2 76.3,74.2 88.3,62.1 				"/>
				<polygon class="st15" points="77.4,51 65.3,63 53.3,51 43,61.3 55,73.4 43,85.4 53.3,95.7 65.3,83.7 77.4,95.7 87.7,85.4 
					75.6,73.4 87.7,61.3 				"/>
				<polygon class="st16" points="76.8,50.2 64.7,62.2 52.7,50.2 42.4,60.5 54.4,72.6 42.4,84.6 52.7,94.9 64.7,82.9 76.8,94.9 
					87.1,84.6 75,72.6 87.1,60.5 				"/>
				<polygon class="st17" points="76.2,49.4 64.1,61.4 52.1,49.4 41.8,59.7 53.8,71.8 41.8,83.8 52.1,94.1 64.1,82.1 76.2,94.1 
					86.5,83.8 74.4,71.8 86.5,59.7 				"/>
				<polygon class="st18" points="75.6,48.6 63.5,60.6 51.5,48.6 41.2,58.9 53.2,71 41.2,83 51.5,93.3 63.5,81.3 75.6,93.3 85.9,83 
					73.8,71 85.9,58.9 				"/>
				<polygon class="st19" points="75,47.8 62.9,59.8 50.9,47.8 40.6,58.1 52.6,70.2 40.6,82.2 50.9,92.5 62.9,80.5 75,92.5 
					85.3,82.2 73.2,70.2 85.3,58.1 				"/>
				<polygon class="st20" points="74.4,47 62.3,59 50.3,47 40,57.3 52,69.4 40,81.4 50.3,91.7 62.3,79.7 74.4,91.7 84.7,81.4 
					72.6,69.4 84.7,57.3 				"/>
				<polygon class="st21" points="73.8,46.2 61.7,58.2 49.7,46.2 39.4,56.5 51.4,68.5 39.4,80.6 49.7,90.9 61.7,78.9 73.8,90.9 
					84.1,80.6 72,68.5 84.1,56.5 				"/>
				<polygon class="st22" points="73.1,45.4 61.1,57.4 49.1,45.4 38.7,55.7 50.8,67.7 38.7,79.8 49.1,90.1 61.1,78.1 73.1,90.1 
					83.5,79.8 71.4,67.7 83.5,55.7 				"/>
				<polygon class="st23" points="72.5,44.6 60.5,56.6 48.5,44.6 38.1,54.9 50.2,66.9 38.1,79 48.5,89.3 60.5,77.3 72.5,89.3 
					82.9,79 70.8,66.9 82.9,54.9 				"/>
				<polygon class="st24" points="71.9,43.8 59.9,55.8 47.9,43.8 37.5,54.1 49.6,66.1 37.5,78.2 47.9,88.5 59.9,76.5 71.9,88.5 
					82.3,78.2 70.2,66.1 82.3,54.1 				"/>
				<polygon class="st25" points="71.3,43 59.3,55 47.3,43 36.9,53.3 49,65.3 36.9,77.4 47.3,87.7 59.3,75.6 71.3,87.7 81.7,77.4 
					69.6,65.3 81.7,53.3 				"/>
				<polygon class="st26" points="70.7,42.2 58.7,54.2 46.7,42.2 36.3,52.5 48.4,64.5 36.3,76.6 46.7,86.9 58.7,74.8 70.7,86.9 
					81.1,76.6 69,64.5 81.1,52.5 				"/>
				<polygon class="st27" points="70.1,41.4 58.1,53.4 46.1,41.4 35.7,51.7 47.8,63.7 35.7,75.8 46.1,86.1 58.1,74 70.1,86.1 
					80.5,75.8 68.4,63.7 80.5,51.7 				"/>
				<polygon class="st28" points="69.5,40.6 57.5,52.6 45.4,40.6 35.1,50.9 47.2,62.9 35.1,75 45.4,85.3 57.5,73.2 69.5,85.3 
					79.9,75 67.8,62.9 79.9,50.9 				"/>
				<polygon class="st29" points="68.9,39.8 56.9,51.8 44.8,39.8 34.5,50.1 46.6,62.1 34.5,74.2 44.8,84.5 56.9,72.4 68.9,84.5 
					79.2,74.2 67.2,62.1 79.2,50.1 				"/>
				<polygon class="st30" points="68.3,38.9 56.3,51 44.2,39 33.9,49.3 46,61.3 33.9,73.4 44.2,83.7 56.3,71.6 68.3,83.7 78.6,73.4 
					66.6,61.3 78.6,49.3 				"/>
				<polygon class="st31" points="67.7,38.1 55.7,50.2 43.6,38.1 33.3,48.5 45.4,60.5 33.3,72.5 43.6,82.9 55.7,70.8 67.7,82.9 
					78,72.5 66,60.5 78,48.5 				"/>
				<polygon class="st32" points="67.1,37.3 55.1,49.4 43,37.3 32.7,47.7 44.8,59.7 32.7,71.7 43,82.1 55.1,70 67.1,82.1 77.4,71.7 
					65.4,59.7 77.4,47.7 				"/>
				<polygon class="st33" points="66.5,36.5 54.5,48.6 42.4,36.5 32.1,46.9 44.2,58.9 32.1,70.9 42.4,81.3 54.5,69.2 66.5,81.3 
					76.8,70.9 64.8,58.9 76.8,46.9 				"/>
				<polygon class="st34" points="65.9,35.7 53.9,47.8 41.8,35.7 31.5,46.1 43.6,58.1 31.5,70.1 41.8,80.5 53.9,68.4 65.9,80.5 
					76.2,70.1 64.2,58.1 76.2,46.1 				"/>
				<polygon class="st35" points="65.3,34.9 53.3,47 41.2,34.9 30.9,45.2 42.9,57.3 30.9,69.3 41.2,79.6 53.3,67.6 65.3,79.6 
					75.6,69.3 63.6,57.3 75.6,45.2 				"/>
				<polygon class="st36" points="64.7,34.1 52.7,46.2 40.6,34.1 30.3,44.4 42.3,56.5 30.3,68.5 40.6,78.8 52.7,66.8 64.7,78.8 
					75,68.5 63,56.5 75,44.4 				"/>
				<polygon class="st37" points="64.1,33.3 52.1,45.4 40,33.3 29.7,43.6 41.7,55.7 29.7,67.7 40,78 52.1,66 64.1,78 74.4,67.7 
					62.4,55.7 74.4,43.6 				"/>
				<polygon class="st38" points="63.5,32.5 51.5,44.6 39.4,32.5 29.1,42.8 41.1,54.9 29.1,66.9 39.4,77.2 51.5,65.2 63.5,77.2 
					73.8,66.9 61.8,54.9 73.8,42.8 				"/>
				<polygon class="st39" points="62.9,31.7 50.9,43.8 38.8,31.7 28.5,42 40.5,54.1 28.5,66.1 38.8,76.4 50.9,64.4 62.9,76.4 
					73.2,66.1 61.2,54.1 73.2,42 				"/>
				<polygon class="st40" points="62.3,30.9 50.3,42.9 38.2,30.9 27.9,41.2 39.9,53.3 27.9,65.3 38.2,75.6 50.3,63.6 62.3,75.6 
					72.6,65.3 60.6,53.3 72.6,41.2 				"/>
				<polygon class="st41" points="61.7,30.1 49.6,42.1 37.6,30.1 27.3,40.4 39.3,52.5 27.3,64.5 37.6,74.8 49.6,62.8 61.7,74.8 
					72,64.5 60,52.5 72,40.4 				"/>
				<polygon class="st42" points="61.1,29.3 49,41.3 37,29.3 26.7,39.6 38.7,51.7 26.7,63.7 37,74 49,62 61.1,74 71.4,63.7 
					59.4,51.7 71.4,39.6 				"/>
				<polygon class="st43" points="60.5,28.5 48.4,40.5 36.4,28.5 26.1,38.8 38.1,50.9 26.1,62.9 36.4,73.2 48.4,61.2 60.5,73.2 
					70.8,62.9 58.8,50.9 70.8,38.8 				"/>
				<polygon class="st44" points="59.9,27.7 47.8,39.7 35.8,27.7 25.5,38 37.5,50.1 25.5,62.1 35.8,72.4 47.8,60.4 59.9,72.4 
					70.2,62.1 58.2,50.1 70.2,38 				"/>
				<polygon class="st45" points="59.3,26.9 47.2,38.9 35.2,26.9 24.9,37.2 36.9,49.2 24.9,61.3 35.2,71.6 47.2,59.6 59.3,71.6 
					69.6,61.3 57.6,49.2 69.6,37.2 				"/>
				<polygon class="st46" points="58.7,26.1 46.6,38.1 34.6,26.1 24.3,36.4 36.3,48.4 24.3,60.5 34.6,70.8 46.6,58.8 58.7,70.8 
					69,60.5 57,48.4 69,36.4 				"/>
				<polygon class="st47" points="58.1,25.3 46,37.3 34,25.3 23.7,35.6 35.7,47.6 23.7,59.7 34,70 46,58 58.1,70 68.4,59.7 
					56.4,47.6 68.4,35.6 				"/>
				<polygon class="st48" points="57.5,24.5 45.4,36.5 33.4,24.5 23.1,34.8 35.1,46.8 23.1,58.9 33.4,69.2 45.4,57.2 57.5,69.2 
					67.8,58.9 55.7,46.8 67.8,34.8 				"/>
				<polygon class="st49" points="56.9,23.7 44.8,35.7 32.8,23.7 22.5,34 34.5,46 22.5,58.1 32.8,68.4 44.8,56.4 56.9,68.4 
					67.2,58.1 55.1,46 67.2,34 				"/>
				<polygon class="st50" points="56.3,22.9 44.2,34.9 32.2,22.9 21.9,33.2 33.9,45.2 21.9,57.3 32.2,67.6 44.2,55.5 56.3,67.6 
					66.6,57.3 54.5,45.2 66.6,33.2 				"/>
				<polygon class="st51" points="55.7,22.1 43.6,34.1 31.6,22.1 21.3,32.4 33.3,44.4 21.3,56.5 31.6,66.8 43.6,54.7 55.7,66.8 
					66,56.5 53.9,44.4 66,32.4 				"/>
				<polygon class="st52" points="55.1,21.3 43,33.3 31,21.3 20.7,31.6 32.7,43.6 20.7,55.7 31,66 43,53.9 55.1,66 65.4,55.7 
					53.3,43.6 65.4,31.6 				"/>
				<polygon class="st53" points="54.5,20.5 42.4,32.5 30.4,20.5 20.1,30.8 32.1,42.8 20.1,54.9 30.4,65.2 42.4,53.1 54.5,65.2 
					64.8,54.9 52.7,42.8 64.8,30.8 				"/>
				<polygon class="st54" points="53.9,19.7 41.8,31.7 29.8,19.7 19.5,30 31.5,42 19.5,54.1 29.8,64.4 41.8,52.3 53.9,64.4 
					64.2,54.1 52.1,42 64.2,30 				"/>
				<polygon points="53.2,18.8 41.2,30.9 29.2,18.8 18.8,29.2 30.9,41.2 18.8,53.2 29.2,63.6 41.2,51.5 53.2,63.6 63.6,53.2 
					51.5,41.2 63.6,29.2 				"/>
			</g>
		</g>
		<polygon class="st55" points="53.2,18.8 41.2,30.9 29.2,18.8 18.8,29.2 30.9,41.2 18.8,53.2 29.2,63.6 41.2,51.5 53.2,63.6 
			63.6,53.2 51.5,41.2 63.6,29.2 		"/>
	</g>
	<g class="st0">
		<g class="st56">
			<defs>
				<path id="XMLID_2_" d="M342.3,74.9c-8-8-18.6-12.1-29.1-12.1c-10.5,0-21.1,4-29.1,12.1c-16.1,16.1-16.1,42.2,0,58.3
					c8,8,18.6,12.1,29.1,12.1c10.5,0,21.1-4,29.1-12.1C358.4,117,358.4,91,342.3,74.9z"/>
			</defs>
			<use xlink:href="#XMLID_2_"  style="overflow:visible;fill:#1EB40F;"/>
			<clipPath id="XMLID_7_">
				<use xlink:href="#XMLID_2_"  style="overflow:visible;"/>
			</clipPath>
			<g class="st57">
				<polygon class="st14" points="331.5,142.9 320.4,131.8 310.3,142 331.5,163.2 331.5,163.2 341.7,153.1 366.5,128.2 356.4,118.1 
									"/>
				<polygon class="st15" points="330.9,142.1 319.8,131 309.7,141.2 330.9,162.4 330.9,162.4 341.1,152.3 365.9,127.4 355.8,117.3 
									"/>
				<polygon class="st16" points="330.3,141.3 319.2,130.2 309.1,140.4 330.3,161.6 330.3,161.6 340.5,151.5 365.3,126.6 
					355.2,116.5 				"/>
				<polygon class="st17" points="329.7,140.5 318.6,129.4 308.5,139.6 329.7,160.8 329.7,160.8 339.8,150.7 364.7,125.8 
					354.6,115.7 				"/>
				<polygon class="st18" points="329.1,139.7 318,128.6 307.9,138.7 329.1,160 329.1,160 339.2,149.9 364.1,125 354,114.9 				"/>
				<polygon class="st19" points="328.5,138.9 317.4,127.8 307.3,137.9 328.5,159.2 328.5,159.2 338.6,149 363.5,124.2 353.4,114.1 
									"/>
				<polygon class="st20" points="327.9,138.1 316.8,127 306.7,137.1 327.9,158.4 327.9,158.4 338,148.2 362.9,123.4 352.8,113.3 
									"/>
				<polygon class="st21" points="327.3,137.3 316.2,126.2 306.1,136.3 327.3,157.6 327.3,157.6 337.4,147.4 362.3,122.6 
					352.2,112.4 				"/>
				<polygon class="st22" points="326.7,136.5 315.6,125.4 305.5,135.5 326.7,156.8 326.7,156.8 336.8,146.6 361.7,121.8 
					351.6,111.6 				"/>
				<polygon class="st23" points="326.1,135.7 315,124.6 304.9,134.7 326.1,156 326.1,156 336.2,145.8 361.1,121 351,110.8 				"/>
				<polygon class="st24" points="325.5,134.9 314.4,123.8 304.3,133.9 325.5,155.2 325.5,155.2 335.6,145 360.5,120.2 350.4,110 
									"/>
				<polygon class="st25" points="324.9,134.1 313.8,123 303.7,133.1 324.9,154.4 324.9,154.4 335,144.2 359.9,119.4 349.8,109.2 
									"/>
				<polygon class="st26" points="324.3,133.3 313.2,122.2 303.1,132.3 324.3,153.6 324.3,153.5 334.4,143.4 359.3,118.6 
					349.2,108.4 				"/>
				<polygon class="st27" points="323.7,132.5 312.6,121.4 302.5,131.5 323.7,152.7 323.7,152.7 333.8,142.6 358.7,117.8 
					348.5,107.6 				"/>
				<polygon class="st28" points="323.1,131.7 312,120.6 301.8,130.7 323.1,151.9 323.1,151.9 333.2,141.8 358.1,117 347.9,106.8 
									"/>
				<polygon class="st29" points="322.5,130.9 311.4,119.8 301.2,129.9 322.5,151.1 322.5,151.1 332.6,141 357.5,116.1 347.3,106 
									"/>
				<polygon class="st30" points="321.9,130.1 310.8,119 300.6,129.1 321.9,150.3 321.9,150.3 332,140.2 356.9,115.3 346.7,105.2 
									"/>
				<polygon class="st31" points="321.3,129.3 310.2,118.2 300,128.3 321.3,149.5 321.3,149.5 331.4,139.4 356.3,114.5 346.1,104.4 
									"/>
				<polygon class="st32" points="320.7,128.5 309.6,117.4 299.4,127.5 320.7,148.7 320.7,148.7 330.8,138.6 355.7,113.7 
					345.5,103.6 				"/>
				<polygon class="st33" points="320.1,127.7 309,116.6 298.8,126.7 320.1,147.9 320.1,147.9 330.2,137.8 355.1,112.9 344.9,102.8 
									"/>
				<polygon class="st34" points="319.5,126.9 308.4,115.8 298.2,125.9 319.5,147.1 319.5,147.1 329.6,137 354.5,112.1 344.3,102 
									"/>
				<polygon class="st35" points="318.9,126.1 307.8,114.9 297.6,125.1 318.9,146.3 318.9,146.3 329,136.2 353.9,111.3 343.7,101.2 
									"/>
				<polygon class="st36" points="318.3,125.2 307.2,114.1 297,124.3 318.3,145.5 318.3,145.5 328.4,135.4 353.3,110.5 343.1,100.4 
									"/>
				<polygon class="st37" points="317.7,124.4 306.6,113.3 296.4,123.5 317.7,144.7 317.7,144.7 327.8,134.6 352.6,109.7 
					342.5,99.6 				"/>
				<polygon class="st38" points="317.1,123.6 305.9,112.5 295.8,122.7 317.1,143.9 317.1,143.9 327.2,133.8 352,108.9 341.9,98.8 
									"/>
				<polygon class="st39" points="316.5,122.8 305.3,111.7 295.2,121.9 316.5,143.1 316.5,143.1 326.6,133 351.4,108.1 341.3,98 
									"/>
				<polygon class="st40" points="315.8,122 304.7,110.9 294.6,121.1 315.8,142.3 315.8,142.3 326,132.2 350.8,107.3 340.7,97.2 
									"/>
				<polygon class="st41" points="315.2,121.2 304.1,110.1 294,120.3 315.2,141.5 315.2,141.5 325.4,131.4 350.2,106.5 340.1,96.4 
									"/>
				<polygon class="st42" points="314.6,120.4 303.5,109.3 293.4,119.4 314.6,140.7 314.6,140.7 324.8,130.6 349.6,105.7 
					339.5,95.6 				"/>
				<polygon class="st43" points="314,119.6 302.9,108.5 292.8,118.6 314,139.9 314,139.9 324.2,129.8 349,104.9 338.9,94.8 				"/>
				<polygon class="st44" points="313.4,118.8 302.3,107.7 292.2,117.8 313.4,139.1 313.4,139.1 323.6,128.9 348.4,104.1 338.3,94 
									"/>
				<polygon class="st45" points="312.8,118 301.7,106.9 291.6,117 312.8,138.3 312.8,138.3 323,128.1 347.8,103.3 337.7,93.2 				
					"/>
				<polygon class="st46" points="312.2,117.2 301.1,106.1 291,116.2 312.2,137.5 312.2,137.5 322.4,127.3 347.2,102.5 337.1,92.3 
									"/>
				<polygon class="st47" points="311.6,116.4 300.5,105.3 290.4,115.4 311.6,136.7 311.6,136.7 321.8,126.5 346.6,101.7 
					336.5,91.5 				"/>
				<polygon class="st48" points="311,115.6 299.9,104.5 289.8,114.6 311,135.9 311,135.9 321.2,125.7 346,100.9 335.9,90.7 				"/>
				<polygon class="st49" points="310.4,114.8 299.3,103.7 289.2,113.8 310.4,135.1 310.4,135.1 320.5,124.9 345.4,100.1 
					335.3,89.9 				"/>
				<polygon class="st50" points="309.8,114 298.7,102.9 288.6,113 309.8,134.3 309.8,134.3 319.9,124.1 344.8,99.3 334.7,89.1 				
					"/>
				<polygon class="st51" points="309.2,113.2 298.1,102.1 288,112.2 309.2,133.4 309.2,133.4 319.3,123.3 344.2,98.5 334.1,88.3 
									"/>
				<polygon class="st52" points="308.6,112.4 297.5,101.3 287.4,111.4 308.6,132.6 308.6,132.6 318.7,122.5 343.6,97.7 333.5,87.5 
									"/>
				<polygon class="st53" points="308,111.6 296.9,100.5 286.8,110.6 308,131.8 308,131.8 318.1,121.7 343,96.8 332.9,86.7 				"/>
				<polygon class="st54" points="307.4,110.8 296.3,99.7 286.2,109.8 307.4,131 307.4,131 317.5,120.9 342.4,96 332.3,85.9 				"/>
				<polygon points="306.8,110 295.7,98.9 285.6,109 306.8,130.2 306.8,130.2 316.9,120.1 341.8,95.2 331.7,85.1 				"/>
			</g>
		</g>
		<polygon class="st58" points="306.8,110 295.7,98.9 285.6,109 306.8,130.2 306.8,130.2 316.9,120.1 341.8,95.2 331.7,85.1 		"/>
	</g>
	<g class="st0">
		<g class="st56">
			<defs>
				<path id="XMLID_4_" d="M459,201.4c-8-8-18.6-12.1-29.1-12.1c-10.5,0-21.1,4-29.1,12.1c-16.1,16.1-16.1,42.2,0,58.3
					c8,8,18.6,12.1,29.1,12.1c10.5,0,21.1-4,29.1-12.1C475.1,243.6,475.1,217.5,459,201.4z"/>
			</defs>
			<use xlink:href="#XMLID_4_"  style="overflow:visible;fill:#FFFFFF;"/>
			<clipPath id="XMLID_8_">
				<use xlink:href="#XMLID_4_"  style="overflow:visible;"/>
			</clipPath>
			<g class="st59">
				<polygon class="st14" points="466.6,241.2 454.6,253.2 442.5,241.2 432.2,251.5 444.2,263.5 432.2,275.6 442.5,285.9 
					454.6,273.9 466.6,285.9 476.9,275.6 464.9,263.5 476.9,251.5 				"/>
				<polygon class="st15" points="466,240.4 453.9,252.4 441.9,240.4 431.6,250.7 443.6,262.7 431.6,274.8 441.9,285.1 453.9,273.1 
					466,285.1 476.3,274.8 464.3,262.7 476.3,250.7 				"/>
				<polygon class="st16" points="465.4,239.6 453.3,251.6 441.3,239.6 431,249.9 443,261.9 431,274 441.3,284.3 453.3,272.3 
					465.4,284.3 475.7,274 463.7,261.9 475.7,249.9 				"/>
				<polygon class="st17" points="464.8,238.8 452.7,250.8 440.7,238.8 430.4,249.1 442.4,261.1 430.4,273.2 440.7,283.5 
					452.7,271.5 464.8,283.5 475.1,273.2 463.1,261.1 475.1,249.1 				"/>
				<polygon class="st18" points="464.2,238 452.1,250 440.1,238 429.8,248.3 441.8,260.3 429.8,272.4 440.1,282.7 452.1,270.6 
					464.2,282.7 474.5,272.4 462.5,260.3 474.5,248.3 				"/>
				<polygon class="st19" points="463.6,237.2 451.5,249.2 439.5,237.2 429.2,247.5 441.2,259.5 429.2,271.6 439.5,281.9 
					451.5,269.8 463.6,281.9 473.9,271.6 461.9,259.5 473.9,247.5 				"/>
				<polygon class="st20" points="463,236.4 450.9,248.4 438.9,236.4 428.6,246.7 440.6,258.7 428.6,270.8 438.9,281.1 450.9,269 
					463,281.1 473.3,270.8 461.3,258.7 473.3,246.7 				"/>
				<polygon class="st21" points="462.4,235.6 450.3,247.6 438.3,235.6 428,245.9 440,257.9 428,270 438.3,280.3 450.3,268.2 
					462.4,280.3 472.7,270 460.7,257.9 472.7,245.9 				"/>
				<polygon class="st22" points="461.8,234.8 449.7,246.8 437.7,234.8 427.4,245.1 439.4,257.1 427.4,269.2 437.7,279.5 
					449.7,267.4 461.8,279.5 472.1,269.2 460,257.1 472.1,245.1 				"/>
				<polygon class="st23" points="461.2,233.9 449.1,246 437.1,233.9 426.8,244.3 438.8,256.3 426.8,268.3 437.1,278.7 449.1,266.6 
					461.2,278.7 471.5,268.3 459.4,256.3 471.5,244.3 				"/>
				<polygon class="st24" points="460.6,233.1 448.5,245.2 436.5,233.1 426.2,243.5 438.2,255.5 426.2,267.5 436.5,277.9 
					448.5,265.8 460.6,277.9 470.9,267.5 458.8,255.5 470.9,243.5 				"/>
				<polygon class="st25" points="460,232.3 447.9,244.4 435.9,232.3 425.6,242.7 437.6,254.7 425.6,266.7 435.9,277.1 447.9,265 
					460,277.1 470.3,266.7 458.2,254.7 470.3,242.7 				"/>
				<polygon class="st26" points="459.4,231.5 447.3,243.6 435.3,231.5 425,241.9 437,253.9 425,265.9 435.3,276.3 447.3,264.2 
					459.4,276.3 469.7,265.9 457.6,253.9 469.7,241.9 				"/>
				<polygon class="st27" points="458.8,230.7 446.7,242.8 434.7,230.7 424.4,241.1 436.4,253.1 424.4,265.1 434.7,275.5 
					446.7,263.4 458.8,275.5 469.1,265.1 457,253.1 469.1,241.1 				"/>
				<polygon class="st28" points="458.2,229.9 446.1,242 434.1,229.9 423.8,240.2 435.8,252.3 423.8,264.3 434.1,274.6 446.1,262.6 
					458.2,274.6 468.5,264.3 456.4,252.3 468.5,240.2 				"/>
				<polygon class="st29" points="457.5,229.1 445.5,241.2 433.5,229.1 423.1,239.4 435.2,251.5 423.1,263.5 433.5,273.8 
					445.5,261.8 457.5,273.8 467.9,263.5 455.8,251.5 467.9,239.4 				"/>
				<polygon class="st30" points="456.9,228.3 444.9,240.4 432.9,228.3 422.5,238.6 434.6,250.7 422.5,262.7 432.9,273 444.9,261 
					456.9,273 467.3,262.7 455.2,250.7 467.3,238.6 				"/>
				<polygon class="st31" points="456.3,227.5 444.3,239.6 432.3,227.5 421.9,237.8 434,249.9 421.9,261.9 432.3,272.2 444.3,260.2 
					456.3,272.2 466.7,261.9 454.6,249.9 466.7,237.8 				"/>
				<polygon class="st32" points="455.7,226.7 443.7,238.8 431.7,226.7 421.3,237 433.4,249.1 421.3,261.1 431.7,271.4 443.7,259.4 
					455.7,271.4 466.1,261.1 454,249.1 466.1,237 				"/>
				<polygon class="st33" points="455.1,225.9 443.1,237.9 431.1,225.9 420.7,236.2 432.8,248.3 420.7,260.3 431.1,270.6 
					443.1,258.6 455.1,270.6 465.5,260.3 453.4,248.3 465.5,236.2 				"/>
				<polygon class="st34" points="454.5,225.1 442.5,237.1 430.5,225.1 420.1,235.4 432.2,247.5 420.1,259.5 430.5,269.8 
					442.5,257.8 454.5,269.8 464.9,259.5 452.8,247.5 464.9,235.4 				"/>
				<polygon class="st35" points="453.9,224.3 441.9,236.3 429.8,224.3 419.5,234.6 431.6,246.7 419.5,258.7 429.8,269 441.9,257 
					453.9,269 464.2,258.7 452.2,246.7 464.2,234.6 				"/>
				<polygon class="st36" points="453.3,223.5 441.3,235.5 429.2,223.5 418.9,233.8 431,245.9 418.9,257.9 429.2,268.2 441.3,256.2 
					453.3,268.2 463.6,257.9 451.6,245.9 463.6,233.8 				"/>
				<polygon class="st37" points="452.7,222.7 440.7,234.7 428.6,222.7 418.3,233 430.4,245.1 418.3,257.1 428.6,267.4 440.7,255.4 
					452.7,267.4 463,257.1 451,245.1 463,233 				"/>
				<polygon class="st38" points="452.1,221.9 440.1,233.9 428,221.9 417.7,232.2 429.8,244.2 417.7,256.3 428,266.6 440.1,254.6 
					452.1,266.6 462.4,256.3 450.4,244.2 462.4,232.2 				"/>
				<polygon class="st39" points="451.5,221.1 439.5,233.1 427.4,221.1 417.1,231.4 429.2,243.4 417.1,255.5 427.4,265.8 
					439.5,253.8 451.5,265.8 461.8,255.5 449.8,243.4 461.8,231.4 				"/>
				<polygon class="st40" points="450.9,220.3 438.9,232.3 426.8,220.3 416.5,230.6 428.6,242.6 416.5,254.7 426.8,265 438.9,253 
					450.9,265 461.2,254.7 449.2,242.6 461.2,230.6 				"/>
				<polygon class="st41" points="450.3,219.5 438.3,231.5 426.2,219.5 415.9,229.8 428,241.8 415.9,253.9 426.2,264.2 438.3,252.2 
					450.3,264.2 460.6,253.9 448.6,241.8 460.6,229.8 				"/>
				<polygon class="st42" points="449.7,218.7 437.7,230.7 425.6,218.7 415.3,229 427.3,241 415.3,253.1 425.6,263.4 437.7,251.4 
					449.7,263.4 460,253.1 448,241 460,229 				"/>
				<polygon class="st43" points="449.1,217.9 437.1,229.9 425,217.9 414.7,228.2 426.7,240.2 414.7,252.3 425,262.6 437.1,250.5 
					449.1,262.6 459.4,252.3 447.4,240.2 459.4,228.2 				"/>
				<polygon class="st44" points="448.5,217.1 436.5,229.1 424.4,217.1 414.1,227.4 426.1,239.4 414.1,251.5 424.4,261.8 
					436.5,249.7 448.5,261.8 458.8,251.5 446.8,239.4 458.8,227.4 				"/>
				<polygon class="st45" points="447.9,216.3 435.9,228.3 423.8,216.3 413.5,226.6 425.5,238.6 413.5,250.7 423.8,261 435.9,248.9 
					447.9,261 458.2,250.7 446.2,238.6 458.2,226.6 				"/>
				<polygon class="st46" points="447.3,215.5 435.3,227.5 423.2,215.5 412.9,225.8 424.9,237.8 412.9,249.9 423.2,260.2 
					435.3,248.1 447.3,260.2 457.6,249.9 445.6,237.8 457.6,225.8 				"/>
				<polygon class="st47" points="446.7,214.6 434.7,226.7 422.6,214.7 412.3,225 424.3,237 412.3,249.1 422.6,259.4 434.7,247.3 
					446.7,259.4 457,249.1 445,237 457,225 				"/>
				<polygon class="st48" points="446.1,213.8 434,225.9 422,213.8 411.7,224.2 423.7,236.2 411.7,248.2 422,258.6 434,246.5 
					446.1,258.6 456.4,248.2 444.4,236.2 456.4,224.2 				"/>
				<polygon class="st49" points="445.5,213 433.4,225.1 421.4,213 411.1,223.4 423.1,235.4 411.1,247.4 421.4,257.8 433.4,245.7 
					445.5,257.8 455.8,247.4 443.8,235.4 455.8,223.4 				"/>
				<polygon class="st50" points="444.9,212.2 432.8,224.3 420.8,212.2 410.5,222.6 422.5,234.6 410.5,246.6 420.8,257 432.8,244.9 
					444.9,257 455.2,246.6 443.2,234.6 455.2,222.6 				"/>
				<polygon class="st51" points="444.3,211.4 432.2,223.5 420.2,211.4 409.9,221.8 421.9,233.8 409.9,245.8 420.2,256.2 
					432.2,244.1 444.3,256.2 454.6,245.8 442.6,233.8 454.6,221.8 				"/>
				<polygon class="st52" points="443.7,210.6 431.6,222.7 419.6,210.6 409.3,220.9 421.3,233 409.3,245 419.6,255.4 431.6,243.3 
					443.7,255.4 454,245 442,233 454,220.9 				"/>
				<polygon class="st53" points="443.1,209.8 431,221.9 419,209.8 408.7,220.1 420.7,232.2 408.7,244.2 419,254.5 431,242.5 
					443.1,254.5 453.4,244.2 441.4,232.2 453.4,220.1 				"/>
				<polygon class="st54" points="442.5,209 430.4,221.1 418.4,209 408.1,219.3 420.1,231.4 408.1,243.4 418.4,253.7 430.4,241.7 
					442.5,253.7 452.8,243.4 440.8,231.4 452.8,219.3 				"/>
				<polygon points="441.9,208.2 429.8,220.3 417.8,208.2 407.5,218.5 419.5,230.6 407.5,242.6 417.8,252.9 429.8,240.9 
					441.9,252.9 452.2,242.6 440.1,230.6 452.2,218.5 				"/>
			</g>
		</g>
		<polygon class="st60" points="441.9,208.2 429.8,220.3 417.8,208.2 407.5,218.5 419.5,230.6 407.5,242.6 417.8,252.9 429.8,240.9 
			441.9,252.9 452.2,242.6 440.1,230.6 452.2,218.5 		"/>
	</g>
	<g class="st0">
		<g class="st56">
			<defs>
				<path id="XMLID_3_" d="M342.3,201.4c-8-8-18.6-12.1-29.1-12.1c-10.5,0-21.1,4-29.1,12.1c-16.1,16.1-16.1,42.2,0,58.3
					c8,8,18.6,12.1,29.1,12.1c10.5,0,21.1-4,29.1-12.1C358.4,243.6,358.4,217.5,342.3,201.4z"/>
			</defs>
			<use xlink:href="#XMLID_3_"  style="overflow:visible;fill:#FFFFFF;"/>
			<clipPath id="XMLID_9_">
				<use xlink:href="#XMLID_3_"  style="overflow:visible;"/>
			</clipPath>
			<g class="st61">
				<polygon class="st14" points="331.5,269.5 320.4,258.4 310.3,268.5 331.5,289.8 331.5,289.8 341.7,279.6 366.5,254.8 
					356.4,244.7 				"/>
				<polygon class="st15" points="330.9,268.7 319.8,257.6 309.7,267.7 330.9,289 330.9,289 341.1,278.8 365.9,254 355.8,243.9 				
					"/>
				<polygon class="st16" points="330.3,267.9 319.2,256.8 309.1,266.9 330.3,288.2 330.3,288.2 340.5,278 365.3,253.2 355.2,243 
									"/>
				<polygon class="st17" points="329.7,267.1 318.6,256 308.5,266.1 329.7,287.4 329.7,287.4 339.8,277.2 364.7,252.4 354.6,242.2 
									"/>
				<polygon class="st18" points="329.1,266.3 318,255.2 307.9,265.3 329.1,286.6 329.1,286.6 339.2,276.4 364.1,251.6 354,241.4 
									"/>
				<polygon class="st19" points="328.5,265.5 317.4,254.4 307.3,264.5 328.5,285.8 328.5,285.8 338.6,275.6 363.5,250.8 
					353.4,240.6 				"/>
				<polygon class="st20" points="327.9,264.7 316.8,253.6 306.7,263.7 327.9,285 327.9,285 338,274.8 362.9,250 352.8,239.8 				
					"/>
				<polygon class="st21" points="327.3,263.9 316.2,252.8 306.1,262.9 327.3,284.1 327.3,284.1 337.4,274 362.3,249.2 352.2,239 
									"/>
				<polygon class="st22" points="326.7,263.1 315.6,252 305.5,262.1 326.7,283.3 326.7,283.3 336.8,273.2 361.7,248.4 351.6,238.2 
									"/>
				<polygon class="st23" points="326.1,262.3 315,251.2 304.9,261.3 326.1,282.5 326.1,282.5 336.2,272.4 361.1,247.5 351,237.4 
									"/>
				<polygon class="st24" points="325.5,261.5 314.4,250.4 304.3,260.5 325.5,281.7 325.5,281.7 335.6,271.6 360.5,246.7 
					350.4,236.6 				"/>
				<polygon class="st25" points="324.9,260.7 313.8,249.6 303.7,259.7 324.9,280.9 324.9,280.9 335,270.8 359.9,245.9 349.8,235.8 
									"/>
				<polygon class="st26" points="324.3,259.9 313.2,248.8 303.1,258.9 324.3,280.1 324.3,280.1 334.4,270 359.3,245.1 349.2,235 
									"/>
				<polygon class="st27" points="323.7,259.1 312.6,248 302.5,258.1 323.7,279.3 323.7,279.3 333.8,269.2 358.7,244.3 348.5,234.2 
									"/>
				<polygon class="st28" points="323.1,258.3 312,247.2 301.8,257.3 323.1,278.5 323.1,278.5 333.2,268.4 358.1,243.5 347.9,233.4 
									"/>
				<polygon class="st29" points="322.5,257.5 311.4,246.4 301.2,256.5 322.5,277.7 322.5,277.7 332.6,267.6 357.5,242.7 
					347.3,232.6 				"/>
				<polygon class="st30" points="321.9,256.7 310.8,245.5 300.6,255.7 321.9,276.9 321.9,276.9 332,266.8 356.9,241.9 346.7,231.8 
									"/>
				<polygon class="st31" points="321.3,255.8 310.2,244.7 300,254.9 321.3,276.1 321.3,276.1 331.4,266 356.3,241.1 346.1,231 				
					"/>
				<polygon class="st32" points="320.7,255 309.6,243.9 299.4,254.1 320.7,275.3 320.7,275.3 330.8,265.2 355.7,240.3 345.5,230.2 
									"/>
				<polygon class="st33" points="320.1,254.2 309,243.1 298.8,253.3 320.1,274.5 320.1,274.5 330.2,264.4 355.1,239.5 344.9,229.4 
									"/>
				<polygon class="st34" points="319.5,253.4 308.4,242.3 298.2,252.5 319.5,273.7 319.5,273.7 329.6,263.6 354.5,238.7 
					344.3,228.6 				"/>
				<polygon class="st35" points="318.9,252.6 307.8,241.5 297.6,251.7 318.9,272.9 318.9,272.9 329,262.8 353.9,237.9 343.7,227.8 
									"/>
				<polygon class="st36" points="318.3,251.8 307.2,240.7 297,250.9 318.3,272.1 318.3,272.1 328.4,262 353.3,237.1 343.1,227 				
					"/>
				<polygon class="st37" points="317.7,251 306.6,239.9 296.4,250 317.7,271.3 317.7,271.3 327.8,261.2 352.6,236.3 342.5,226.2 
									"/>
				<polygon class="st38" points="317.1,250.2 305.9,239.1 295.8,249.2 317.1,270.5 317.1,270.5 327.2,260.3 352,235.5 341.9,225.4 
									"/>
				<polygon class="st39" points="316.5,249.4 305.3,238.3 295.2,248.4 316.5,269.7 316.5,269.7 326.6,259.5 351.4,234.7 
					341.3,224.6 				"/>
				<polygon class="st40" points="315.8,248.6 304.7,237.5 294.6,247.6 315.8,268.9 315.8,268.9 326,258.7 350.8,233.9 340.7,223.7 
									"/>
				<polygon class="st41" points="315.2,247.8 304.1,236.7 294,246.8 315.2,268.1 315.2,268.1 325.4,257.9 350.2,233.1 340.1,222.9 
									"/>
				<polygon class="st42" points="314.6,247 303.5,235.9 293.4,246 314.6,267.3 314.6,267.3 324.8,257.1 349.6,232.3 339.5,222.1 
									"/>
				<polygon class="st43" points="314,246.2 302.9,235.1 292.8,245.2 314,266.5 314,266.5 324.2,256.3 349,231.5 338.9,221.3 				
					"/>
				<polygon class="st44" points="313.4,245.4 302.3,234.3 292.2,244.4 313.4,265.7 313.4,265.7 323.6,255.5 348.4,230.7 
					338.3,220.5 				"/>
				<polygon class="st45" points="312.8,244.6 301.7,233.5 291.6,243.6 312.8,264.9 312.8,264.8 323,254.7 347.8,229.9 337.7,219.7 
									"/>
				<polygon class="st46" points="312.2,243.8 301.1,232.7 291,242.8 312.2,264 312.2,264 322.4,253.9 347.2,229.1 337.1,218.9 				
					"/>
				<polygon class="st47" points="311.6,243 300.5,231.9 290.4,242 311.6,263.2 311.6,263.2 321.8,253.1 346.6,228.3 336.5,218.1 
									"/>
				<polygon class="st48" points="311,242.2 299.9,231.1 289.8,241.2 311,262.4 311,262.4 321.2,252.3 346,227.4 335.9,217.3 				
					"/>
				<polygon class="st49" points="310.4,241.4 299.3,230.3 289.2,240.4 310.4,261.6 310.4,261.6 320.5,251.5 345.4,226.6 
					335.3,216.5 				"/>
				<polygon class="st50" points="309.8,240.6 298.7,229.5 288.6,239.6 309.8,260.8 309.8,260.8 319.9,250.7 344.8,225.8 
					334.7,215.7 				"/>
				<polygon class="st51" points="309.2,239.8 298.1,228.7 288,238.8 309.2,260 309.2,260 319.3,249.9 344.2,225 334.1,214.9 				
					"/>
				<polygon class="st52" points="308.6,239 297.5,227.9 287.4,238 308.6,259.2 308.6,259.2 318.7,249.1 343.6,224.2 333.5,214.1 
									"/>
				<polygon class="st53" points="308,238.2 296.9,227.1 286.8,237.2 308,258.4 308,258.4 318.1,248.3 343,223.4 332.9,213.3 				
					"/>
				<polygon class="st54" points="307.4,237.4 296.3,226.2 286.2,236.4 307.4,257.6 307.4,257.6 317.5,247.5 342.4,222.6 
					332.3,212.5 				"/>
				<polygon points="306.8,236.5 295.7,225.4 285.6,235.6 306.8,256.8 306.8,256.8 316.9,246.7 341.8,221.8 331.7,211.7 				"/>
			</g>
		</g>
		<polygon class="st62" points="306.8,236.5 295.7,225.4 285.6,235.6 306.8,256.8 306.8,256.8 316.9,246.7 341.8,221.8 331.7,211.7 
					"/>
	</g>
	<g class="st0">
		<path class="st62" d="M291.4,398.4h43.4c10.8,0,19.5-8.7,19.5-19.5v-43.4c0-10.8-8.7-19.5-19.5-19.5h-43.4
			c-10.8,0-19.5,8.7-19.5,19.5v43.4C272,389.6,280.7,398.4,291.4,398.4z"/>
		<polygon class="st58" points="306.8,363.1 295.7,352 285.6,362.2 306.8,383.4 306.8,383.4 316.9,373.3 341.8,348.4 331.7,338.3 		
			"/>
	</g>
	<g class="st0">
		<path class="st62" d="M111.5,201.4c-8-8-18.6-12.1-29.1-12.1s-21.1,4-29.1,12.1c-16.1,16.1-16.1,42.2,0,58.3
			c8,8,18.6,12.1,29.1,12.1s21.1-4,29.1-12.1C127.6,243.6,127.6,217.5,111.5,201.4z M107,255.2c-6.6,6.6-15.3,10.2-24.6,10.2
			s-18-3.6-24.6-10.2c-13.6-13.6-13.6-35.6,0-49.2c6.6-6.6,15.3-10.2,24.6-10.2s18,3.6,24.6,10.2C120.5,219.5,120.5,241.6,107,255.2
			z"/>
		<polygon class="st62" points="76,236.5 64.9,225.4 54.8,235.6 76,256.8 76,256.8 86.2,246.7 111,221.8 100.9,211.7 		"/>
	</g>
	<g class="st0">
		<polygon class="st60" points="208.5,208.2 196.5,220.3 184.5,208.2 174.1,218.5 186.2,230.6 174.1,242.6 184.5,252.9 196.5,240.9 
			208.5,252.9 218.9,242.6 206.8,230.6 218.9,218.5 		"/>
		<path class="st60" d="M196.5,189.4c-10.5,0-21.1,4-29.1,12.1c-16.1,16.1-16.1,42.2,0,58.3c8,8,18.6,12.1,29.1,12.1
			c10.5,0,21.1-4,29.1-12.1c16.1-16.1,16.1-42.2,0-58.3C217.6,193.4,207,189.4,196.5,189.4 M221.1,255.2
			c-6.6,6.6-15.3,10.2-24.6,10.2c-9.3,0-18-3.6-24.6-10.2c-6.6-6.6-10.2-15.3-10.2-24.6c0-9.3,3.6-18,10.2-24.6
			c6.6-6.6,15.3-10.2,24.6-10.2c9.3,0,18,3.6,24.6,10.2h0c6.6,6.6,10.2,15.3,10.2,24.6C231.3,239.9,227.6,248.6,221.1,255.2z"/>
	</g>
	<g class="st0">
		<g class="st56">
			<g>
				
					<radialGradient id="SVGID_13_" cx="73.1709" cy="117.7959" r="46.1681" gradientTransform="matrix(0.8858 -0.2045 0.2045 0.8858 -2.5972 43.0572)" gradientUnits="userSpaceOnUse">
					<stop  offset="0" style="stop-color:#1ABA1B"/>
					<stop  offset="1" style="stop-color:#22AC00"/>
				</radialGradient>
				<path class="st63" d="M79.8,144.7c-19,0-35.3-13-39.6-31.6c-2.4-10.6-0.6-21.5,5.1-30.7c5.8-9.2,14.8-15.6,25.4-18.1
					c3-0.7,6.1-1.1,9.2-1.1c19,0,35.3,13,39.6,31.6c2.4,10.6,0.6,21.5-5.1,30.7c-5.8,9.2-14.8,15.6-25.4,18.1
					C86,144.4,82.9,144.7,79.8,144.7z"/>
				<path class="st64" d="M79.9,62.8v1c8.9,0,17.7,3.1,24.8,8.6C111.9,78,116.9,86.1,119,95c2.4,10.5,0.6,21.2-5.1,30.3
					c-5.7,9.1-14.6,15.5-25,17.9c-3,0.7-6,1-9.1,1c-8.9,0-17.7-3.1-24.8-8.6C47.8,130,42.7,122,40.7,113c-5-21.6,8.5-43.2,30.1-48.2
					c3-0.7,6-1,9.1-1L79.9,62.8 M79.9,62.8c-3.1,0-6.2,0.3-9.3,1.1c-22.2,5.1-36,27.2-30.9,49.4c4.4,19.1,21.4,31.9,40.1,31.9
					c3.1,0,6.2-0.3,9.3-1.1c22.2-5.1,36-27.2,30.9-49.4C115.6,75.7,98.6,62.8,79.9,62.8L79.9,62.8z"/>
			</g>
			<g class="st65">
				
					<linearGradient id="SVGID_14_" gradientUnits="userSpaceOnUse" x1="77.1872" y1="70.6744" x2="98.5307" y2="152.4709" gradientTransform="matrix(0.9744 -0.225 0.225 0.9744 -15.6742 38.6532)">
					<stop  offset="0" style="stop-color:#FFFFFF"/>
					<stop  offset="1" style="stop-color:#FBAE17"/>
				</linearGradient>
				<path class="st66" d="M100.2,69.7c8.3,5.4,14.6,13.9,17,24.4c5,21.4-8.5,42.9-29.9,47.9c-10.4,2.4-20.8,0.5-29.3-4.6
					c8.8,5.8,19.8,8.1,30.9,5.6c21.4-5,34.9-26.4,29.9-47.9C116.2,84,109.2,75.1,100.2,69.7z"/>
			</g>
			<g>
				<g>
					
						<linearGradient id="SVGID_15_" gradientUnits="userSpaceOnUse" x1="66.83" y1="45.4934" x2="81.5559" y2="99.0681" gradientTransform="matrix(0.9744 -0.225 0.225 0.9744 -15.0627 38.5341)">
						<stop  offset="0" style="stop-color:#FFFBD4"/>
						<stop  offset="1" style="stop-color:#000000"/>
					</linearGradient>
					<path class="st67" d="M71.9,113.4c10.9-14.9,26.1-29.9,43.2-25.2c-7.4-16.5-25.7-26-43.9-21.8c-20.8,4.8-33.7,25.6-28.9,46.3
						c1.2,5,3.3,9.6,6.1,13.6C54.6,126.4,63.9,124.3,71.9,113.4z"/>
				</g>
			</g>
			<g>
				
					<linearGradient id="SVGID_16_" gradientUnits="userSpaceOnUse" x1="60.5393" y1="38.3458" x2="87.9456" y2="117.8223" gradientTransform="matrix(0.9744 -0.225 0.225 0.9744 -15.6742 38.6532)">
					<stop  offset="0" style="stop-color:#FFFFFF"/>
					<stop  offset="1" style="stop-color:#000000"/>
				</linearGradient>
				<path class="st68" d="M45.3,114.6c-4.8-20.8,8.2-41.5,28.9-46.3c9.7-2.2,19.5-0.6,27.6,4c-8.6-6-19.7-8.4-30.7-5.9
					c-20.8,4.8-33.7,25.6-28.9,46.3c2.5,11,9.6,19.8,18.7,25C53.3,132.4,47.5,124.4,45.3,114.6z"/>
			</g>
		</g>
		<linearGradient id="SVGID_17_" gradientUnits="userSpaceOnUse" x1="56.7888" y1="104.1206" x2="105.6865" y2="104.1206">
			<stop  offset="0" style="stop-color:#FFFFFF"/>
			<stop  offset="1" style="stop-color:#FBAE17"/>
		</linearGradient>
		<polygon class="st69" points="105.7,93.3 96.6,84.3 75,105.9 65.8,96.7 56.8,105.8 75,124 75,124 75,124 		"/>
		<polygon class="st58" points="104.2,91.8 95.1,82.7 73.5,104.4 64.3,95.2 55.3,104.3 73.5,122.5 73.5,122.4 73.5,122.5 		"/>
	</g>
	<g class="st0">
		<g class="st56">
			<g>
				
					<radialGradient id="SVGID_18_" cx="194.1948" cy="120.0073" r="41.969" gradientTransform="matrix(0.953 -0.3029 0.3029 0.953 -16.1725 76.2615)" gradientUnits="userSpaceOnUse">
					<stop  offset="0" style="stop-color:#F18651"/>
					<stop  offset="1" style="stop-color:#EF1200"/>
				</radialGradient>
				<path class="st70" d="M196.5,144.7c-17.8,0-33.4-11.4-38.8-28.4c-3.3-10.4-2.4-21.4,2.6-31c5-9.7,13.5-16.8,23.8-20.1
					c4-1.3,8.2-1.9,12.3-1.9c17.8,0,33.4,11.4,38.8,28.4c6.8,21.4-5.1,44.3-26.5,51.1C204.8,144.1,200.7,144.7,196.5,144.7z"/>
				<path class="st71" d="M196.5,62.8v1c17.6,0,33,11.3,38.3,28c6.7,21.1-5,43.8-26.1,50.5c-4,1.3-8.1,1.9-12.2,1.9
					c-17.6,0-33-11.3-38.3-28c-3.3-10.2-2.3-21.1,2.6-30.7c4.9-9.5,13.3-16.6,23.5-19.8c4-1.3,8.1-1.9,12.2-1.9L196.5,62.8
					 M196.5,62.8c-4.1,0-8.3,0.6-12.5,1.9c-21.7,6.9-33.7,30.1-26.8,51.7c5.6,17.5,21.8,28.7,39.3,28.7c4.1,0,8.3-0.6,12.5-1.9
					c21.7-6.9,33.7-30.1,26.8-51.7C230.2,74,214,62.8,196.5,62.8L196.5,62.8z"/>
			</g>
			<g class="st65">
				
					<linearGradient id="SVGID_19_" gradientUnits="userSpaceOnUse" x1="193.1111" y1="76.3637" x2="214.4535" y2="158.1562" gradientTransform="matrix(0.953 -0.3029 0.3029 0.953 -16.1721 76.2614)">
					<stop  offset="0" style="stop-color:#D6C6F1"/>
					<stop  offset="1" style="stop-color:#ED0113"/>
				</linearGradient>
				<path class="st72" d="M214,68.2c8.7,4.8,15.7,12.7,18.9,22.9c6.7,21-5,43.5-25.9,50.1c-10.2,3.2-20.7,2.1-29.6-2.2
					c9.2,5,20.4,6.5,31.2,3c21-6.7,32.6-29.1,25.9-50.1C231.1,81.1,223.5,72.8,214,68.2z"/>
			</g>
			<g>
				<g>
					
						<linearGradient id="SVGID_20_" gradientUnits="userSpaceOnUse" x1="183.1734" y1="51.7653" x2="197.8995" y2="105.3405" gradientTransform="matrix(0.953 -0.3029 0.3029 0.953 -16.1403 75.6738)">
						<stop  offset="0" style="stop-color:#F1B79D"/>
						<stop  offset="1" style="stop-color:#000000"/>
					</linearGradient>
					<path class="st73" d="M189.3,114c9.7-15.7,23.6-31.9,41-28.6c-8.7-15.8-27.7-23.9-45.5-18.2c-20.3,6.5-31.6,28.2-25.1,48.5
						c1.6,4.9,4,9.3,7.2,13C173.1,128.3,182.2,125.5,189.3,114z"/>
				</g>
			</g>
			<g>
				<linearGradient id="SVGID_21_" gradientUnits="userSpaceOnUse" x1="178.6809" y1="57.1926" x2="206.086" y2="136.6654">
					<stop  offset="0" style="stop-color:#FFFFFF"/>
					<stop  offset="1" style="stop-color:#000000"/>
				</linearGradient>
				<path class="st74" d="M160.4,106.6c0-21.3,17.3-38.6,38.6-38.6c10,0,19.1,3.8,26,10.1c-7.1-7.8-17.3-12.6-28.6-12.6
					c-21.3,0-38.6,17.3-38.6,38.6c0,11.3,4.9,21.5,12.6,28.6C164.3,125.7,160.4,116.6,160.4,106.6z"/>
			</g>
		</g>
		<linearGradient id="SVGID_22_" gradientUnits="userSpaceOnUse" x1="178.4717" y1="104.0001" x2="217.0942" y2="104.0001">
			<stop  offset="0" style="stop-color:#D6C6F1"/>
			<stop  offset="1" style="stop-color:#ED0113"/>
		</linearGradient>
		<polygon class="st75" points="217.1,115.6 205.5,104 217.1,92.4 209.4,84.7 197.8,96.3 186.2,84.7 178.5,92.4 190.1,104 
			178.5,115.6 186.2,123.3 197.8,111.7 209.4,123.3 		"/>
		<polygon class="st58" points="215.8,114.3 204.2,102.7 215.8,91.1 208.1,83.4 196.5,95 184.9,83.4 177.2,91.1 188.8,102.7 
			177.2,114.3 184.9,122 196.5,110.4 208.1,122 		"/>
	</g>
	<g class="st0">
		<path class="st60" d="M408.1,398.4h43.4c10.8,0,19.5-8.7,19.5-19.5v-43.4c0-10.8-8.7-19.5-19.5-19.5h-43.4
			c-10.8,0-19.5,8.7-19.5,19.5v43.4C388.6,389.6,397.3,398.4,408.1,398.4z"/>
		<polygon class="st58" points="441.9,334.8 429.8,346.8 417.8,334.8 407.5,345.1 419.5,357.2 407.5,369.2 417.8,379.5 429.8,367.5 
			441.9,379.5 452.2,369.2 440.1,357.2 452.2,345.1 		"/>
	</g>
	<g class="st0">
		<path class="st62" d="M110.9,328c-8-8-18.6-12.1-29.1-12.1c-10.5,0-21.1,4-29.1,12.1c-16.1,16.1-16.1,42.2,0,58.3
			c8,8,18.6,12.1,29.1,12.1c10.5,0,21.1-4,29.1-12.1C126.9,370.2,126.9,344.1,110.9,328z"/>
		<polygon class="st58" points="75.4,363.1 64.3,352 54.1,362.2 75.4,383.4 75.4,383.4 85.5,373.3 110.3,348.4 100.2,338.3 		"/>
	</g>
	<g class="st0">
		<path class="st60" d="M225.6,328c-8-8-18.6-12.1-29.1-12.1c-10.5,0-21.1,4-29.1,12.1c-16.1,16.1-16.1,42.2,0,58.3
			c8,8,18.6,12.1,29.1,12.1c10.5,0,21.1-4,29.1-12.1C241.7,370.2,241.7,344.1,225.6,328z"/>
		<polygon class="st58" points="208.5,334.8 196.5,346.8 184.5,334.8 174.1,345.1 186.2,357.2 174.1,369.2 184.5,379.5 196.5,367.5 
			208.5,379.5 218.9,369.2 206.8,357.2 218.9,345.1 		"/>
	</g>
</g>
<g id="DESIGNED_BY_FREEPIK" class="st0">
	<g class="st56">
		<g>
			<path class="st76" d="M180.3,476.8v-0.2c-0.2,0.2-0.4,0.5-0.6,0.6c-0.2,0.2-0.4,0.3-0.7,0.4c-0.2,0.1-0.5,0.1-0.8,0.1
				c-0.4,0-0.7-0.1-1.1-0.2c-0.3-0.2-0.6-0.4-0.9-0.7c-0.2-0.3-0.4-0.7-0.5-1.1c-0.1-0.4-0.2-0.9-0.2-1.3c0-1,0.2-1.8,0.7-2.4
				c0.5-0.6,1.1-0.8,2-0.8c0.5,0,0.9,0.1,1.2,0.2c0.3,0.2,0.6,0.4,0.9,0.7v-2.4c0-0.3,0.1-0.6,0.2-0.8c0.1-0.2,0.3-0.3,0.6-0.3
				c0.2,0,0.4,0.1,0.6,0.2c0.1,0.2,0.2,0.4,0.2,0.7v7.1c0,0.3-0.1,0.5-0.2,0.7c-0.1,0.2-0.3,0.2-0.6,0.2c-0.2,0-0.4-0.1-0.5-0.2
				C180.4,477.4,180.3,477.1,180.3,476.8z M177.1,474.5c0,0.4,0.1,0.8,0.2,1.1c0.1,0.3,0.3,0.5,0.6,0.7c0.2,0.2,0.5,0.2,0.8,0.2
				c0.3,0,0.5-0.1,0.8-0.2c0.2-0.1,0.4-0.4,0.6-0.7c0.1-0.3,0.2-0.7,0.2-1.1c0-0.4-0.1-0.8-0.2-1.1c-0.1-0.3-0.3-0.5-0.6-0.7
				c-0.2-0.2-0.5-0.2-0.8-0.2c-0.3,0-0.6,0.1-0.8,0.3c-0.2,0.2-0.4,0.4-0.5,0.7C177.2,473.7,177.1,474,177.1,474.5z"/>
			<path class="st76" d="M187.5,474.9h-3.2c0,0.4,0.1,0.7,0.2,1c0.1,0.3,0.3,0.5,0.6,0.6c0.2,0.1,0.5,0.2,0.8,0.2
				c0.2,0,0.4,0,0.5-0.1c0.2,0,0.3-0.1,0.5-0.2c0.2-0.1,0.3-0.2,0.4-0.3c0.1-0.1,0.3-0.3,0.5-0.5c0.1-0.1,0.2-0.1,0.4-0.1
				c0.2,0,0.3,0,0.4,0.1c0.1,0.1,0.2,0.2,0.2,0.4c0,0.1-0.1,0.3-0.2,0.5c-0.1,0.2-0.3,0.4-0.5,0.6c-0.2,0.2-0.5,0.3-0.9,0.4
				c-0.3,0.1-0.8,0.2-1.2,0.2c-1,0-1.9-0.3-2.4-0.9c-0.6-0.6-0.9-1.4-0.9-2.4c0-0.5,0.1-0.9,0.2-1.3c0.1-0.4,0.4-0.8,0.6-1.1
				c0.3-0.3,0.6-0.5,1-0.7c0.4-0.2,0.8-0.2,1.3-0.2c0.6,0,1.2,0.1,1.6,0.4c0.5,0.3,0.8,0.6,1,1c0.2,0.4,0.3,0.9,0.3,1.3
				c0,0.4-0.1,0.7-0.4,0.8C188.2,474.8,187.9,474.9,187.5,474.9z M184.3,474h2.9c0-0.6-0.2-1-0.4-1.2c-0.3-0.3-0.6-0.4-1-0.4
				c-0.4,0-0.7,0.1-1,0.4C184.5,473,184.3,473.4,184.3,474z"/>
			<path class="st76" d="M194.8,475.6c0,0.4-0.1,0.8-0.3,1.1c-0.2,0.3-0.5,0.6-1,0.7c-0.4,0.2-0.9,0.2-1.6,0.2
				c-0.6,0-1.1-0.1-1.5-0.3c-0.4-0.2-0.7-0.4-0.9-0.7c-0.2-0.3-0.3-0.5-0.3-0.8c0-0.2,0.1-0.3,0.2-0.5c0.1-0.1,0.3-0.2,0.5-0.2
				c0.2,0,0.3,0,0.4,0.1c0.1,0.1,0.2,0.2,0.3,0.3c0.2,0.3,0.4,0.5,0.6,0.6c0.2,0.1,0.5,0.2,0.9,0.2c0.3,0,0.6-0.1,0.8-0.2
				c0.2-0.1,0.3-0.3,0.3-0.5c0-0.3-0.1-0.5-0.3-0.6c-0.2-0.1-0.6-0.3-1.1-0.4c-0.6-0.1-1-0.3-1.4-0.4c-0.4-0.2-0.6-0.4-0.8-0.6
				c-0.2-0.2-0.3-0.6-0.3-0.9c0-0.3,0.1-0.6,0.3-0.9c0.2-0.3,0.5-0.5,0.9-0.7c0.4-0.2,0.8-0.3,1.4-0.3c0.4,0,0.8,0,1.1,0.1
				c0.3,0.1,0.6,0.2,0.8,0.4c0.2,0.1,0.4,0.3,0.5,0.5c0.1,0.2,0.2,0.4,0.2,0.5c0,0.2-0.1,0.3-0.2,0.5c-0.1,0.1-0.3,0.2-0.5,0.2
				c-0.2,0-0.3,0-0.4-0.1c-0.1-0.1-0.3-0.2-0.4-0.4c-0.1-0.2-0.3-0.3-0.4-0.4c-0.2-0.1-0.4-0.1-0.7-0.1c-0.3,0-0.5,0.1-0.7,0.2
				c-0.2,0.1-0.3,0.3-0.3,0.5c0,0.2,0.1,0.3,0.2,0.4c0.1,0.1,0.3,0.2,0.6,0.3c0.2,0.1,0.6,0.2,1,0.3c0.5,0.1,0.9,0.3,1.2,0.4
				c0.3,0.2,0.6,0.4,0.7,0.6C194.8,475.1,194.8,475.4,194.8,475.6z"/>
			<path class="st76" d="M196.5,470.4c-0.2,0-0.4-0.1-0.6-0.2c-0.2-0.1-0.2-0.3-0.2-0.6c0-0.2,0.1-0.4,0.2-0.6
				c0.2-0.1,0.4-0.2,0.6-0.2c0.2,0,0.4,0.1,0.6,0.2c0.2,0.1,0.2,0.3,0.2,0.6c0,0.3-0.1,0.4-0.2,0.6S196.7,470.4,196.5,470.4z
				 M197.3,472.1v4.7c0,0.3-0.1,0.6-0.2,0.7c-0.2,0.2-0.4,0.2-0.6,0.2c-0.2,0-0.4-0.1-0.6-0.3c-0.1-0.2-0.2-0.4-0.2-0.7v-4.6
				c0-0.3,0.1-0.6,0.2-0.7c0.1-0.2,0.3-0.2,0.6-0.2c0.2,0,0.4,0.1,0.6,0.2C197.2,471.6,197.3,471.8,197.3,472.1z"/>
			<path class="st76" d="M204.4,472.4v4.7c0,0.5-0.1,1-0.2,1.4c-0.1,0.4-0.3,0.7-0.6,1c-0.3,0.3-0.6,0.4-1,0.6
				c-0.4,0.1-0.9,0.2-1.5,0.2c-0.6,0-1.1-0.1-1.5-0.2c-0.4-0.2-0.8-0.4-1-0.6c-0.2-0.2-0.4-0.5-0.4-0.8c0-0.2,0.1-0.4,0.2-0.5
				c0.1-0.1,0.3-0.2,0.5-0.2c0.2,0,0.4,0.1,0.6,0.3c0.1,0.1,0.2,0.2,0.3,0.3c0.1,0.1,0.2,0.2,0.3,0.3c0.1,0.1,0.2,0.1,0.4,0.2
				c0.2,0,0.3,0.1,0.5,0.1c0.4,0,0.7-0.1,1-0.2c0.2-0.1,0.4-0.3,0.5-0.5c0.1-0.2,0.1-0.4,0.2-0.7c0-0.2,0-0.6,0-1.2
				c-0.2,0.3-0.5,0.6-0.9,0.8c-0.3,0.2-0.7,0.3-1.2,0.3c-0.5,0-1-0.1-1.4-0.4c-0.4-0.3-0.7-0.7-0.9-1.2c-0.2-0.5-0.3-1.1-0.3-1.7
				c0-0.5,0.1-0.9,0.2-1.3c0.1-0.4,0.3-0.7,0.6-1c0.2-0.3,0.5-0.5,0.8-0.6c0.3-0.1,0.7-0.2,1.1-0.2c0.5,0,0.9,0.1,1.2,0.3
				c0.3,0.2,0.6,0.5,0.9,0.8v-0.2c0-0.3,0.1-0.5,0.2-0.7c0.1-0.2,0.3-0.2,0.5-0.2c0.3,0,0.5,0.1,0.6,0.3
				C204.3,471.7,204.4,472,204.4,472.4z M199.7,474.4c0,0.7,0.1,1.2,0.4,1.5c0.3,0.3,0.7,0.5,1.1,0.5c0.3,0,0.5-0.1,0.8-0.2
				c0.2-0.1,0.4-0.4,0.6-0.7c0.1-0.3,0.2-0.6,0.2-1.1c0-0.7-0.1-1.2-0.4-1.5c-0.3-0.4-0.7-0.6-1.1-0.6c-0.5,0-0.8,0.2-1.1,0.5
				C199.8,473.3,199.7,473.8,199.7,474.4z"/>
			<path class="st76" d="M207,472.1v0.2c0.3-0.4,0.6-0.7,0.9-0.8c0.3-0.2,0.7-0.3,1.2-0.3c0.4,0,0.8,0.1,1.1,0.3
				c0.3,0.2,0.6,0.4,0.8,0.8c0.1,0.2,0.2,0.4,0.2,0.6c0,0.2,0,0.5,0,0.9v3c0,0.3-0.1,0.6-0.2,0.7c-0.1,0.2-0.3,0.2-0.6,0.2
				c-0.2,0-0.4-0.1-0.6-0.3c-0.2-0.2-0.2-0.4-0.2-0.7v-2.7c0-0.5-0.1-0.9-0.2-1.2c-0.1-0.3-0.4-0.4-0.9-0.4c-0.3,0-0.6,0.1-0.8,0.3
				c-0.2,0.2-0.4,0.4-0.5,0.7c-0.1,0.2-0.1,0.7-0.1,1.4v2c0,0.3-0.1,0.6-0.2,0.7c-0.2,0.2-0.3,0.2-0.6,0.2c-0.2,0-0.4-0.1-0.6-0.3
				c-0.2-0.2-0.2-0.4-0.2-0.7v-4.7c0-0.3,0.1-0.5,0.2-0.7c0.1-0.2,0.3-0.2,0.6-0.2c0.1,0,0.3,0,0.4,0.1c0.1,0.1,0.2,0.2,0.3,0.3
				C206.9,471.7,207,471.9,207,472.1z"/>
			<path class="st76" d="M216.8,474.9h-3.2c0,0.4,0.1,0.7,0.2,1c0.1,0.3,0.3,0.5,0.6,0.6c0.2,0.1,0.5,0.2,0.8,0.2
				c0.2,0,0.4,0,0.5-0.1c0.2,0,0.3-0.1,0.5-0.2c0.1-0.1,0.3-0.2,0.4-0.3c0.1-0.1,0.3-0.3,0.5-0.5c0.1-0.1,0.2-0.1,0.4-0.1
				c0.2,0,0.3,0,0.4,0.1c0.1,0.1,0.2,0.2,0.2,0.4c0,0.1-0.1,0.3-0.2,0.5c-0.1,0.2-0.3,0.4-0.5,0.6c-0.2,0.2-0.5,0.3-0.9,0.4
				c-0.4,0.1-0.8,0.2-1.2,0.2c-1,0-1.9-0.3-2.4-0.9c-0.6-0.6-0.9-1.4-0.9-2.4c0-0.5,0.1-0.9,0.2-1.3c0.1-0.4,0.4-0.8,0.6-1.1
				c0.3-0.3,0.6-0.5,1-0.7c0.4-0.2,0.8-0.2,1.3-0.2c0.6,0,1.2,0.1,1.6,0.4c0.5,0.3,0.8,0.6,1,1c0.2,0.4,0.3,0.9,0.3,1.3
				c0,0.4-0.1,0.7-0.4,0.8C217.6,474.8,217.3,474.9,216.8,474.9z M213.7,474h2.9c0-0.6-0.2-1-0.4-1.2c-0.3-0.3-0.6-0.4-1-0.4
				c-0.4,0-0.7,0.1-1,0.4C213.9,473,213.7,473.4,213.7,474z"/>
			<path class="st76" d="M223.4,476.8v-0.2c-0.2,0.2-0.4,0.5-0.6,0.6c-0.2,0.2-0.4,0.3-0.7,0.4c-0.2,0.1-0.5,0.1-0.8,0.1
				c-0.4,0-0.7-0.1-1.1-0.2c-0.3-0.2-0.6-0.4-0.9-0.7c-0.2-0.3-0.4-0.7-0.5-1.1c-0.1-0.4-0.2-0.9-0.2-1.3c0-1,0.2-1.8,0.7-2.4
				c0.5-0.6,1.1-0.8,2-0.8c0.5,0,0.9,0.1,1.2,0.2c0.3,0.2,0.6,0.4,0.9,0.7v-2.4c0-0.3,0.1-0.6,0.2-0.8c0.1-0.2,0.3-0.3,0.6-0.3
				c0.2,0,0.4,0.1,0.6,0.2c0.1,0.2,0.2,0.4,0.2,0.7v7.1c0,0.3-0.1,0.5-0.2,0.7c-0.1,0.2-0.3,0.2-0.6,0.2c-0.2,0-0.4-0.1-0.5-0.2
				C223.5,477.4,223.4,477.1,223.4,476.8z M220.2,474.5c0,0.4,0.1,0.8,0.2,1.1c0.1,0.3,0.3,0.5,0.6,0.7c0.2,0.2,0.5,0.2,0.8,0.2
				c0.3,0,0.5-0.1,0.8-0.2c0.2-0.1,0.4-0.4,0.6-0.7s0.2-0.7,0.2-1.1c0-0.4-0.1-0.8-0.2-1.1c-0.1-0.3-0.3-0.5-0.6-0.7
				c-0.2-0.2-0.5-0.2-0.8-0.2c-0.3,0-0.6,0.1-0.8,0.3c-0.2,0.2-0.4,0.4-0.5,0.7C220.3,473.7,220.2,474,220.2,474.5z"/>
			<path class="st76" d="M230.1,469.7v2.5c0.3-0.3,0.6-0.6,0.9-0.7c0.3-0.2,0.7-0.3,1.2-0.3c0.5,0,1,0.1,1.4,0.4
				c0.4,0.3,0.7,0.6,0.9,1.1c0.2,0.5,0.3,1.1,0.3,1.7c0,0.5-0.1,0.9-0.2,1.4c-0.1,0.4-0.3,0.8-0.5,1.1c-0.2,0.3-0.5,0.5-0.9,0.7
				c-0.3,0.2-0.7,0.2-1.1,0.2c-0.2,0-0.5,0-0.7-0.1c-0.2-0.1-0.4-0.1-0.6-0.2c-0.2-0.1-0.3-0.2-0.4-0.3c-0.1-0.1-0.3-0.3-0.4-0.5
				v0.2c0,0.3-0.1,0.5-0.2,0.7c-0.1,0.2-0.3,0.2-0.6,0.2c-0.2,0-0.4-0.1-0.5-0.2c-0.1-0.2-0.2-0.4-0.2-0.7v-7.1
				c0-0.3,0.1-0.6,0.2-0.7c0.1-0.2,0.3-0.3,0.6-0.3c0.3,0,0.4,0.1,0.6,0.2C230,469.2,230.1,469.4,230.1,469.7z M230.1,474.5
				c0,0.6,0.1,1.1,0.4,1.5c0.3,0.3,0.7,0.5,1.2,0.5c0.4,0,0.8-0.2,1.1-0.5c0.3-0.4,0.4-0.9,0.4-1.5c0-0.4-0.1-0.8-0.2-1.1
				c-0.1-0.3-0.3-0.5-0.5-0.7c-0.2-0.2-0.5-0.3-0.8-0.3c-0.3,0-0.6,0.1-0.8,0.3c-0.2,0.2-0.4,0.4-0.6,0.7
				C230.2,473.7,230.1,474.1,230.1,474.5z"/>
			<path class="st76" d="M237,478l0.1-0.4l-2-5c-0.1-0.3-0.2-0.5-0.2-0.6c0-0.1,0-0.3,0.1-0.4c0.1-0.1,0.2-0.2,0.3-0.3
				c0.1-0.1,0.3-0.1,0.4-0.1c0.2,0,0.4,0.1,0.5,0.2c0.1,0.1,0.2,0.4,0.3,0.6l1.4,4l1.3-3.7c0.1-0.3,0.2-0.5,0.3-0.7
				c0.1-0.2,0.2-0.3,0.3-0.3c0.1-0.1,0.2-0.1,0.4-0.1c0.1,0,0.2,0,0.4,0.1c0.1,0.1,0.2,0.2,0.3,0.3c0.1,0.1,0.1,0.2,0.1,0.4
				c0,0.1,0,0.2-0.1,0.3c0,0.1-0.1,0.3-0.1,0.4l-2.1,5.5c-0.2,0.5-0.4,0.9-0.5,1.1c-0.2,0.3-0.4,0.5-0.7,0.6
				c-0.3,0.1-0.7,0.2-1.2,0.2c-0.5,0-0.8-0.1-1.1-0.2c-0.2-0.1-0.4-0.3-0.4-0.6c0-0.2,0.1-0.3,0.2-0.4c0.1-0.1,0.3-0.2,0.5-0.2
				c0.1,0,0.2,0,0.3,0c0.1,0,0.2,0,0.3,0c0.2,0,0.3,0,0.4-0.1c0.1-0.1,0.2-0.2,0.3-0.3C236.8,478.4,236.9,478.2,237,478z"/>
		</g>
		<g>
			<path class="st76" d="M260.4,471.3h0.4v-0.5c0-0.5,0.1-0.9,0.2-1.2c0.1-0.3,0.3-0.5,0.7-0.7c0.3-0.1,0.7-0.2,1.3-0.2
				c0.9,0,1.4,0.2,1.4,0.7c0,0.1,0,0.3-0.2,0.4c-0.1,0.1-0.2,0.2-0.3,0.2c-0.1,0-0.2,0-0.3,0c-0.1,0-0.3,0-0.4,0
				c-0.3,0-0.5,0.1-0.6,0.3c-0.1,0.2-0.1,0.4-0.1,0.7v0.4h0.4c0.6,0,0.9,0.2,0.9,0.6c0,0.3-0.1,0.4-0.2,0.5
				c-0.2,0.1-0.4,0.1-0.7,0.1h-0.4v4.3c0,0.3-0.1,0.6-0.2,0.7c-0.2,0.2-0.3,0.3-0.6,0.3c-0.2,0-0.4-0.1-0.6-0.3
				c-0.2-0.2-0.2-0.4-0.2-0.7v-4.3h-0.4c-0.2,0-0.4-0.1-0.6-0.2c-0.1-0.1-0.2-0.2-0.2-0.4C259.6,471.5,259.9,471.3,260.4,471.3"/>
			<path class="st76" d="M265.7,475.4v1.4c0,0.3-0.1,0.6-0.2,0.7c-0.2,0.2-0.3,0.2-0.6,0.2c-0.2,0-0.4-0.1-0.6-0.3
				c-0.1-0.2-0.2-0.4-0.2-0.7v-4.5c0-0.7,0.3-1.1,0.8-1.1c0.3,0,0.5,0.1,0.6,0.3c0.1,0.2,0.2,0.4,0.2,0.8c0.2-0.3,0.4-0.6,0.6-0.8
				c0.2-0.2,0.5-0.3,0.8-0.3c0.3,0,0.7,0.1,1,0.3c0.3,0.2,0.5,0.4,0.5,0.7c0,0.2-0.1,0.4-0.2,0.5c-0.1,0.1-0.3,0.2-0.4,0.2
				c-0.1,0-0.2,0-0.4-0.1c-0.2-0.1-0.4-0.1-0.6-0.1c-0.2,0-0.4,0.1-0.6,0.2c-0.2,0.1-0.3,0.3-0.4,0.6c-0.1,0.2-0.1,0.5-0.2,0.9
				C265.8,474.5,265.7,474.9,265.7,475.4"/>
			<path class="st76" d="M273.2,474.9H270c0,0.4,0.1,0.7,0.2,1c0.1,0.3,0.3,0.5,0.6,0.6c0.2,0.1,0.5,0.2,0.8,0.2
				c0.2,0,0.4,0,0.5-0.1c0.2,0,0.3-0.1,0.5-0.2c0.2-0.1,0.3-0.2,0.4-0.3c0.1-0.1,0.3-0.3,0.5-0.4c0.1-0.1,0.2-0.1,0.4-0.1
				c0.2,0,0.3,0,0.4,0.1c0.1,0.1,0.2,0.2,0.2,0.4c0,0.1-0.1,0.3-0.2,0.5c-0.1,0.2-0.3,0.4-0.5,0.6c-0.2,0.2-0.5,0.3-0.9,0.4
				c-0.3,0.1-0.8,0.2-1.2,0.2c-1,0-1.9-0.3-2.4-0.9c-0.6-0.6-0.9-1.4-0.9-2.4c0-0.5,0.1-0.9,0.2-1.3c0.1-0.4,0.3-0.8,0.6-1.1
				c0.3-0.3,0.6-0.5,1-0.7c0.4-0.2,0.8-0.2,1.3-0.2c0.6,0,1.2,0.1,1.6,0.4c0.5,0.3,0.8,0.6,1,1c0.2,0.4,0.3,0.9,0.3,1.3
				c0,0.4-0.1,0.7-0.4,0.8C273.9,474.8,273.6,474.9,273.2,474.9 M270,473.9h2.9c0-0.6-0.2-1-0.4-1.2c-0.3-0.3-0.6-0.4-1-0.4
				c-0.4,0-0.7,0.1-1,0.4C270.2,473,270.1,473.4,270,473.9"/>
			<path class="st76" d="M279.9,474.9h-3.2c0,0.4,0.1,0.7,0.2,1c0.1,0.3,0.3,0.5,0.6,0.6c0.2,0.1,0.5,0.2,0.8,0.2
				c0.2,0,0.4,0,0.5-0.1c0.2,0,0.3-0.1,0.5-0.2c0.2-0.1,0.3-0.2,0.4-0.3c0.1-0.1,0.3-0.3,0.5-0.4c0.1-0.1,0.2-0.1,0.4-0.1
				c0.2,0,0.3,0,0.4,0.1c0.1,0.1,0.2,0.2,0.2,0.4c0,0.1-0.1,0.3-0.2,0.5c-0.1,0.2-0.3,0.4-0.5,0.6c-0.2,0.2-0.5,0.3-0.9,0.4
				c-0.3,0.1-0.8,0.2-1.2,0.2c-1,0-1.8-0.3-2.4-0.9c-0.6-0.6-0.9-1.4-0.9-2.4c0-0.5,0.1-0.9,0.2-1.3c0.1-0.4,0.3-0.8,0.6-1.1
				c0.3-0.3,0.6-0.5,1-0.7c0.4-0.2,0.8-0.2,1.3-0.2c0.6,0,1.2,0.1,1.6,0.4c0.5,0.3,0.8,0.6,1,1c0.2,0.4,0.3,0.9,0.3,1.3
				c0,0.4-0.1,0.7-0.4,0.8C280.7,474.8,280.4,474.9,279.9,474.9 M276.8,473.9h2.9c0-0.6-0.2-1-0.4-1.2c-0.3-0.3-0.6-0.4-1-0.4
				c-0.4,0-0.7,0.1-1,0.4C277,473,276.8,473.4,276.8,473.9"/>
			<path class="st76" d="M283.5,472.1v0.2c0.3-0.4,0.6-0.7,1-0.8c0.3-0.2,0.7-0.3,1.1-0.3c0.5,0,1,0.1,1.4,0.4
				c0.4,0.3,0.7,0.6,1,1.1c0.2,0.5,0.4,1.1,0.4,1.8c0,0.5-0.1,1-0.2,1.4c-0.1,0.4-0.3,0.8-0.6,1c-0.2,0.3-0.5,0.5-0.9,0.7
				c-0.3,0.2-0.7,0.2-1.1,0.2c-0.5,0-0.9-0.1-1.2-0.3c-0.3-0.2-0.6-0.5-0.9-0.8v2.4c0,0.7-0.3,1.1-0.8,1.1c-0.3,0-0.5-0.1-0.6-0.3
				c-0.1-0.2-0.1-0.5-0.1-0.8v-7c0-0.3,0.1-0.5,0.2-0.7c0.1-0.1,0.3-0.2,0.6-0.2c0.2,0,0.4,0.1,0.6,0.2
				C283.4,471.6,283.5,471.8,283.5,472.1 M286.7,474.4c0-0.4-0.1-0.8-0.2-1.1c-0.1-0.3-0.3-0.5-0.5-0.7c-0.2-0.2-0.5-0.2-0.8-0.2
				c-0.4,0-0.8,0.2-1.1,0.5c-0.3,0.4-0.5,0.9-0.5,1.6c0,0.6,0.2,1.1,0.5,1.5c0.3,0.4,0.7,0.5,1.1,0.5c0.3,0,0.5-0.1,0.7-0.2
				c0.2-0.2,0.4-0.4,0.6-0.7C286.6,475.3,286.7,474.9,286.7,474.4"/>
			<path class="st76" d="M289.9,470.4c-0.2,0-0.4-0.1-0.6-0.2c-0.2-0.1-0.2-0.3-0.2-0.6c0-0.2,0.1-0.4,0.2-0.6
				c0.2-0.1,0.4-0.2,0.6-0.2c0.2,0,0.4,0.1,0.6,0.2c0.2,0.1,0.2,0.3,0.2,0.6c0,0.2-0.1,0.4-0.2,0.6
				C290.3,470.3,290.1,470.4,289.9,470.4 M290.7,472.1v4.7c0,0.3-0.1,0.6-0.2,0.7c-0.2,0.2-0.4,0.3-0.6,0.3c-0.2,0-0.4-0.1-0.6-0.3
				c-0.1-0.2-0.2-0.4-0.2-0.7v-4.6c0-0.3,0.1-0.6,0.2-0.7c0.2-0.2,0.3-0.2,0.6-0.2c0.2,0,0.4,0.1,0.6,0.2
				C290.7,471.6,290.7,471.8,290.7,472.1"/>
			<path class="st76" d="M296,477l-1.4-2.4l-0.9,0.8v1.3c0,0.3-0.1,0.6-0.2,0.7c-0.2,0.2-0.4,0.3-0.6,0.3c-0.2,0-0.4-0.1-0.6-0.3
				c-0.1-0.2-0.2-0.4-0.2-0.7v-6.9c0-0.4,0.1-0.6,0.2-0.8c0.1-0.2,0.3-0.3,0.6-0.3c0.2,0,0.4,0.1,0.6,0.3c0.1,0.2,0.2,0.4,0.2,0.8
				v3.9l1.8-1.9c0.2-0.2,0.4-0.4,0.5-0.5c0.1-0.1,0.3-0.1,0.4-0.1c0.2,0,0.4,0.1,0.5,0.2c0.1,0.1,0.2,0.3,0.2,0.5
				c0,0.2-0.2,0.6-0.7,1l-0.9,0.8l1.7,2.6c0.1,0.2,0.2,0.3,0.3,0.4c0.1,0.1,0.1,0.2,0.1,0.3c0,0.3-0.1,0.5-0.2,0.6
				c-0.1,0.1-0.3,0.2-0.6,0.2c-0.2,0-0.4,0-0.5-0.2C296.3,477.5,296.1,477.3,296,477"/>
			<path class="st76" d="M299.5,477.8c-0.2,0-0.5-0.1-0.6-0.2c-0.2-0.2-0.3-0.4-0.3-0.7c0-0.2,0.1-0.4,0.3-0.6
				c0.2-0.2,0.4-0.3,0.6-0.3c0.2,0,0.5,0.1,0.6,0.3c0.2,0.2,0.3,0.4,0.3,0.6c0,0.3-0.1,0.5-0.3,0.7
				C299.9,477.7,299.7,477.8,299.5,477.8"/>
			<path class="st76" d="M307.5,475.8c0,0.2-0.1,0.4-0.2,0.6c-0.1,0.2-0.3,0.4-0.6,0.7c-0.2,0.2-0.6,0.4-0.9,0.5
				c-0.4,0.1-0.8,0.2-1.3,0.2c-1,0-1.8-0.3-2.3-0.9c-0.6-0.6-0.8-1.4-0.8-2.3c0-0.7,0.1-1.3,0.4-1.8c0.3-0.5,0.6-0.9,1.1-1.2
				c0.5-0.3,1.1-0.4,1.7-0.4c0.4,0,0.8,0.1,1.2,0.2c0.4,0.1,0.6,0.3,0.9,0.5c0.2,0.2,0.4,0.4,0.6,0.6c0.1,0.2,0.2,0.4,0.2,0.6
				c0,0.2-0.1,0.4-0.2,0.5c-0.1,0.1-0.3,0.2-0.5,0.2c-0.1,0-0.2,0-0.3-0.1c-0.1-0.1-0.2-0.2-0.3-0.3c-0.2-0.3-0.4-0.5-0.6-0.7
				c-0.2-0.2-0.5-0.2-0.8-0.2c-0.5,0-0.9,0.2-1.2,0.6c-0.3,0.4-0.4,0.9-0.4,1.5c0,0.3,0,0.6,0.1,0.8c0.1,0.3,0.2,0.5,0.3,0.7
				c0.1,0.2,0.3,0.3,0.5,0.4c0.2,0.1,0.4,0.1,0.7,0.1c0.3,0,0.6-0.1,0.8-0.2c0.2-0.2,0.4-0.4,0.6-0.7c0.1-0.2,0.2-0.3,0.3-0.4
				c0.1-0.1,0.3-0.2,0.4-0.2c0.2,0,0.4,0.1,0.5,0.2C307.5,475.4,307.5,475.6,307.5,475.8"/>
			<path class="st76" d="M314.5,474.5c0,0.5-0.1,0.9-0.2,1.3c-0.2,0.4-0.4,0.8-0.7,1c-0.3,0.3-0.6,0.5-1,0.7
				c-0.4,0.2-0.8,0.2-1.3,0.2c-0.5,0-0.9-0.1-1.3-0.2c-0.4-0.2-0.7-0.4-1-0.7c-0.3-0.3-0.5-0.6-0.7-1c-0.1-0.4-0.2-0.8-0.2-1.3
				c0-0.5,0.1-0.9,0.2-1.3c0.2-0.4,0.4-0.8,0.6-1c0.3-0.3,0.6-0.5,1-0.7c0.4-0.2,0.8-0.2,1.3-0.2c0.5,0,0.9,0.1,1.3,0.2
				c0.4,0.2,0.7,0.4,1,0.7c0.3,0.3,0.5,0.6,0.6,1C314.5,473.5,314.5,474,314.5,474.5 M312.9,474.5c0-0.7-0.1-1.2-0.4-1.5
				c-0.3-0.4-0.7-0.6-1.2-0.6c-0.3,0-0.6,0.1-0.8,0.2c-0.2,0.2-0.4,0.4-0.6,0.7c-0.1,0.3-0.2,0.7-0.2,1.1c0,0.4,0.1,0.8,0.2,1.1
				c0.1,0.3,0.3,0.6,0.6,0.7c0.2,0.2,0.5,0.3,0.8,0.3c0.5,0,0.9-0.2,1.2-0.6C312.8,475.6,312.9,475.1,312.9,474.5"/>
			<path class="st76" d="M320.7,474.6v2.2c0,0.3-0.1,0.6-0.2,0.8c-0.2,0.2-0.4,0.3-0.6,0.3c-0.2,0-0.4-0.1-0.6-0.3
				c-0.2-0.2-0.2-0.4-0.2-0.8v-2.6c0-0.4,0-0.7,0-1c0-0.2-0.1-0.4-0.2-0.6c-0.1-0.1-0.3-0.2-0.6-0.2c-0.5,0-0.9,0.2-1,0.6
				c-0.2,0.4-0.3,0.9-0.3,1.6v2.2c0,0.3-0.1,0.6-0.2,0.8c-0.2,0.2-0.4,0.3-0.6,0.3c-0.2,0-0.4-0.1-0.6-0.3c-0.2-0.2-0.2-0.4-0.2-0.8
				v-4.6c0-0.3,0.1-0.5,0.2-0.7c0.1-0.2,0.3-0.2,0.6-0.2c0.2,0,0.4,0.1,0.6,0.2c0.1,0.1,0.2,0.4,0.2,0.6v0.2
				c0.3-0.3,0.6-0.6,0.9-0.7c0.3-0.2,0.7-0.2,1.1-0.2c0.4,0,0.8,0.1,1,0.2c0.3,0.2,0.5,0.4,0.7,0.7c0.3-0.3,0.6-0.6,0.9-0.7
				c0.3-0.2,0.7-0.2,1-0.2c0.4,0,0.8,0.1,1.1,0.3c0.3,0.2,0.6,0.4,0.7,0.7c0.1,0.3,0.2,0.8,0.2,1.4v3.2c0,0.3-0.1,0.6-0.2,0.8
				c-0.2,0.2-0.4,0.3-0.6,0.3c-0.2,0-0.4-0.1-0.6-0.3c-0.2-0.2-0.2-0.4-0.2-0.8V474c0-0.3,0-0.6,0-0.8c0-0.2-0.1-0.4-0.2-0.5
				c-0.1-0.1-0.3-0.2-0.6-0.2c-0.2,0-0.4,0.1-0.6,0.2c-0.2,0.1-0.3,0.3-0.5,0.5C320.8,473.4,320.7,473.9,320.7,474.6"/>
		</g>
		<g>
			<path class="st76" d="M245.3,474.1C245.3,474.1,245.3,474.1,245.3,474.1C245.3,474.1,245.3,474.1,245.3,474.1z"/>
			<path class="st76" d="M245.4,474.6C245.4,474.6,245.4,474.6,245.4,474.6c0-0.1-0.1-0.3-0.1-0.4
				C245.3,474.3,245.3,474.5,245.4,474.6z"/>
			<path class="st76" d="M245.9,476.1C245.9,476.1,245.9,476.1,245.9,476.1C245.9,476.1,245.9,476.1,245.9,476.1z"/>
			<path class="st76" d="M245.8,476C245.8,476,245.8,475.9,245.8,476C245.8,475.9,245.8,476,245.8,476z"/>
			<path class="st76" d="M245.5,475.2c0.1,0.3,0.2,0.5,0.3,0.7C245.7,475.7,245.6,475.4,245.5,475.2
				C245.5,475.2,245.5,475.2,245.5,475.2z"/>
			<path class="st76" d="M251.5,467.9c0.3,0,0.5,0,0.8,0.1l0.1-0.5c0,0-0.7-0.2-1.7-0.1l-0.1-0.3c0.3-0.1,0.5-0.3,0.5-0.6
				c0-0.4-0.3-0.7-0.7-0.7c-0.4,0-0.7,0.3-0.7,0.7c0,0.3,0.2,0.6,0.5,0.6l0.1,0.3c-1,0.1-1.8,0.5-1.8,0.5l0.1,0.4
				c0.6-0.2,1.2-0.3,1.6-0.4C250.9,467.9,251.3,467.9,251.5,467.9z"/>
			<path class="st76" d="M245.9,470.3L245.9,470.3C245.9,470.2,245.9,470.2,245.9,470.3l-0.1-0.2l-0.3-0.2c0,0-0.5,0.5-0.9,1.3
				c0,0,0-0.1-0.1-0.1c-0.1-0.1-0.3-0.2-0.5-0.2c0,0,0,0,0,0c-0.1,0-0.2,0-0.3-0.1c0.1-0.1,0.1-0.2,0.1-0.3c0-0.2-0.2-0.4-0.4-0.4
				c-0.2,0-0.4,0.2-0.4,0.4c0,0.2,0.2,0.4,0.4,0.4c0,0,0.1,0,0.1,0c0.1,0.1,0.3,0.2,0.5,0.2c0.1,0,0.2,0,0.3,0.1
				c0.1,0.1,0.1,0.2,0.1,0.3c0,0,0,0,0,0c-0.3,0.7-0.2,1.7-0.2,1.7l0.7,0c0-0.3,0.1-0.9,0.2-1.4
				C245.4,470.9,245.9,470.3,245.9,470.3z"/>
			<path class="st76" d="M257.3,468.4c-0.2,0-0.4,0.2-0.4,0.4c0,0,0,0.1,0,0.1c-0.1,0.1-0.2,0.3-0.2,0.5c0,0.1,0,0.2-0.1,0.3
				c-0.1,0-0.1,0.1-0.2,0.1c-0.5-0.7-1.1-1.1-1.1-1.1l-0.5,0.5c0.4,0.3,0.7,0.7,1.1,1.2c0.2,0.4,0.5,0.8,0.7,1.3l0.6-0.3
				c0,0-0.3-0.7-0.7-1.4c0.1,0,0.1-0.1,0.2-0.1c0.1-0.1,0.2-0.3,0.2-0.5c0-0.1,0-0.2,0.1-0.3c0.1,0.1,0.2,0.1,0.3,0.1
				c0.2,0,0.4-0.2,0.4-0.4C257.7,468.6,257.5,468.4,257.3,468.4z"/>
			<path class="st76" d="M255.6,474.2c-0.9,0.4-2.3,1-4.2,1.3c-0.7,0.1-1.5,0.1-2.1,0.1c-0.9,0-1.6-0.1-2.2-0.1
				c-0.7-0.1-1.2-0.2-1.5-0.3c0.1,0.2,0.2,0.5,0.3,0.7c0,0,0,0,0,0c0,0,0,0.1,0,0.1c0,0,0,0.1,0,0.1c0,0,0,0,0,0
				c0.2,0.4,0.4,0.7,0.7,1c0.9,1,1.8,1.1,1.8,1.1l0,0l0,0c0,0,0.8,0.3,2.1,0.3c1.2,0,2.4-0.2,3.5-0.7c0.8-0.4,1.6-1.1,2-1.7
				c0.3-0.5,0.5-0.9,0.7-1.4c0.1-0.3,0.1-0.7,0.1-1.1C256.6,473.7,256.2,473.9,255.6,474.2z"/>
			<path class="st76" d="M246.2,470.5c0,0-0.4,0.6-0.7,1.4c-0.2,0.6-0.2,1.5-0.2,1.5v0c0,0.2,0,0.4,0,0.6c0,0,0,0,0,0
				c0,0,0,0.1,0,0.1c0,0.1,0,0.3,0.1,0.4c0.4,0.1,3,0.7,6,0.3c1.8-0.3,3.2-0.8,4.1-1.2c0.7-0.3,1.2-0.6,1.3-0.8
				c-0.2-0.6-0.7-1.7-1.1-2.3c-1.3-1.8-2.6-2.2-3.3-2.4c-0.3,0-0.5-0.1-0.8-0.1c-0.3,0-0.6,0-1.1,0.1c-0.5,0-1,0.2-1.6,0.4
				c-0.8,0.3-1.6,0.7-2.2,1.3l0,0C246.6,470,246.4,470.2,246.2,470.5z M253.8,470.1c0.6,0,1.1,0.5,1.1,1.1c0,0.6-0.5,1.1-1.1,1.1
				c-0.6,0-1.1-0.5-1.1-1.1C252.7,470.6,253.2,470.1,253.8,470.1z M248.7,470c1,0,1.8,0.8,1.8,1.8c0,1-0.8,1.8-1.8,1.8
				c-1,0-1.8-0.8-1.8-1.8C246.9,470.8,247.7,470,248.7,470z"/>
		</g>
	</g>
</g>
</svg>
