<?xml version="1.0" encoding="utf-8"?>
<!-- Generator: Adobe Illustrator 19.1.0, SVG Export Plug-In . SVG Version: 6.00 Build 0)  -->
<svg version="1.1" xmlns="http://www.w3.org/2000/svg" xmlns:xlink="http://www.w3.org/1999/xlink" x="0px" y="0px"
	 viewBox="0 0 82.4 82.4" style="enable-background:new 0 0 82.4 82.4;" xml:space="preserve">
<style type="text/css">
	.st0{display:none;}
	.st1{display:inline;fill:url(#SVGID_1_);}
	.st2{display:inline;opacity:0.2;fill:url(#SVGID_2_);}
	.st3{display:inline;opacity:0.2;fill:url(#SVGID_3_);}
	.st4{display:inline;opacity:0.2;fill:url(#SVGID_4_);}
	.st5{display:inline;opacity:0.2;fill:url(#SVGID_5_);}
	.st6{display:inline;opacity:0.2;fill:url(#SVGID_6_);}
	.st7{display:inline;opacity:0.2;fill:url(#SVGID_7_);}
	.st8{display:inline;opacity:0.2;fill:url(#SVGID_8_);}
	.st9{display:inline;opacity:0.2;fill:url(#SVGID_9_);}
	.st10{display:inline;opacity:0.2;fill:url(#SVGID_10_);}
	.st11{display:inline;opacity:0.2;fill:url(#SVGID_11_);}
	.st12{display:inline;opacity:0.2;fill:url(#SVGID_12_);}
	.st13{display:inline;opacity:0.2;fill:url(#SVGID_13_);}
	.st14{display:inline;}
	.st15{opacity:0.2;clip-path:url(#XMLID_6_);}
	.st16{opacity:0;}
	.st17{opacity:2.439000e-002;}
	.st18{opacity:4.878000e-002;}
	.st19{opacity:7.317100e-002;}
	.st20{opacity:9.756100e-002;}
	.st21{opacity:0.122;}
	.st22{opacity:0.1463;}
	.st23{opacity:0.1707;}
	.st24{opacity:0.1951;}
	.st25{opacity:0.2195;}
	.st26{opacity:0.2439;}
	.st27{opacity:0.2683;}
	.st28{opacity:0.2927;}
	.st29{opacity:0.3171;}
	.st30{opacity:0.3415;}
	.st31{opacity:0.3659;}
	.st32{opacity:0.3902;}
	.st33{opacity:0.4146;}
	.st34{opacity:0.439;}
	.st35{opacity:0.4634;}
	.st36{opacity:0.4878;}
	.st37{opacity:0.5122;}
	.st38{opacity:0.5366;}
	.st39{opacity:0.561;}
	.st40{opacity:0.5854;}
	.st41{opacity:0.6098;}
	.st42{opacity:0.6341;}
	.st43{opacity:0.6585;}
	.st44{opacity:0.6829;}
	.st45{opacity:0.7073;}
	.st46{opacity:0.7317;}
	.st47{opacity:0.7561;}
	.st48{opacity:0.7805;}
	.st49{opacity:0.8049;}
	.st50{opacity:0.8293;}
	.st51{opacity:0.8537;}
	.st52{opacity:0.878;}
	.st53{opacity:0.9024;}
	.st54{opacity:0.9268;}
	.st55{opacity:0.9512;}
	.st56{opacity:0.9756;}
	.st57{display:inline;fill:#FFFFFF;}
	.st58{opacity:0.2;clip-path:url(#XMLID_7_);}
	.st59{opacity:2.439024e-002;}
	.st60{opacity:4.878049e-002;}
	.st61{opacity:7.317073e-002;}
	.st62{opacity:9.756097e-002;}
	.st63{fill:#FFFFFF;}
	.st64{opacity:0.2;clip-path:url(#XMLID_8_);}
	.st65{display:inline;fill:#EF1401;}
	.st66{opacity:0.2;clip-path:url(#XMLID_9_);}
	.st67{display:inline;fill:#1EB40F;}
	.st68{fill:url(#SVGID_14_);}
	.st69{fill:#5C960B;}
	.st70{opacity:0.8;}
	.st71{fill:url(#SVGID_15_);}
	.st72{fill:url(#SVGID_16_);}
	.st73{fill:url(#SVGID_17_);}
	.st74{display:inline;opacity:0.8;fill:url(#SVGID_18_);}
	.st75{fill:url(#SVGID_19_);}
	.st76{fill:#D90439;}
	.st77{fill:url(#SVGID_20_);}
	.st78{fill:url(#SVGID_21_);}
	.st79{fill:url(#SVGID_22_);}
	.st80{display:inline;opacity:0.8;fill:url(#SVGID_23_);}
	.st81{fill:#C7C7C7;}
</style>
<g id="BACKGROUND" class="st0">
	<radialGradient id="SVGID_1_" cx="-114.983" cy="616.986" r="650.0457" gradientUnits="userSpaceOnUse">
		<stop  offset="0" style="stop-color:#FFFFFF"/>
		<stop  offset="0.3169" style="stop-color:#FFFFFF"/>
		<stop  offset="1" style="stop-color:#F5F5F5"/>
	</radialGradient>
	<rect y="0" class="st1" width="500" height="500"/>
</g>
<g id="OBJECTS">
	<g class="st0">
		
			<radialGradient id="SVGID_2_" cx="77.8854" cy="408.2339" r="27.7659" gradientTransform="matrix(1.5691 0 0 0.5 -40.4935 211.1169)" gradientUnits="userSpaceOnUse">
			<stop  offset="0" style="stop-color:#747474"/>
			<stop  offset="6.604260e-002" style="stop-color:#8A8A8A"/>
			<stop  offset="0.1904" style="stop-color:#AEAEAE"/>
			<stop  offset="0.3219" style="stop-color:#CBCBCB"/>
			<stop  offset="0.4606" style="stop-color:#E2E2E2"/>
			<stop  offset="0.61" style="stop-color:#F2F2F2"/>
			<stop  offset="0.7773" style="stop-color:#FCFCFC"/>
			<stop  offset="1" style="stop-color:#FFFFFF"/>
		</radialGradient>
		<ellipse class="st2" cx="81.7" cy="415.2" rx="43.6" ry="13.9"/>
		
			<radialGradient id="SVGID_3_" cx="151.8555" cy="408.2339" r="27.7659" gradientTransform="matrix(1.5691 0 0 0.5 -40.4935 211.1169)" gradientUnits="userSpaceOnUse">
			<stop  offset="0" style="stop-color:#747474"/>
			<stop  offset="6.604260e-002" style="stop-color:#8A8A8A"/>
			<stop  offset="0.1904" style="stop-color:#AEAEAE"/>
			<stop  offset="0.3219" style="stop-color:#CBCBCB"/>
			<stop  offset="0.4606" style="stop-color:#E2E2E2"/>
			<stop  offset="0.61" style="stop-color:#F2F2F2"/>
			<stop  offset="0.7773" style="stop-color:#FCFCFC"/>
			<stop  offset="1" style="stop-color:#FFFFFF"/>
		</radialGradient>
		<ellipse class="st3" cx="197.8" cy="415.2" rx="43.6" ry="13.9"/>
		
			<radialGradient id="SVGID_4_" cx="225.8255" cy="408.2339" r="27.7659" gradientTransform="matrix(1.5691 0 0 0.5 -40.4935 211.1169)" gradientUnits="userSpaceOnUse">
			<stop  offset="0" style="stop-color:#747474"/>
			<stop  offset="6.604260e-002" style="stop-color:#8A8A8A"/>
			<stop  offset="0.1904" style="stop-color:#AEAEAE"/>
			<stop  offset="0.3219" style="stop-color:#CBCBCB"/>
			<stop  offset="0.4606" style="stop-color:#E2E2E2"/>
			<stop  offset="0.61" style="stop-color:#F2F2F2"/>
			<stop  offset="0.7773" style="stop-color:#FCFCFC"/>
			<stop  offset="1" style="stop-color:#FFFFFF"/>
		</radialGradient>
		<ellipse class="st4" cx="313.8" cy="415.2" rx="43.6" ry="13.9"/>
		
			<radialGradient id="SVGID_5_" cx="299.7956" cy="408.2339" r="27.7659" gradientTransform="matrix(1.5691 0 0 0.5 -40.4935 211.1169)" gradientUnits="userSpaceOnUse">
			<stop  offset="0" style="stop-color:#747474"/>
			<stop  offset="6.604260e-002" style="stop-color:#8A8A8A"/>
			<stop  offset="0.1904" style="stop-color:#AEAEAE"/>
			<stop  offset="0.3219" style="stop-color:#CBCBCB"/>
			<stop  offset="0.4606" style="stop-color:#E2E2E2"/>
			<stop  offset="0.61" style="stop-color:#F2F2F2"/>
			<stop  offset="0.7773" style="stop-color:#FCFCFC"/>
			<stop  offset="1" style="stop-color:#FFFFFF"/>
		</radialGradient>
		<ellipse class="st5" cx="429.9" cy="415.2" rx="43.6" ry="13.9"/>
		
			<radialGradient id="SVGID_6_" cx="77.8854" cy="149.106" r="27.7659" gradientTransform="matrix(1.5691 0 0 0.5 -40.4935 211.1169)" gradientUnits="userSpaceOnUse">
			<stop  offset="0" style="stop-color:#747474"/>
			<stop  offset="6.604260e-002" style="stop-color:#8A8A8A"/>
			<stop  offset="0.1904" style="stop-color:#AEAEAE"/>
			<stop  offset="0.3219" style="stop-color:#CBCBCB"/>
			<stop  offset="0.4606" style="stop-color:#E2E2E2"/>
			<stop  offset="0.61" style="stop-color:#F2F2F2"/>
			<stop  offset="0.7773" style="stop-color:#FCFCFC"/>
			<stop  offset="1" style="stop-color:#FFFFFF"/>
		</radialGradient>
		<ellipse class="st6" cx="81.7" cy="285.7" rx="43.6" ry="13.9"/>
		
			<radialGradient id="SVGID_7_" cx="151.8555" cy="149.106" r="27.7659" gradientTransform="matrix(1.5691 0 0 0.5 -40.4935 211.1169)" gradientUnits="userSpaceOnUse">
			<stop  offset="0" style="stop-color:#747474"/>
			<stop  offset="6.604260e-002" style="stop-color:#8A8A8A"/>
			<stop  offset="0.1904" style="stop-color:#AEAEAE"/>
			<stop  offset="0.3219" style="stop-color:#CBCBCB"/>
			<stop  offset="0.4606" style="stop-color:#E2E2E2"/>
			<stop  offset="0.61" style="stop-color:#F2F2F2"/>
			<stop  offset="0.7773" style="stop-color:#FCFCFC"/>
			<stop  offset="1" style="stop-color:#FFFFFF"/>
		</radialGradient>
		<ellipse class="st7" cx="197.8" cy="285.7" rx="43.6" ry="13.9"/>
		
			<radialGradient id="SVGID_8_" cx="225.8255" cy="149.106" r="27.7659" gradientTransform="matrix(1.5691 0 0 0.5 -40.4935 211.1169)" gradientUnits="userSpaceOnUse">
			<stop  offset="0" style="stop-color:#747474"/>
			<stop  offset="6.604260e-002" style="stop-color:#8A8A8A"/>
			<stop  offset="0.1904" style="stop-color:#AEAEAE"/>
			<stop  offset="0.3219" style="stop-color:#CBCBCB"/>
			<stop  offset="0.4606" style="stop-color:#E2E2E2"/>
			<stop  offset="0.61" style="stop-color:#F2F2F2"/>
			<stop  offset="0.7773" style="stop-color:#FCFCFC"/>
			<stop  offset="1" style="stop-color:#FFFFFF"/>
		</radialGradient>
		<ellipse class="st8" cx="313.8" cy="285.7" rx="43.6" ry="13.9"/>
		
			<radialGradient id="SVGID_9_" cx="299.7956" cy="149.106" r="27.7659" gradientTransform="matrix(1.5691 0 0 0.5 -40.4935 211.1169)" gradientUnits="userSpaceOnUse">
			<stop  offset="0" style="stop-color:#747474"/>
			<stop  offset="6.604260e-002" style="stop-color:#8A8A8A"/>
			<stop  offset="0.1904" style="stop-color:#AEAEAE"/>
			<stop  offset="0.3219" style="stop-color:#CBCBCB"/>
			<stop  offset="0.4606" style="stop-color:#E2E2E2"/>
			<stop  offset="0.61" style="stop-color:#F2F2F2"/>
			<stop  offset="0.7773" style="stop-color:#FCFCFC"/>
			<stop  offset="1" style="stop-color:#FFFFFF"/>
		</radialGradient>
		<ellipse class="st9" cx="429.9" cy="285.7" rx="43.6" ry="13.9"/>
		
			<radialGradient id="SVGID_10_" cx="77.8854" cy="-108.0219" r="27.7659" gradientTransform="matrix(1.5691 0 0 0.5 -40.4935 211.1169)" gradientUnits="userSpaceOnUse">
			<stop  offset="0" style="stop-color:#747474"/>
			<stop  offset="6.604260e-002" style="stop-color:#8A8A8A"/>
			<stop  offset="0.1904" style="stop-color:#AEAEAE"/>
			<stop  offset="0.3219" style="stop-color:#CBCBCB"/>
			<stop  offset="0.4606" style="stop-color:#E2E2E2"/>
			<stop  offset="0.61" style="stop-color:#F2F2F2"/>
			<stop  offset="0.7773" style="stop-color:#FCFCFC"/>
			<stop  offset="1" style="stop-color:#FFFFFF"/>
		</radialGradient>
		<ellipse class="st10" cx="81.7" cy="157.1" rx="43.6" ry="13.9"/>
		
			<radialGradient id="SVGID_11_" cx="151.8555" cy="-108.0219" r="27.7659" gradientTransform="matrix(1.5691 0 0 0.5 -40.4935 211.1169)" gradientUnits="userSpaceOnUse">
			<stop  offset="0" style="stop-color:#747474"/>
			<stop  offset="6.604260e-002" style="stop-color:#8A8A8A"/>
			<stop  offset="0.1904" style="stop-color:#AEAEAE"/>
			<stop  offset="0.3219" style="stop-color:#CBCBCB"/>
			<stop  offset="0.4606" style="stop-color:#E2E2E2"/>
			<stop  offset="0.61" style="stop-color:#F2F2F2"/>
			<stop  offset="0.7773" style="stop-color:#FCFCFC"/>
			<stop  offset="1" style="stop-color:#FFFFFF"/>
		</radialGradient>
		<ellipse class="st11" cx="197.8" cy="157.1" rx="43.6" ry="13.9"/>
		
			<radialGradient id="SVGID_12_" cx="225.8255" cy="-108.0219" r="27.7659" gradientTransform="matrix(1.5691 0 0 0.5 -40.4935 211.1169)" gradientUnits="userSpaceOnUse">
			<stop  offset="0" style="stop-color:#747474"/>
			<stop  offset="6.604260e-002" style="stop-color:#8A8A8A"/>
			<stop  offset="0.1904" style="stop-color:#AEAEAE"/>
			<stop  offset="0.3219" style="stop-color:#CBCBCB"/>
			<stop  offset="0.4606" style="stop-color:#E2E2E2"/>
			<stop  offset="0.61" style="stop-color:#F2F2F2"/>
			<stop  offset="0.7773" style="stop-color:#FCFCFC"/>
			<stop  offset="1" style="stop-color:#FFFFFF"/>
		</radialGradient>
		<ellipse class="st12" cx="313.8" cy="157.1" rx="43.6" ry="13.9"/>
		
			<radialGradient id="SVGID_13_" cx="299.7956" cy="-108.0219" r="27.7659" gradientTransform="matrix(1.5691 0 0 0.5 -40.4935 211.1169)" gradientUnits="userSpaceOnUse">
			<stop  offset="0" style="stop-color:#747474"/>
			<stop  offset="6.604260e-002" style="stop-color:#8A8A8A"/>
			<stop  offset="0.1904" style="stop-color:#AEAEAE"/>
			<stop  offset="0.3219" style="stop-color:#CBCBCB"/>
			<stop  offset="0.4606" style="stop-color:#E2E2E2"/>
			<stop  offset="0.61" style="stop-color:#F2F2F2"/>
			<stop  offset="0.7773" style="stop-color:#FCFCFC"/>
			<stop  offset="1" style="stop-color:#FFFFFF"/>
		</radialGradient>
		<ellipse class="st13" cx="429.9" cy="157.1" rx="43.6" ry="13.9"/>
	</g>
	<g class="st0">
		<g class="st14">
			<defs>
				<path id="XMLID_1_" d="M459,74.9c-8-8-18.6-12.1-29.1-12.1c-10.5,0-21.1,4-29.1,12.1c-16.1,16.1-16.1,42.2,0,58.3
					c8,8,18.6,12.1,29.1,12.1c10.5,0,21.1-4,29.1-12.1C475.1,117,475.1,91,459,74.9z"/>
			</defs>
			<use xlink:href="#XMLID_1_"  style="overflow:visible;fill:#EF1401;"/>
			<clipPath id="XMLID_6_">
				<use xlink:href="#XMLID_1_"  style="overflow:visible;"/>
			</clipPath>
			<g class="st15">
				<polygon class="st16" points="466.6,114.6 454.6,126.6 442.5,114.6 432.2,124.9 444.2,137 432.2,149 442.5,159.3 454.6,147.3 
					466.6,159.3 476.9,149 464.9,137 476.9,124.9 				"/>
				<polygon class="st17" points="466,113.8 453.9,125.8 441.9,113.8 431.6,124.1 443.6,136.2 431.6,148.2 441.9,158.5 453.9,146.5 
					466,158.5 476.3,148.2 464.3,136.2 476.3,124.1 				"/>
				<polygon class="st18" points="465.4,113 453.3,125 441.3,113 431,123.3 443,135.4 431,147.4 441.3,157.7 453.3,145.7 
					465.4,157.7 475.7,147.4 463.7,135.4 475.7,123.3 				"/>
				<polygon class="st19" points="464.8,112.2 452.7,124.2 440.7,112.2 430.4,122.5 442.4,134.6 430.4,146.6 440.7,156.9 
					452.7,144.9 464.8,156.9 475.1,146.6 463.1,134.6 475.1,122.5 				"/>
				<polygon class="st20" points="464.2,111.4 452.1,123.4 440.1,111.4 429.8,121.7 441.8,133.8 429.8,145.8 440.1,156.1 
					452.1,144.1 464.2,156.1 474.5,145.8 462.5,133.8 474.5,121.7 				"/>
				<polygon class="st21" points="463.6,110.6 451.5,122.6 439.5,110.6 429.2,120.9 441.2,132.9 429.2,145 439.5,155.3 451.5,143.3 
					463.6,155.3 473.9,145 461.9,132.9 473.9,120.9 				"/>
				<polygon class="st22" points="463,109.8 450.9,121.8 438.9,109.8 428.6,120.1 440.6,132.1 428.6,144.2 438.9,154.5 450.9,142.5 
					463,154.5 473.3,144.2 461.3,132.1 473.3,120.1 				"/>
				<polygon class="st23" points="462.4,109 450.3,121 438.3,109 428,119.3 440,131.3 428,143.4 438.3,153.7 450.3,141.7 
					462.4,153.7 472.7,143.4 460.7,131.3 472.7,119.3 				"/>
				<polygon class="st24" points="461.8,108.2 449.7,120.2 437.7,108.2 427.4,118.5 439.4,130.5 427.4,142.6 437.7,152.9 
					449.7,140.9 461.8,152.9 472.1,142.6 460,130.5 472.1,118.5 				"/>
				<polygon class="st25" points="461.2,107.4 449.1,119.4 437.1,107.4 426.8,117.7 438.8,129.7 426.8,141.8 437.1,152.1 449.1,140 
					461.2,152.1 471.5,141.8 459.4,129.7 471.5,117.7 				"/>
				<polygon class="st26" points="460.6,106.6 448.5,118.6 436.5,106.6 426.2,116.9 438.2,128.9 426.2,141 436.5,151.3 448.5,139.2 
					460.6,151.3 470.9,141 458.8,128.9 470.9,116.9 				"/>
				<polygon class="st27" points="460,105.8 447.9,117.8 435.9,105.8 425.6,116.1 437.6,128.1 425.6,140.2 435.9,150.5 447.9,138.4 
					460,150.5 470.3,140.2 458.2,128.1 470.3,116.1 				"/>
				<polygon class="st28" points="459.4,105 447.3,117 435.3,105 425,115.3 437,127.3 425,139.4 435.3,149.7 447.3,137.6 
					459.4,149.7 469.7,139.4 457.6,127.3 469.7,115.3 				"/>
				<polygon class="st29" points="458.8,104.2 446.7,116.2 434.7,104.2 424.4,114.5 436.4,126.5 424.4,138.6 434.7,148.9 
					446.7,136.8 458.8,148.9 469.1,138.6 457,126.5 469.1,114.5 				"/>
				<polygon class="st30" points="458.2,103.3 446.1,115.4 434.1,103.4 423.8,113.7 435.8,125.7 423.8,137.8 434.1,148.1 446.1,136 
					458.2,148.1 468.5,137.8 456.4,125.7 468.5,113.7 				"/>
				<polygon class="st31" points="457.5,102.5 445.5,114.6 433.5,102.5 423.1,112.9 435.2,124.9 423.1,136.9 433.5,147.3 
					445.5,135.2 457.5,147.3 467.9,136.9 455.8,124.9 467.9,112.9 				"/>
				<polygon class="st32" points="456.9,101.7 444.9,113.8 432.9,101.7 422.5,112.1 434.6,124.1 422.5,136.1 432.9,146.5 
					444.9,134.4 456.9,146.5 467.3,136.1 455.2,124.1 467.3,112.1 				"/>
				<polygon class="st33" points="456.3,100.9 444.3,113 432.3,100.9 421.9,111.3 434,123.3 421.9,135.3 432.3,145.7 444.3,133.6 
					456.3,145.7 466.7,135.3 454.6,123.3 466.7,111.3 				"/>
				<polygon class="st34" points="455.7,100.1 443.7,112.2 431.7,100.1 421.3,110.5 433.4,122.5 421.3,134.5 431.7,144.9 
					443.7,132.8 455.7,144.9 466.1,134.5 454,122.5 466.1,110.5 				"/>
				<polygon class="st35" points="455.1,99.3 443.1,111.4 431.1,99.3 420.7,109.6 432.8,121.7 420.7,133.7 431.1,144 443.1,132 
					455.1,144 465.5,133.7 453.4,121.7 465.5,109.6 				"/>
				<polygon class="st36" points="454.5,98.5 442.5,110.6 430.5,98.5 420.1,108.8 432.2,120.9 420.1,132.9 430.5,143.2 442.5,131.2 
					454.5,143.2 464.9,132.9 452.8,120.9 464.9,108.8 				"/>
				<polygon class="st37" points="453.9,97.7 441.9,109.8 429.8,97.7 419.5,108 431.6,120.1 419.5,132.1 429.8,142.4 441.9,130.4 
					453.9,142.4 464.2,132.1 452.2,120.1 464.2,108 				"/>
				<polygon class="st38" points="453.3,96.9 441.3,109 429.2,96.9 418.9,107.2 431,119.3 418.9,131.3 429.2,141.6 441.3,129.6 
					453.3,141.6 463.6,131.3 451.6,119.3 463.6,107.2 				"/>
				<polygon class="st39" points="452.7,96.1 440.7,108.2 428.6,96.1 418.3,106.4 430.4,118.5 418.3,130.5 428.6,140.8 440.7,128.8 
					452.7,140.8 463,130.5 451,118.5 463,106.4 				"/>
				<polygon class="st40" points="452.1,95.3 440.1,107.3 428,95.3 417.7,105.6 429.8,117.7 417.7,129.7 428,140 440.1,128 
					452.1,140 462.4,129.7 450.4,117.7 462.4,105.6 				"/>
				<polygon class="st41" points="451.5,94.5 439.5,106.5 427.4,94.5 417.1,104.8 429.2,116.9 417.1,128.9 427.4,139.2 439.5,127.2 
					451.5,139.2 461.8,128.9 449.8,116.9 461.8,104.8 				"/>
				<polygon class="st42" points="450.9,93.7 438.9,105.7 426.8,93.7 416.5,104 428.6,116.1 416.5,128.1 426.8,138.4 438.9,126.4 
					450.9,138.4 461.2,128.1 449.2,116.1 461.2,104 				"/>
				<polygon class="st43" points="450.3,92.9 438.3,104.9 426.2,92.9 415.9,103.2 428,115.3 415.9,127.3 426.2,137.6 438.3,125.6 
					450.3,137.6 460.6,127.3 448.6,115.3 460.6,103.2 				"/>
				<polygon class="st44" points="449.7,92.1 437.7,104.1 425.6,92.1 415.3,102.4 427.3,114.5 415.3,126.5 425.6,136.8 437.7,124.8 
					449.7,136.8 460,126.5 448,114.5 460,102.4 				"/>
				<polygon class="st45" points="449.1,91.3 437.1,103.3 425,91.3 414.7,101.6 426.7,113.6 414.7,125.7 425,136 437.1,124 
					449.1,136 459.4,125.7 447.4,113.6 459.4,101.6 				"/>
				<polygon class="st46" points="448.5,90.5 436.5,102.5 424.4,90.5 414.1,100.8 426.1,112.8 414.1,124.9 424.4,135.2 436.5,123.2 
					448.5,135.2 458.8,124.9 446.8,112.8 458.8,100.8 				"/>
				<polygon class="st47" points="447.9,89.7 435.9,101.7 423.8,89.7 413.5,100 425.5,112 413.5,124.1 423.8,134.4 435.9,122.4 
					447.9,134.4 458.2,124.1 446.2,112 458.2,100 				"/>
				<polygon class="st48" points="447.3,88.9 435.3,100.9 423.2,88.9 412.9,99.2 424.9,111.2 412.9,123.3 423.2,133.6 435.3,121.6 
					447.3,133.6 457.6,123.3 445.6,111.2 457.6,99.2 				"/>
				<polygon class="st49" points="446.7,88.1 434.7,100.1 422.6,88.1 412.3,98.4 424.3,110.4 412.3,122.5 422.6,132.8 434.7,120.8 
					446.7,132.8 457,122.5 445,110.4 457,98.4 				"/>
				<polygon class="st50" points="446.1,87.3 434,99.3 422,87.3 411.7,97.6 423.7,109.6 411.7,121.7 422,132 434,119.9 446.1,132 
					456.4,121.7 444.4,109.6 456.4,97.6 				"/>
				<polygon class="st51" points="445.5,86.5 433.4,98.5 421.4,86.5 411.1,96.8 423.1,108.8 411.1,120.9 421.4,131.2 433.4,119.1 
					445.5,131.2 455.8,120.9 443.8,108.8 455.8,96.8 				"/>
				<polygon class="st52" points="444.9,85.7 432.8,97.7 420.8,85.7 410.5,96 422.5,108 410.5,120.1 420.8,130.4 432.8,118.3 
					444.9,130.4 455.2,120.1 443.2,108 455.2,96 				"/>
				<polygon class="st53" points="444.3,84.9 432.2,96.9 420.2,84.9 409.9,95.2 421.9,107.2 409.9,119.3 420.2,129.6 432.2,117.5 
					444.3,129.6 454.6,119.3 442.6,107.2 454.6,95.2 				"/>
				<polygon class="st54" points="443.7,84.1 431.6,96.1 419.6,84.1 409.3,94.4 421.3,106.4 409.3,118.5 419.6,128.8 431.6,116.7 
					443.7,128.8 454,118.5 442,106.4 454,94.4 				"/>
				<polygon class="st55" points="443.1,83.2 431,95.3 419,83.2 408.7,93.6 420.7,105.6 408.7,117.6 419,128 431,115.9 443.1,128 
					453.4,117.6 441.4,105.6 453.4,93.6 				"/>
				<polygon class="st56" points="442.5,82.4 430.4,94.5 418.4,82.4 408.1,92.8 420.1,104.8 408.1,116.8 418.4,127.2 430.4,115.1 
					442.5,127.2 452.8,116.8 440.8,104.8 452.8,92.8 				"/>
				<polygon points="441.9,81.6 429.8,93.7 417.8,81.6 407.5,92 419.5,104 407.5,116 417.8,126.4 429.8,114.3 441.9,126.4 
					452.2,116 440.1,104 452.2,92 				"/>
			</g>
		</g>
		<polygon class="st57" points="441.9,81.6 429.8,93.7 417.8,81.6 407.5,92 419.5,104 407.5,116 417.8,126.4 429.8,114.3 
			441.9,126.4 452.2,116 440.1,104 452.2,92 		"/>
	</g>
	<g>
		<g>
			<defs>
				<path id="XMLID_2_" d="M70.3,12.1C62.3,4,51.8,0,41.2,0C30.7,0,20.1,4,12.1,12.1C-4,28.2-4,54.3,12.1,70.3
					c8,8,18.6,12.1,29.1,12.1c10.5,0,21.1-4,29.1-12.1C86.4,54.3,86.4,28.2,70.3,12.1z"/>
			</defs>
			<use xlink:href="#XMLID_2_"  style="overflow:visible;fill:#1EB40F;"/>
			<clipPath id="XMLID_7_">
				<use xlink:href="#XMLID_2_"  style="overflow:visible;"/>
			</clipPath>
			<g class="st58">
				<polygon class="st16" points="59.6,80.1 48.5,69 38.3,79.2 59.6,100.4 59.6,100.4 69.7,90.3 94.6,65.4 84.4,55.3 				"/>
				<polygon class="st59" points="59,79.3 47.9,68.2 37.7,78.4 59,99.6 59,99.6 69.1,89.5 94,64.6 83.8,54.5 				"/>
				<polygon class="st60" points="58.4,78.5 47.3,67.4 37.1,77.6 58.4,98.8 58.4,98.8 68.5,88.7 93.4,63.8 83.2,53.7 				"/>
				<polygon class="st61" points="57.8,77.7 46.7,66.6 36.5,76.8 57.8,98 57.8,98 67.9,87.9 92.8,63 82.6,52.9 				"/>
				<polygon class="st62" points="57.2,76.9 46.1,65.8 35.9,76 57.2,97.2 57.2,97.2 67.3,87.1 92.2,62.2 82,52.1 				"/>
				<polygon class="st21" points="56.6,76.1 45.5,65 35.3,75.2 56.6,96.4 56.6,96.4 66.7,86.3 91.5,61.4 81.4,51.3 				"/>
				<polygon class="st22" points="56,75.3 44.8,64.2 34.7,74.3 56,95.6 56,95.6 66.1,85.5 90.9,60.6 80.8,50.5 				"/>
				<polygon class="st23" points="55.4,74.5 44.2,63.4 34.1,73.5 55.4,94.8 55.4,94.8 65.5,84.6 90.3,59.8 80.2,49.7 				"/>
				<polygon class="st24" points="54.7,73.7 43.6,62.6 33.5,72.7 54.7,94 54.8,94 64.9,83.8 89.7,59 79.6,48.9 				"/>
				<polygon class="st25" points="54.1,72.9 43,61.8 32.9,71.9 54.1,93.2 54.1,93.2 64.3,83 89.1,58.2 79,48 				"/>
				<polygon class="st26" points="53.5,72.1 42.4,61 32.3,71.1 53.5,92.4 53.5,92.4 63.7,82.2 88.5,57.4 78.4,47.2 				"/>
				<polygon class="st27" points="52.9,71.3 41.8,60.2 31.7,70.3 52.9,91.6 52.9,91.6 63.1,81.4 87.9,56.6 77.8,46.4 				"/>
				<polygon class="st28" points="52.3,70.5 41.2,59.4 31.1,69.5 52.3,90.8 52.3,90.8 62.5,80.6 87.3,55.8 77.2,45.6 				"/>
				<polygon class="st29" points="51.7,69.7 40.6,58.6 30.5,68.7 51.7,90 51.7,90 61.9,79.8 86.7,55 76.6,44.8 				"/>
				<polygon class="st30" points="51.1,68.9 40,57.8 29.9,67.9 51.1,89.2 51.1,89.1 61.3,79 86.1,54.2 76,44 				"/>
				<polygon class="st31" points="50.5,68.1 39.4,57 29.3,67.1 50.5,88.3 50.5,88.3 60.7,78.2 85.5,53.4 75.4,43.2 				"/>
				<polygon class="st32" points="49.9,67.3 38.8,56.2 28.7,66.3 49.9,87.5 49.9,87.5 60.1,77.4 84.9,52.6 74.8,42.4 				"/>
				<polygon class="st33" points="49.3,66.5 38.2,55.4 28.1,65.5 49.3,86.7 49.3,86.7 59.5,76.6 84.3,51.7 74.2,41.6 				"/>
				<polygon class="st34" points="48.7,65.7 37.6,54.6 27.5,64.7 48.7,85.9 48.7,85.9 58.8,75.8 83.7,50.9 73.6,40.8 				"/>
				<polygon class="st35" points="48.1,64.9 37,53.8 26.9,63.9 48.1,85.1 48.1,85.1 58.2,75 83.1,50.1 73,40 				"/>
				<polygon class="st36" points="47.5,64.1 36.4,53 26.3,63.1 47.5,84.3 47.5,84.3 57.6,74.2 82.5,49.3 72.4,39.2 				"/>
				<polygon class="st37" points="46.9,63.3 35.8,52.2 25.7,62.3 46.9,83.5 46.9,83.5 57,73.4 81.9,48.5 71.8,38.4 				"/>
				<polygon class="st38" points="46.3,62.5 35.2,51.4 25.1,61.5 46.3,82.7 46.3,82.7 56.4,72.6 81.3,47.7 71.2,37.6 				"/>
				<polygon class="st39" points="45.7,61.7 34.6,50.5 24.5,60.7 45.7,81.9 45.7,81.9 55.8,71.8 80.7,46.9 70.6,36.8 				"/>
				<polygon class="st40" points="45.1,60.8 34,49.7 23.9,59.9 45.1,81.1 45.1,81.1 55.2,71 80.1,46.1 70,36 				"/>
				<polygon class="st41" points="44.5,60 33.4,48.9 23.3,59.1 44.5,80.3 44.5,80.3 54.6,70.2 79.5,45.3 69.4,35.2 				"/>
				<polygon class="st42" points="43.9,59.2 32.8,48.1 22.7,58.3 43.9,79.5 43.9,79.5 54,69.4 78.9,44.5 68.8,34.4 				"/>
				<polygon class="st43" points="43.3,58.4 32.2,47.3 22.1,57.5 43.3,78.7 43.3,78.7 53.4,68.6 78.3,43.7 68.2,33.6 				"/>
				<polygon class="st44" points="42.7,57.6 31.6,46.5 21.5,56.7 42.7,77.9 42.7,77.9 52.8,67.8 77.7,42.9 67.5,32.8 				"/>
				<polygon class="st45" points="42.1,56.8 31,45.7 20.8,55.9 42.1,77.1 42.1,77.1 52.2,67 77.1,42.1 66.9,32 				"/>
				<polygon class="st46" points="41.5,56 30.4,44.9 20.2,55 41.5,76.3 41.5,76.3 51.6,66.2 76.5,41.3 66.3,31.2 				"/>
				<polygon class="st47" points="40.9,55.2 29.8,44.1 19.6,54.2 40.9,75.5 40.9,75.5 51,65.4 75.9,40.5 65.7,30.4 				"/>
				<polygon class="st48" points="40.3,54.4 29.2,43.3 19,53.4 40.3,74.7 40.3,74.7 50.4,64.5 75.3,39.7 65.1,29.6 				"/>
				<polygon class="st49" points="39.7,53.6 28.6,42.5 18.4,52.6 39.7,73.9 39.7,73.9 49.8,63.7 74.7,38.9 64.5,28.8 				"/>
				<polygon class="st50" points="39.1,52.8 28,41.7 17.8,51.8 39.1,73.1 39.1,73.1 49.2,62.9 74.1,38.1 63.9,27.9 				"/>
				<polygon class="st51" points="38.5,52 27.4,40.9 17.2,51 38.5,72.3 38.5,72.3 48.6,62.1 73.5,37.3 63.3,27.1 				"/>
				<polygon class="st52" points="37.9,51.2 26.8,40.1 16.6,50.2 37.9,71.5 37.9,71.5 48,61.3 72.9,36.5 62.7,26.3 				"/>
				<polygon class="st53" points="37.3,50.4 26.2,39.3 16,49.4 37.3,70.7 37.3,70.7 47.4,60.5 72.3,35.7 62.1,25.5 				"/>
				<polygon class="st54" points="36.7,49.6 25.6,38.5 15.4,48.6 36.7,69.9 36.7,69.9 46.8,59.7 71.6,34.9 61.5,24.7 				"/>
				<polygon class="st55" points="36.1,48.8 24.9,37.7 14.8,47.8 36.1,69 36.1,69 46.2,58.9 71,34.1 60.9,23.9 				"/>
				<polygon class="st56" points="35.5,48 24.3,36.9 14.2,47 35.5,68.2 35.5,68.2 45.6,58.1 70.4,33.3 60.3,23.1 				"/>
				<polygon points="34.8,47.2 23.7,36.1 13.6,46.2 34.8,67.4 34.9,67.4 45,57.3 69.8,32.4 59.7,22.3 				"/>
			</g>
		</g>
		<polygon class="st63" points="34.8,47.2 23.7,36.1 13.6,46.2 34.8,67.4 34.9,67.4 45,57.3 69.8,32.4 59.7,22.3 		"/>
	</g>
	<g class="st0">
		<g class="st14">
			<defs>
				<path id="XMLID_4_" d="M459,201.4c-8-8-18.6-12.1-29.1-12.1c-10.5,0-21.1,4-29.1,12.1c-16.1,16.1-16.1,42.2,0,58.3
					c8,8,18.6,12.1,29.1,12.1c10.5,0,21.1-4,29.1-12.1C475.1,243.6,475.1,217.5,459,201.4z"/>
			</defs>
			<use xlink:href="#XMLID_4_"  style="overflow:visible;fill:#FFFFFF;"/>
			<clipPath id="XMLID_8_">
				<use xlink:href="#XMLID_4_"  style="overflow:visible;"/>
			</clipPath>
			<g class="st64">
				<polygon class="st16" points="466.6,241.2 454.6,253.2 442.5,241.2 432.2,251.5 444.2,263.5 432.2,275.6 442.5,285.9 
					454.6,273.9 466.6,285.9 476.9,275.6 464.9,263.5 476.9,251.5 				"/>
				<polygon class="st17" points="466,240.4 453.9,252.4 441.9,240.4 431.6,250.7 443.6,262.7 431.6,274.8 441.9,285.1 453.9,273.1 
					466,285.1 476.3,274.8 464.3,262.7 476.3,250.7 				"/>
				<polygon class="st18" points="465.4,239.6 453.3,251.6 441.3,239.6 431,249.9 443,261.9 431,274 441.3,284.3 453.3,272.3 
					465.4,284.3 475.7,274 463.7,261.9 475.7,249.9 				"/>
				<polygon class="st19" points="464.8,238.8 452.7,250.8 440.7,238.8 430.4,249.1 442.4,261.1 430.4,273.2 440.7,283.5 
					452.7,271.5 464.8,283.5 475.1,273.2 463.1,261.1 475.1,249.1 				"/>
				<polygon class="st20" points="464.2,238 452.1,250 440.1,238 429.8,248.3 441.8,260.3 429.8,272.4 440.1,282.7 452.1,270.6 
					464.2,282.7 474.5,272.4 462.5,260.3 474.5,248.3 				"/>
				<polygon class="st21" points="463.6,237.2 451.5,249.2 439.5,237.2 429.2,247.5 441.2,259.5 429.2,271.6 439.5,281.9 
					451.5,269.8 463.6,281.9 473.9,271.6 461.9,259.5 473.9,247.5 				"/>
				<polygon class="st22" points="463,236.4 450.9,248.4 438.9,236.4 428.6,246.7 440.6,258.7 428.6,270.8 438.9,281.1 450.9,269 
					463,281.1 473.3,270.8 461.3,258.7 473.3,246.7 				"/>
				<polygon class="st23" points="462.4,235.6 450.3,247.6 438.3,235.6 428,245.9 440,257.9 428,270 438.3,280.3 450.3,268.2 
					462.4,280.3 472.7,270 460.7,257.9 472.7,245.9 				"/>
				<polygon class="st24" points="461.8,234.8 449.7,246.8 437.7,234.8 427.4,245.1 439.4,257.1 427.4,269.2 437.7,279.5 
					449.7,267.4 461.8,279.5 472.1,269.2 460,257.1 472.1,245.1 				"/>
				<polygon class="st25" points="461.2,233.9 449.1,246 437.1,233.9 426.8,244.3 438.8,256.3 426.8,268.3 437.1,278.7 449.1,266.6 
					461.2,278.7 471.5,268.3 459.4,256.3 471.5,244.3 				"/>
				<polygon class="st26" points="460.6,233.1 448.5,245.2 436.5,233.1 426.2,243.5 438.2,255.5 426.2,267.5 436.5,277.9 
					448.5,265.8 460.6,277.9 470.9,267.5 458.8,255.5 470.9,243.5 				"/>
				<polygon class="st27" points="460,232.3 447.9,244.4 435.9,232.3 425.6,242.7 437.6,254.7 425.6,266.7 435.9,277.1 447.9,265 
					460,277.1 470.3,266.7 458.2,254.7 470.3,242.7 				"/>
				<polygon class="st28" points="459.4,231.5 447.3,243.6 435.3,231.5 425,241.9 437,253.9 425,265.9 435.3,276.3 447.3,264.2 
					459.4,276.3 469.7,265.9 457.6,253.9 469.7,241.9 				"/>
				<polygon class="st29" points="458.8,230.7 446.7,242.8 434.7,230.7 424.4,241.1 436.4,253.1 424.4,265.1 434.7,275.5 
					446.7,263.4 458.8,275.5 469.1,265.1 457,253.1 469.1,241.1 				"/>
				<polygon class="st30" points="458.2,229.9 446.1,242 434.1,229.9 423.8,240.2 435.8,252.3 423.8,264.3 434.1,274.6 446.1,262.6 
					458.2,274.6 468.5,264.3 456.4,252.3 468.5,240.2 				"/>
				<polygon class="st31" points="457.5,229.1 445.5,241.2 433.5,229.1 423.1,239.4 435.2,251.5 423.1,263.5 433.5,273.8 
					445.5,261.8 457.5,273.8 467.9,263.5 455.8,251.5 467.9,239.4 				"/>
				<polygon class="st32" points="456.9,228.3 444.9,240.4 432.9,228.3 422.5,238.6 434.6,250.7 422.5,262.7 432.9,273 444.9,261 
					456.9,273 467.3,262.7 455.2,250.7 467.3,238.6 				"/>
				<polygon class="st33" points="456.3,227.5 444.3,239.6 432.3,227.5 421.9,237.8 434,249.9 421.9,261.9 432.3,272.2 444.3,260.2 
					456.3,272.2 466.7,261.9 454.6,249.9 466.7,237.8 				"/>
				<polygon class="st34" points="455.7,226.7 443.7,238.8 431.7,226.7 421.3,237 433.4,249.1 421.3,261.1 431.7,271.4 443.7,259.4 
					455.7,271.4 466.1,261.1 454,249.1 466.1,237 				"/>
				<polygon class="st35" points="455.1,225.9 443.1,237.9 431.1,225.9 420.7,236.2 432.8,248.3 420.7,260.3 431.1,270.6 
					443.1,258.6 455.1,270.6 465.5,260.3 453.4,248.3 465.5,236.2 				"/>
				<polygon class="st36" points="454.5,225.1 442.5,237.1 430.5,225.1 420.1,235.4 432.2,247.5 420.1,259.5 430.5,269.8 
					442.5,257.8 454.5,269.8 464.9,259.5 452.8,247.5 464.9,235.4 				"/>
				<polygon class="st37" points="453.9,224.3 441.9,236.3 429.8,224.3 419.5,234.6 431.6,246.7 419.5,258.7 429.8,269 441.9,257 
					453.9,269 464.2,258.7 452.2,246.7 464.2,234.6 				"/>
				<polygon class="st38" points="453.3,223.5 441.3,235.5 429.2,223.5 418.9,233.8 431,245.9 418.9,257.9 429.2,268.2 441.3,256.2 
					453.3,268.2 463.6,257.9 451.6,245.9 463.6,233.8 				"/>
				<polygon class="st39" points="452.7,222.7 440.7,234.7 428.6,222.7 418.3,233 430.4,245.1 418.3,257.1 428.6,267.4 440.7,255.4 
					452.7,267.4 463,257.1 451,245.1 463,233 				"/>
				<polygon class="st40" points="452.1,221.9 440.1,233.9 428,221.9 417.7,232.2 429.8,244.2 417.7,256.3 428,266.6 440.1,254.6 
					452.1,266.6 462.4,256.3 450.4,244.2 462.4,232.2 				"/>
				<polygon class="st41" points="451.5,221.1 439.5,233.1 427.4,221.1 417.1,231.4 429.2,243.4 417.1,255.5 427.4,265.8 
					439.5,253.8 451.5,265.8 461.8,255.5 449.8,243.4 461.8,231.4 				"/>
				<polygon class="st42" points="450.9,220.3 438.9,232.3 426.8,220.3 416.5,230.6 428.6,242.6 416.5,254.7 426.8,265 438.9,253 
					450.9,265 461.2,254.7 449.2,242.6 461.2,230.6 				"/>
				<polygon class="st43" points="450.3,219.5 438.3,231.5 426.2,219.5 415.9,229.8 428,241.8 415.9,253.9 426.2,264.2 438.3,252.2 
					450.3,264.2 460.6,253.9 448.6,241.8 460.6,229.8 				"/>
				<polygon class="st44" points="449.7,218.7 437.7,230.7 425.6,218.7 415.3,229 427.3,241 415.3,253.1 425.6,263.4 437.7,251.4 
					449.7,263.4 460,253.1 448,241 460,229 				"/>
				<polygon class="st45" points="449.1,217.9 437.1,229.9 425,217.9 414.7,228.2 426.7,240.2 414.7,252.3 425,262.6 437.1,250.5 
					449.1,262.6 459.4,252.3 447.4,240.2 459.4,228.2 				"/>
				<polygon class="st46" points="448.5,217.1 436.5,229.1 424.4,217.1 414.1,227.4 426.1,239.4 414.1,251.5 424.4,261.8 
					436.5,249.7 448.5,261.8 458.8,251.5 446.8,239.4 458.8,227.4 				"/>
				<polygon class="st47" points="447.9,216.3 435.9,228.3 423.8,216.3 413.5,226.6 425.5,238.6 413.5,250.7 423.8,261 435.9,248.9 
					447.9,261 458.2,250.7 446.2,238.6 458.2,226.6 				"/>
				<polygon class="st48" points="447.3,215.5 435.3,227.5 423.2,215.5 412.9,225.8 424.9,237.8 412.9,249.9 423.2,260.2 
					435.3,248.1 447.3,260.2 457.6,249.9 445.6,237.8 457.6,225.8 				"/>
				<polygon class="st49" points="446.7,214.6 434.7,226.7 422.6,214.7 412.3,225 424.3,237 412.3,249.1 422.6,259.4 434.7,247.3 
					446.7,259.4 457,249.1 445,237 457,225 				"/>
				<polygon class="st50" points="446.1,213.8 434,225.9 422,213.8 411.7,224.2 423.7,236.2 411.7,248.2 422,258.6 434,246.5 
					446.1,258.6 456.4,248.2 444.4,236.2 456.4,224.2 				"/>
				<polygon class="st51" points="445.5,213 433.4,225.1 421.4,213 411.1,223.4 423.1,235.4 411.1,247.4 421.4,257.8 433.4,245.7 
					445.5,257.8 455.8,247.4 443.8,235.4 455.8,223.4 				"/>
				<polygon class="st52" points="444.9,212.2 432.8,224.3 420.8,212.2 410.5,222.6 422.5,234.6 410.5,246.6 420.8,257 432.8,244.9 
					444.9,257 455.2,246.6 443.2,234.6 455.2,222.6 				"/>
				<polygon class="st53" points="444.3,211.4 432.2,223.5 420.2,211.4 409.9,221.8 421.9,233.8 409.9,245.8 420.2,256.2 
					432.2,244.1 444.3,256.2 454.6,245.8 442.6,233.8 454.6,221.8 				"/>
				<polygon class="st54" points="443.7,210.6 431.6,222.7 419.6,210.6 409.3,220.9 421.3,233 409.3,245 419.6,255.4 431.6,243.3 
					443.7,255.4 454,245 442,233 454,220.9 				"/>
				<polygon class="st55" points="443.1,209.8 431,221.9 419,209.8 408.7,220.1 420.7,232.2 408.7,244.2 419,254.5 431,242.5 
					443.1,254.5 453.4,244.2 441.4,232.2 453.4,220.1 				"/>
				<polygon class="st56" points="442.5,209 430.4,221.1 418.4,209 408.1,219.3 420.1,231.4 408.1,243.4 418.4,253.7 430.4,241.7 
					442.5,253.7 452.8,243.4 440.8,231.4 452.8,219.3 				"/>
				<polygon points="441.9,208.2 429.8,220.3 417.8,208.2 407.5,218.5 419.5,230.6 407.5,242.6 417.8,252.9 429.8,240.9 
					441.9,252.9 452.2,242.6 440.1,230.6 452.2,218.5 				"/>
			</g>
		</g>
		<polygon class="st65" points="441.9,208.2 429.8,220.3 417.8,208.2 407.5,218.5 419.5,230.6 407.5,242.6 417.8,252.9 429.8,240.9 
			441.9,252.9 452.2,242.6 440.1,230.6 452.2,218.5 		"/>
	</g>
	<g class="st0">
		<g class="st14">
			<defs>
				<path id="XMLID_3_" d="M342.3,201.4c-8-8-18.6-12.1-29.1-12.1c-10.5,0-21.1,4-29.1,12.1c-16.1,16.1-16.1,42.2,0,58.3
					c8,8,18.6,12.1,29.1,12.1c10.5,0,21.1-4,29.1-12.1C358.4,243.6,358.4,217.5,342.3,201.4z"/>
			</defs>
			<use xlink:href="#XMLID_3_"  style="overflow:visible;fill:#FFFFFF;"/>
			<clipPath id="XMLID_9_">
				<use xlink:href="#XMLID_3_"  style="overflow:visible;"/>
			</clipPath>
			<g class="st66">
				<polygon class="st16" points="331.5,269.5 320.4,258.4 310.3,268.5 331.5,289.8 331.5,289.8 341.7,279.6 366.5,254.8 
					356.4,244.7 				"/>
				<polygon class="st17" points="330.9,268.7 319.8,257.6 309.7,267.7 330.9,289 330.9,289 341.1,278.8 365.9,254 355.8,243.9 				
					"/>
				<polygon class="st18" points="330.3,267.9 319.2,256.8 309.1,266.9 330.3,288.2 330.3,288.2 340.5,278 365.3,253.2 355.2,243 
									"/>
				<polygon class="st19" points="329.7,267.1 318.6,256 308.5,266.1 329.7,287.4 329.7,287.4 339.8,277.2 364.7,252.4 354.6,242.2 
									"/>
				<polygon class="st20" points="329.1,266.3 318,255.2 307.9,265.3 329.1,286.6 329.1,286.6 339.2,276.4 364.1,251.6 354,241.4 
									"/>
				<polygon class="st21" points="328.5,265.5 317.4,254.4 307.3,264.5 328.5,285.8 328.5,285.8 338.6,275.6 363.5,250.8 
					353.4,240.6 				"/>
				<polygon class="st22" points="327.9,264.7 316.8,253.6 306.7,263.7 327.9,285 327.9,285 338,274.8 362.9,250 352.8,239.8 				
					"/>
				<polygon class="st23" points="327.3,263.9 316.2,252.8 306.1,262.9 327.3,284.1 327.3,284.1 337.4,274 362.3,249.2 352.2,239 
									"/>
				<polygon class="st24" points="326.7,263.1 315.6,252 305.5,262.1 326.7,283.3 326.7,283.3 336.8,273.2 361.7,248.4 351.6,238.2 
									"/>
				<polygon class="st25" points="326.1,262.3 315,251.2 304.9,261.3 326.1,282.5 326.1,282.5 336.2,272.4 361.1,247.5 351,237.4 
									"/>
				<polygon class="st26" points="325.5,261.5 314.4,250.4 304.3,260.5 325.5,281.7 325.5,281.7 335.6,271.6 360.5,246.7 
					350.4,236.6 				"/>
				<polygon class="st27" points="324.9,260.7 313.8,249.6 303.7,259.7 324.9,280.9 324.9,280.9 335,270.8 359.9,245.9 349.8,235.8 
									"/>
				<polygon class="st28" points="324.3,259.9 313.2,248.8 303.1,258.9 324.3,280.1 324.3,280.1 334.4,270 359.3,245.1 349.2,235 
									"/>
				<polygon class="st29" points="323.7,259.1 312.6,248 302.5,258.1 323.7,279.3 323.7,279.3 333.8,269.2 358.7,244.3 348.5,234.2 
									"/>
				<polygon class="st30" points="323.1,258.3 312,247.2 301.8,257.3 323.1,278.5 323.1,278.5 333.2,268.4 358.1,243.5 347.9,233.4 
									"/>
				<polygon class="st31" points="322.5,257.5 311.4,246.4 301.2,256.5 322.5,277.7 322.5,277.7 332.6,267.6 357.5,242.7 
					347.3,232.6 				"/>
				<polygon class="st32" points="321.9,256.7 310.8,245.5 300.6,255.7 321.9,276.9 321.9,276.9 332,266.8 356.9,241.9 346.7,231.8 
									"/>
				<polygon class="st33" points="321.3,255.8 310.2,244.7 300,254.9 321.3,276.1 321.3,276.1 331.4,266 356.3,241.1 346.1,231 				
					"/>
				<polygon class="st34" points="320.7,255 309.6,243.9 299.4,254.1 320.7,275.3 320.7,275.3 330.8,265.2 355.7,240.3 345.5,230.2 
									"/>
				<polygon class="st35" points="320.1,254.2 309,243.1 298.8,253.3 320.1,274.5 320.1,274.5 330.2,264.4 355.1,239.5 344.9,229.4 
									"/>
				<polygon class="st36" points="319.5,253.4 308.4,242.3 298.2,252.5 319.5,273.7 319.5,273.7 329.6,263.6 354.5,238.7 
					344.3,228.6 				"/>
				<polygon class="st37" points="318.9,252.6 307.8,241.5 297.6,251.7 318.9,272.9 318.9,272.9 329,262.8 353.9,237.9 343.7,227.8 
									"/>
				<polygon class="st38" points="318.3,251.8 307.2,240.7 297,250.9 318.3,272.1 318.3,272.1 328.4,262 353.3,237.1 343.1,227 				
					"/>
				<polygon class="st39" points="317.7,251 306.6,239.9 296.4,250 317.7,271.3 317.7,271.3 327.8,261.2 352.6,236.3 342.5,226.2 
									"/>
				<polygon class="st40" points="317.1,250.2 305.9,239.1 295.8,249.2 317.1,270.5 317.1,270.5 327.2,260.3 352,235.5 341.9,225.4 
									"/>
				<polygon class="st41" points="316.5,249.4 305.3,238.3 295.2,248.4 316.5,269.7 316.5,269.7 326.6,259.5 351.4,234.7 
					341.3,224.6 				"/>
				<polygon class="st42" points="315.8,248.6 304.7,237.5 294.6,247.6 315.8,268.9 315.8,268.9 326,258.7 350.8,233.9 340.7,223.7 
									"/>
				<polygon class="st43" points="315.2,247.8 304.1,236.7 294,246.8 315.2,268.1 315.2,268.1 325.4,257.9 350.2,233.1 340.1,222.9 
									"/>
				<polygon class="st44" points="314.6,247 303.5,235.9 293.4,246 314.6,267.3 314.6,267.3 324.8,257.1 349.6,232.3 339.5,222.1 
									"/>
				<polygon class="st45" points="314,246.2 302.9,235.1 292.8,245.2 314,266.5 314,266.5 324.2,256.3 349,231.5 338.9,221.3 				
					"/>
				<polygon class="st46" points="313.4,245.4 302.3,234.3 292.2,244.4 313.4,265.7 313.4,265.7 323.6,255.5 348.4,230.7 
					338.3,220.5 				"/>
				<polygon class="st47" points="312.8,244.6 301.7,233.5 291.6,243.6 312.8,264.9 312.8,264.8 323,254.7 347.8,229.9 337.7,219.7 
									"/>
				<polygon class="st48" points="312.2,243.8 301.1,232.7 291,242.8 312.2,264 312.2,264 322.4,253.9 347.2,229.1 337.1,218.9 				
					"/>
				<polygon class="st49" points="311.6,243 300.5,231.9 290.4,242 311.6,263.2 311.6,263.2 321.8,253.1 346.6,228.3 336.5,218.1 
									"/>
				<polygon class="st50" points="311,242.2 299.9,231.1 289.8,241.2 311,262.4 311,262.4 321.2,252.3 346,227.4 335.9,217.3 				
					"/>
				<polygon class="st51" points="310.4,241.4 299.3,230.3 289.2,240.4 310.4,261.6 310.4,261.6 320.5,251.5 345.4,226.6 
					335.3,216.5 				"/>
				<polygon class="st52" points="309.8,240.6 298.7,229.5 288.6,239.6 309.8,260.8 309.8,260.8 319.9,250.7 344.8,225.8 
					334.7,215.7 				"/>
				<polygon class="st53" points="309.2,239.8 298.1,228.7 288,238.8 309.2,260 309.2,260 319.3,249.9 344.2,225 334.1,214.9 				
					"/>
				<polygon class="st54" points="308.6,239 297.5,227.9 287.4,238 308.6,259.2 308.6,259.2 318.7,249.1 343.6,224.2 333.5,214.1 
									"/>
				<polygon class="st55" points="308,238.2 296.9,227.1 286.8,237.2 308,258.4 308,258.4 318.1,248.3 343,223.4 332.9,213.3 				
					"/>
				<polygon class="st56" points="307.4,237.4 296.3,226.2 286.2,236.4 307.4,257.6 307.4,257.6 317.5,247.5 342.4,222.6 
					332.3,212.5 				"/>
				<polygon points="306.8,236.5 295.7,225.4 285.6,235.6 306.8,256.8 306.8,256.8 316.9,246.7 341.8,221.8 331.7,211.7 				"/>
			</g>
		</g>
		<polygon class="st67" points="306.8,236.5 295.7,225.4 285.6,235.6 306.8,256.8 306.8,256.8 316.9,246.7 341.8,221.8 331.7,211.7 
					"/>
	</g>
	<g class="st0">
		<path class="st67" d="M291.4,398.4h43.4c10.8,0,19.5-8.7,19.5-19.5v-43.4c0-10.8-8.7-19.5-19.5-19.5h-43.4
			c-10.8,0-19.5,8.7-19.5,19.5v43.4C272,389.6,280.7,398.4,291.4,398.4z"/>
		<polygon class="st57" points="306.8,363.1 295.7,352 285.6,362.2 306.8,383.4 306.8,383.4 316.9,373.3 341.8,348.4 331.7,338.3 		
			"/>
	</g>
	<g class="st0">
		<path class="st67" d="M111.5,201.4c-8-8-18.6-12.1-29.1-12.1s-21.1,4-29.1,12.1c-16.1,16.1-16.1,42.2,0,58.3
			c8,8,18.6,12.1,29.1,12.1s21.1-4,29.1-12.1C127.6,243.6,127.6,217.5,111.5,201.4z M107,255.2c-6.6,6.6-15.3,10.2-24.6,10.2
			s-18-3.6-24.6-10.2c-13.6-13.6-13.6-35.6,0-49.2c6.6-6.6,15.3-10.2,24.6-10.2s18,3.6,24.6,10.2C120.5,219.5,120.5,241.6,107,255.2
			z"/>
		<polygon class="st67" points="76,236.5 64.9,225.4 54.8,235.6 76,256.8 76,256.8 86.2,246.7 111,221.8 100.9,211.7 		"/>
	</g>
	<g class="st0">
		<polygon class="st65" points="208.5,208.2 196.5,220.3 184.5,208.2 174.1,218.5 186.2,230.6 174.1,242.6 184.5,252.9 196.5,240.9 
			208.5,252.9 218.9,242.6 206.8,230.6 218.9,218.5 		"/>
		<path class="st65" d="M196.5,189.4c-10.5,0-21.1,4-29.1,12.1c-16.1,16.1-16.1,42.2,0,58.3c8,8,18.6,12.1,29.1,12.1
			c10.5,0,21.1-4,29.1-12.1c16.1-16.1,16.1-42.2,0-58.3C217.6,193.4,207,189.4,196.5,189.4 M221.1,255.2
			c-6.6,6.6-15.3,10.2-24.6,10.2c-9.3,0-18-3.6-24.6-10.2c-6.6-6.6-10.2-15.3-10.2-24.6c0-9.3,3.6-18,10.2-24.6
			c6.6-6.6,15.3-10.2,24.6-10.2c9.3,0,18,3.6,24.6,10.2h0c6.6,6.6,10.2,15.3,10.2,24.6C231.3,239.9,227.6,248.6,221.1,255.2z"/>
	</g>
	<g class="st0">
		<g class="st14">
			<g>
				
					<radialGradient id="SVGID_14_" cx="73.1472" cy="117.6633" r="46.1676" gradientTransform="matrix(0.8858 -0.2045 0.2045 0.8858 -2.5496 43.1684)" gradientUnits="userSpaceOnUse">
					<stop  offset="0" style="stop-color:#1ABA1B"/>
					<stop  offset="1" style="stop-color:#22AC00"/>
				</radialGradient>
				<path class="st68" d="M79.8,144.7c-19,0-35.3-13-39.6-31.6c-2.4-10.6-0.6-21.5,5.1-30.7c5.8-9.2,14.8-15.6,25.4-18.1
					c3-0.7,6.1-1.1,9.2-1.1c19,0,35.3,13,39.6,31.6c5,21.9-8.6,43.8-30.5,48.8C86,144.4,82.9,144.7,79.8,144.7z"/>
				<path class="st69" d="M79.9,62.8v1c8.9,0,17.7,3.1,24.8,8.6C111.9,78,116.9,86.1,119,95c5,21.6-8.5,43.2-30.1,48.2
					c-3,0.7-6,1-9.1,1c-8.9,0-17.7-3.1-24.8-8.6C47.8,130,42.7,122,40.7,113c-2.4-10.5-0.6-21.2,5.1-30.3c5.7-9.1,14.6-15.5,25-17.9
					c3-0.7,6-1,9.1-1L79.9,62.8 M79.9,62.8c-3.1,0-6.2,0.3-9.3,1.1c-22.2,5.1-36,27.2-30.9,49.4c4.4,19.1,21.4,31.9,40.1,31.9
					c3.1,0,6.2-0.3,9.3-1.1c22.2-5.1,36-27.2,30.9-49.4C115.6,75.7,98.6,62.8,79.9,62.8L79.9,62.8z"/>
			</g>
			<g class="st70">
				
					<linearGradient id="SVGID_15_" gradientUnits="userSpaceOnUse" x1="76.5582" y1="70.6542" x2="97.9004" y2="152.4457" gradientTransform="matrix(0.9744 -0.225 0.225 0.9744 -15.0627 38.5341)">
					<stop  offset="0" style="stop-color:#FFFFFF"/>
					<stop  offset="1" style="stop-color:#FBAE17"/>
				</linearGradient>
				<path class="st71" d="M100.2,69.7c8.3,5.4,14.6,13.9,17,24.4c5,21.4-8.5,42.9-29.9,47.9c-10.4,2.4-20.8,0.5-29.3-4.6
					c8.8,5.8,19.8,8.1,30.9,5.6c21.4-5,34.9-26.4,29.9-47.9C116.2,84,109.2,75.1,100.2,69.7z"/>
			</g>
			<g>
				<g>
					
						<linearGradient id="SVGID_16_" gradientUnits="userSpaceOnUse" x1="66.83" y1="45.4934" x2="81.5559" y2="99.0681" gradientTransform="matrix(0.9744 -0.225 0.225 0.9744 -15.0627 38.5341)">
						<stop  offset="0" style="stop-color:#FFFBD4"/>
						<stop  offset="1" style="stop-color:#000000"/>
					</linearGradient>
					<path class="st72" d="M71.9,113.4c10.9-14.9,26.1-29.9,43.2-25.2c-7.4-16.5-25.7-26-43.9-21.8c-20.8,4.8-33.7,25.6-28.9,46.3
						c1.2,5,3.3,9.6,6.1,13.6C54.6,126.4,63.9,124.3,71.9,113.4z"/>
				</g>
			</g>
			<g>
				
					<linearGradient id="SVGID_17_" gradientUnits="userSpaceOnUse" x1="59.9114" y1="38.3259" x2="87.316" y2="117.7974" gradientTransform="matrix(0.9744 -0.225 0.225 0.9744 -15.0627 38.5341)">
					<stop  offset="0" style="stop-color:#FFFFFF"/>
					<stop  offset="1" style="stop-color:#000000"/>
				</linearGradient>
				<path class="st73" d="M45.3,114.6c-4.8-20.8,8.2-41.5,28.9-46.3c9.7-2.2,19.5-0.6,27.6,4c-8.6-6-19.7-8.4-30.7-5.9
					c-20.8,4.8-33.7,25.6-28.9,46.3c2.5,11,9.6,19.8,18.7,25C53.3,132.4,47.5,124.4,45.3,114.6z"/>
			</g>
		</g>
		<linearGradient id="SVGID_18_" gradientUnits="userSpaceOnUse" x1="56.7888" y1="104.1206" x2="105.6865" y2="104.1206">
			<stop  offset="0" style="stop-color:#FFFFFF"/>
			<stop  offset="1" style="stop-color:#FBAE17"/>
		</linearGradient>
		<polygon class="st74" points="105.7,93.3 96.6,84.3 75,105.9 65.8,96.7 56.8,105.8 75,124 75,124 75,124 		"/>
		<polygon class="st57" points="104.2,91.8 95.1,82.7 73.5,104.4 64.3,95.2 55.3,104.3 73.5,122.5 73.5,122.4 73.5,122.5 		"/>
	</g>
	<g class="st0">
		<g class="st14">
			<g>
				
					<radialGradient id="SVGID_19_" cx="194.1948" cy="120.0073" r="41.969" gradientTransform="matrix(0.953 -0.3029 0.3029 0.953 -16.1725 76.2615)" gradientUnits="userSpaceOnUse">
					<stop  offset="0" style="stop-color:#F18651"/>
					<stop  offset="1" style="stop-color:#EF1200"/>
				</radialGradient>
				<path class="st75" d="M196.5,144.7c-17.8,0-33.4-11.4-38.8-28.4c-3.3-10.4-2.4-21.4,2.6-31c5-9.7,13.5-16.8,23.8-20.1
					c4-1.3,8.2-1.9,12.3-1.9c17.8,0,33.4,11.4,38.8,28.4c6.8,21.4-5.1,44.3-26.5,51.1C204.8,144.1,200.7,144.7,196.5,144.7z"/>
				<path class="st76" d="M196.5,62.8v1c17.6,0,33,11.3,38.3,28c6.7,21.1-5,43.8-26.1,50.5c-4,1.3-8.1,1.9-12.2,1.9
					c-17.6,0-33-11.3-38.3-28c-3.3-10.2-2.3-21.1,2.6-30.7c4.9-9.5,13.3-16.6,23.5-19.8c4-1.3,8.1-1.9,12.2-1.9L196.5,62.8
					 M196.5,62.8c-4.1,0-8.3,0.6-12.5,1.9c-21.7,6.9-33.7,30.1-26.8,51.7c5.6,17.5,21.8,28.7,39.3,28.7c4.1,0,8.3-0.6,12.5-1.9
					c21.7-6.9,33.7-30.1,26.8-51.7C230.2,74,214,62.8,196.5,62.8L196.5,62.8z"/>
			</g>
			<g class="st70">
				
					<linearGradient id="SVGID_20_" gradientUnits="userSpaceOnUse" x1="193.1111" y1="76.3637" x2="214.4535" y2="158.1562" gradientTransform="matrix(0.953 -0.3029 0.3029 0.953 -16.1721 76.2614)">
					<stop  offset="0" style="stop-color:#D6C6F1"/>
					<stop  offset="1" style="stop-color:#ED0113"/>
				</linearGradient>
				<path class="st77" d="M214,68.2c8.7,4.8,15.7,12.7,18.9,22.9c6.7,21-5,43.5-25.9,50.1c-10.2,3.2-20.7,2.1-29.6-2.2
					c9.2,5,20.4,6.5,31.2,3c21-6.7,32.6-29.1,25.9-50.1C231.1,81.1,223.5,72.8,214,68.2z"/>
			</g>
			<g>
				<g>
					
						<linearGradient id="SVGID_21_" gradientUnits="userSpaceOnUse" x1="183.1734" y1="51.7653" x2="197.8995" y2="105.3405" gradientTransform="matrix(0.953 -0.3029 0.3029 0.953 -16.1403 75.6738)">
						<stop  offset="0" style="stop-color:#F1B79D"/>
						<stop  offset="1" style="stop-color:#000000"/>
					</linearGradient>
					<path class="st78" d="M189.3,114c9.7-15.7,23.6-31.9,41-28.6c-8.7-15.8-27.7-23.9-45.5-18.2c-20.3,6.5-31.6,28.2-25.1,48.5
						c1.6,4.9,4,9.3,7.2,13C173.1,128.3,182.2,125.5,189.3,114z"/>
				</g>
			</g>
			<g>
				<linearGradient id="SVGID_22_" gradientUnits="userSpaceOnUse" x1="178.6809" y1="57.1926" x2="206.086" y2="136.6654">
					<stop  offset="0" style="stop-color:#FFFFFF"/>
					<stop  offset="1" style="stop-color:#000000"/>
				</linearGradient>
				<path class="st79" d="M160.4,106.6c0-21.3,17.3-38.6,38.6-38.6c10,0,19.1,3.8,26,10.1c-7.1-7.8-17.3-12.6-28.6-12.6
					c-21.3,0-38.6,17.3-38.6,38.6c0,11.3,4.9,21.5,12.6,28.6C164.3,125.7,160.4,116.6,160.4,106.6z"/>
			</g>
		</g>
		<linearGradient id="SVGID_23_" gradientUnits="userSpaceOnUse" x1="178.4717" y1="104.0001" x2="217.0942" y2="104.0001">
			<stop  offset="0" style="stop-color:#D6C6F1"/>
			<stop  offset="1" style="stop-color:#ED0113"/>
		</linearGradient>
		<polygon class="st80" points="217.1,115.6 205.5,104 217.1,92.4 209.4,84.7 197.8,96.3 186.2,84.7 178.5,92.4 190.1,104 
			178.5,115.6 186.2,123.3 197.8,111.7 209.4,123.3 		"/>
		<polygon class="st57" points="215.8,114.3 204.2,102.7 215.8,91.1 208.1,83.4 196.5,95 184.9,83.4 177.2,91.1 188.8,102.7 
			177.2,114.3 184.9,122 196.5,110.4 208.1,122 		"/>
	</g>
	<g class="st0">
		<path class="st65" d="M408.1,398.4h43.4c10.8,0,19.5-8.7,19.5-19.5v-43.4c0-10.8-8.7-19.5-19.5-19.5h-43.4
			c-10.8,0-19.5,8.7-19.5,19.5v43.4C388.6,389.6,397.3,398.4,408.1,398.4z"/>
		<polygon class="st57" points="441.9,334.8 429.8,346.8 417.8,334.8 407.5,345.1 419.5,357.2 407.5,369.2 417.8,379.5 429.8,367.5 
			441.9,379.5 452.2,369.2 440.1,357.2 452.2,345.1 		"/>
	</g>
	<g class="st0">
		<path class="st67" d="M110.9,328c-8-8-18.6-12.1-29.1-12.1c-10.5,0-21.1,4-29.1,12.1c-16.1,16.1-16.1,42.2,0,58.3
			c8,8,18.6,12.1,29.1,12.1c10.5,0,21.1-4,29.1-12.1C126.9,370.2,126.9,344.1,110.9,328z"/>
		<polygon class="st57" points="75.4,363.1 64.3,352 54.1,362.2 75.4,383.4 75.4,383.4 85.5,373.3 110.3,348.4 100.2,338.3 		"/>
	</g>
	<g class="st0">
		<path class="st65" d="M225.6,328c-8-8-18.6-12.1-29.1-12.1c-10.5,0-21.1,4-29.1,12.1c-16.1,16.1-16.1,42.2,0,58.3
			c8,8,18.6,12.1,29.1,12.1c10.5,0,21.1-4,29.1-12.1C241.7,370.2,241.7,344.1,225.6,328z"/>
		<polygon class="st57" points="208.5,334.8 196.5,346.8 184.5,334.8 174.1,345.1 186.2,357.2 174.1,369.2 184.5,379.5 196.5,367.5 
			208.5,379.5 218.9,369.2 206.8,357.2 218.9,345.1 		"/>
	</g>
</g>
<g id="DESIGNED_BY_FREEPIK" class="st0">
	<g class="st14">
		<g>
			<path class="st81" d="M180.3,476.8v-0.2c-0.2,0.2-0.4,0.5-0.6,0.6c-0.2,0.2-0.4,0.3-0.7,0.4c-0.2,0.1-0.5,0.1-0.8,0.1
				c-0.4,0-0.7-0.1-1.1-0.2c-0.3-0.2-0.6-0.4-0.9-0.7c-0.2-0.3-0.4-0.7-0.5-1.1c-0.1-0.4-0.2-0.9-0.2-1.3c0-1,0.2-1.8,0.7-2.4
				c0.5-0.6,1.1-0.8,2-0.8c0.5,0,0.9,0.1,1.2,0.2c0.3,0.2,0.6,0.4,0.9,0.7v-2.4c0-0.3,0.1-0.6,0.2-0.8c0.1-0.2,0.3-0.3,0.6-0.3
				c0.2,0,0.4,0.1,0.6,0.2c0.1,0.2,0.2,0.4,0.2,0.7v7.1c0,0.3-0.1,0.5-0.2,0.7c-0.1,0.2-0.3,0.2-0.6,0.2c-0.2,0-0.4-0.1-0.5-0.2
				C180.4,477.4,180.3,477.1,180.3,476.8z M177.1,474.5c0,0.4,0.1,0.8,0.2,1.1c0.1,0.3,0.3,0.5,0.6,0.7c0.2,0.2,0.5,0.2,0.8,0.2
				c0.3,0,0.5-0.1,0.8-0.2c0.2-0.1,0.4-0.4,0.6-0.7c0.1-0.3,0.2-0.7,0.2-1.1c0-0.4-0.1-0.8-0.2-1.1c-0.1-0.3-0.3-0.5-0.6-0.7
				c-0.2-0.2-0.5-0.2-0.8-0.2c-0.3,0-0.6,0.1-0.8,0.3c-0.2,0.2-0.4,0.4-0.5,0.7C177.2,473.7,177.1,474,177.1,474.5z"/>
			<path class="st81" d="M187.5,474.9h-3.2c0,0.4,0.1,0.7,0.2,1c0.1,0.3,0.3,0.5,0.6,0.6c0.2,0.1,0.5,0.2,0.8,0.2
				c0.2,0,0.4,0,0.5-0.1c0.2,0,0.3-0.1,0.5-0.2c0.2-0.1,0.3-0.2,0.4-0.3c0.1-0.1,0.3-0.3,0.5-0.5c0.1-0.1,0.2-0.1,0.4-0.1
				c0.2,0,0.3,0,0.4,0.1c0.1,0.1,0.2,0.2,0.2,0.4c0,0.1-0.1,0.3-0.2,0.5c-0.1,0.2-0.3,0.4-0.5,0.6c-0.2,0.2-0.5,0.3-0.9,0.4
				c-0.3,0.1-0.8,0.2-1.2,0.2c-1,0-1.9-0.3-2.4-0.9c-0.6-0.6-0.9-1.4-0.9-2.4c0-0.5,0.1-0.9,0.2-1.3c0.1-0.4,0.4-0.8,0.6-1.1
				c0.3-0.3,0.6-0.5,1-0.7c0.4-0.2,0.8-0.2,1.3-0.2c0.6,0,1.2,0.1,1.6,0.4c0.5,0.3,0.8,0.6,1,1c0.2,0.4,0.3,0.9,0.3,1.3
				c0,0.4-0.1,0.7-0.4,0.8C188.2,474.8,187.9,474.9,187.5,474.9z M184.3,474h2.9c0-0.6-0.2-1-0.4-1.2c-0.3-0.3-0.6-0.4-1-0.4
				c-0.4,0-0.7,0.1-1,0.4C184.5,473,184.3,473.4,184.3,474z"/>
			<path class="st81" d="M194.8,475.6c0,0.4-0.1,0.8-0.3,1.1c-0.2,0.3-0.5,0.6-1,0.7c-0.4,0.2-0.9,0.2-1.6,0.2
				c-0.6,0-1.1-0.1-1.5-0.3c-0.4-0.2-0.7-0.4-0.9-0.7c-0.2-0.3-0.3-0.5-0.3-0.8c0-0.2,0.1-0.3,0.2-0.5c0.1-0.1,0.3-0.2,0.5-0.2
				c0.2,0,0.3,0,0.4,0.1c0.1,0.1,0.2,0.2,0.3,0.3c0.2,0.3,0.4,0.5,0.6,0.6c0.2,0.1,0.5,0.2,0.9,0.2c0.3,0,0.6-0.1,0.8-0.2
				c0.2-0.1,0.3-0.3,0.3-0.5c0-0.3-0.1-0.5-0.3-0.6c-0.2-0.1-0.6-0.3-1.1-0.4c-0.6-0.1-1-0.3-1.4-0.4c-0.4-0.2-0.6-0.4-0.8-0.6
				c-0.2-0.2-0.3-0.6-0.3-0.9c0-0.3,0.1-0.6,0.3-0.9c0.2-0.3,0.5-0.5,0.9-0.7c0.4-0.2,0.8-0.3,1.4-0.3c0.4,0,0.8,0,1.1,0.1
				c0.3,0.1,0.6,0.2,0.8,0.4c0.2,0.1,0.4,0.3,0.5,0.5c0.1,0.2,0.2,0.4,0.2,0.5c0,0.2-0.1,0.3-0.2,0.5c-0.1,0.1-0.3,0.2-0.5,0.2
				c-0.2,0-0.3,0-0.4-0.1c-0.1-0.1-0.3-0.2-0.4-0.4c-0.1-0.2-0.3-0.3-0.4-0.4c-0.2-0.1-0.4-0.1-0.7-0.1c-0.3,0-0.5,0.1-0.7,0.2
				c-0.2,0.1-0.3,0.3-0.3,0.5c0,0.2,0.1,0.3,0.2,0.4c0.1,0.1,0.3,0.2,0.6,0.3c0.2,0.1,0.6,0.2,1,0.3c0.5,0.1,0.9,0.3,1.2,0.4
				c0.3,0.2,0.6,0.4,0.7,0.6C194.8,475.1,194.8,475.4,194.8,475.6z"/>
			<path class="st81" d="M196.5,470.4c-0.2,0-0.4-0.1-0.6-0.2c-0.2-0.1-0.2-0.3-0.2-0.6c0-0.2,0.1-0.4,0.2-0.6
				c0.2-0.1,0.4-0.2,0.6-0.2c0.2,0,0.4,0.1,0.6,0.2c0.2,0.1,0.2,0.3,0.2,0.6c0,0.3-0.1,0.4-0.2,0.6S196.7,470.4,196.5,470.4z
				 M197.3,472.1v4.7c0,0.3-0.1,0.6-0.2,0.7c-0.2,0.2-0.4,0.2-0.6,0.2c-0.2,0-0.4-0.1-0.6-0.3c-0.1-0.2-0.2-0.4-0.2-0.7v-4.6
				c0-0.3,0.1-0.6,0.2-0.7c0.1-0.2,0.3-0.2,0.6-0.2c0.2,0,0.4,0.1,0.6,0.2C197.2,471.6,197.3,471.8,197.3,472.1z"/>
			<path class="st81" d="M204.4,472.4v4.7c0,0.5-0.1,1-0.2,1.4c-0.1,0.4-0.3,0.7-0.6,1c-0.3,0.3-0.6,0.4-1,0.6
				c-0.4,0.1-0.9,0.2-1.5,0.2c-0.6,0-1.1-0.1-1.5-0.2c-0.4-0.2-0.8-0.4-1-0.6c-0.2-0.2-0.4-0.5-0.4-0.8c0-0.2,0.1-0.4,0.2-0.5
				c0.1-0.1,0.3-0.2,0.5-0.2c0.2,0,0.4,0.1,0.6,0.3c0.1,0.1,0.2,0.2,0.3,0.3c0.1,0.1,0.2,0.2,0.3,0.3c0.1,0.1,0.2,0.1,0.4,0.2
				c0.2,0,0.3,0.1,0.5,0.1c0.4,0,0.7-0.1,1-0.2c0.2-0.1,0.4-0.3,0.5-0.5c0.1-0.2,0.1-0.4,0.2-0.7c0-0.2,0-0.6,0-1.2
				c-0.2,0.3-0.5,0.6-0.9,0.8c-0.3,0.2-0.7,0.3-1.2,0.3c-0.5,0-1-0.1-1.4-0.4c-0.4-0.3-0.7-0.7-0.9-1.2c-0.2-0.5-0.3-1.1-0.3-1.7
				c0-0.5,0.1-0.9,0.2-1.3c0.1-0.4,0.3-0.7,0.6-1c0.2-0.3,0.5-0.5,0.8-0.6c0.3-0.1,0.7-0.2,1.1-0.2c0.5,0,0.9,0.1,1.2,0.3
				c0.3,0.2,0.6,0.5,0.9,0.8v-0.2c0-0.3,0.1-0.5,0.2-0.7c0.1-0.2,0.3-0.2,0.5-0.2c0.3,0,0.5,0.1,0.6,0.3
				C204.3,471.7,204.4,472,204.4,472.4z M199.7,474.4c0,0.7,0.1,1.2,0.4,1.5c0.3,0.3,0.7,0.5,1.1,0.5c0.3,0,0.5-0.1,0.8-0.2
				c0.2-0.1,0.4-0.4,0.6-0.7c0.1-0.3,0.2-0.6,0.2-1.1c0-0.7-0.1-1.2-0.4-1.5c-0.3-0.4-0.7-0.6-1.1-0.6c-0.5,0-0.8,0.2-1.1,0.5
				C199.8,473.3,199.7,473.8,199.7,474.4z"/>
			<path class="st81" d="M207,472.1v0.2c0.3-0.4,0.6-0.7,0.9-0.8c0.3-0.2,0.7-0.3,1.2-0.3c0.4,0,0.8,0.1,1.1,0.3
				c0.3,0.2,0.6,0.4,0.8,0.8c0.1,0.2,0.2,0.4,0.2,0.6c0,0.2,0,0.5,0,0.9v3c0,0.3-0.1,0.6-0.2,0.7c-0.1,0.2-0.3,0.2-0.6,0.2
				c-0.2,0-0.4-0.1-0.6-0.3c-0.2-0.2-0.2-0.4-0.2-0.7v-2.7c0-0.5-0.1-0.9-0.2-1.2c-0.1-0.3-0.4-0.4-0.9-0.4c-0.3,0-0.6,0.1-0.8,0.3
				c-0.2,0.2-0.4,0.4-0.5,0.7c-0.1,0.2-0.1,0.7-0.1,1.4v2c0,0.3-0.1,0.6-0.2,0.7c-0.2,0.2-0.3,0.2-0.6,0.2c-0.2,0-0.4-0.1-0.6-0.3
				c-0.2-0.2-0.2-0.4-0.2-0.7v-4.7c0-0.3,0.1-0.5,0.2-0.7c0.1-0.2,0.3-0.2,0.6-0.2c0.1,0,0.3,0,0.4,0.1c0.1,0.1,0.2,0.2,0.3,0.3
				C206.9,471.7,207,471.9,207,472.1z"/>
			<path class="st81" d="M216.8,474.9h-3.2c0,0.4,0.1,0.7,0.2,1c0.1,0.3,0.3,0.5,0.6,0.6c0.2,0.1,0.5,0.2,0.8,0.2
				c0.2,0,0.4,0,0.5-0.1c0.2,0,0.3-0.1,0.5-0.2c0.1-0.1,0.3-0.2,0.4-0.3c0.1-0.1,0.3-0.3,0.5-0.5c0.1-0.1,0.2-0.1,0.4-0.1
				c0.2,0,0.3,0,0.4,0.1c0.1,0.1,0.2,0.2,0.2,0.4c0,0.1-0.1,0.3-0.2,0.5c-0.1,0.2-0.3,0.4-0.5,0.6c-0.2,0.2-0.5,0.3-0.9,0.4
				c-0.4,0.1-0.8,0.2-1.2,0.2c-1,0-1.9-0.3-2.4-0.9c-0.6-0.6-0.9-1.4-0.9-2.4c0-0.5,0.1-0.9,0.2-1.3c0.1-0.4,0.4-0.8,0.6-1.1
				c0.3-0.3,0.6-0.5,1-0.7c0.4-0.2,0.8-0.2,1.3-0.2c0.6,0,1.2,0.1,1.6,0.4c0.5,0.3,0.8,0.6,1,1c0.2,0.4,0.3,0.9,0.3,1.3
				c0,0.4-0.1,0.7-0.4,0.8C217.6,474.8,217.3,474.9,216.8,474.9z M213.7,474h2.9c0-0.6-0.2-1-0.4-1.2c-0.3-0.3-0.6-0.4-1-0.4
				c-0.4,0-0.7,0.1-1,0.4C213.9,473,213.7,473.4,213.7,474z"/>
			<path class="st81" d="M223.4,476.8v-0.2c-0.2,0.2-0.4,0.5-0.6,0.6c-0.2,0.2-0.4,0.3-0.7,0.4c-0.2,0.1-0.5,0.1-0.8,0.1
				c-0.4,0-0.7-0.1-1.1-0.2c-0.3-0.2-0.6-0.4-0.9-0.7c-0.2-0.3-0.4-0.7-0.5-1.1c-0.1-0.4-0.2-0.9-0.2-1.3c0-1,0.2-1.8,0.7-2.4
				c0.5-0.6,1.1-0.8,2-0.8c0.5,0,0.9,0.1,1.2,0.2c0.3,0.2,0.6,0.4,0.9,0.7v-2.4c0-0.3,0.1-0.6,0.2-0.8c0.1-0.2,0.3-0.3,0.6-0.3
				c0.2,0,0.4,0.1,0.6,0.2c0.1,0.2,0.2,0.4,0.2,0.7v7.1c0,0.3-0.1,0.5-0.2,0.7c-0.1,0.2-0.3,0.2-0.6,0.2c-0.2,0-0.4-0.1-0.5-0.2
				C223.5,477.4,223.4,477.1,223.4,476.8z M220.2,474.5c0,0.4,0.1,0.8,0.2,1.1c0.1,0.3,0.3,0.5,0.6,0.7c0.2,0.2,0.5,0.2,0.8,0.2
				c0.3,0,0.5-0.1,0.8-0.2c0.2-0.1,0.4-0.4,0.6-0.7s0.2-0.7,0.2-1.1c0-0.4-0.1-0.8-0.2-1.1c-0.1-0.3-0.3-0.5-0.6-0.7
				c-0.2-0.2-0.5-0.2-0.8-0.2c-0.3,0-0.6,0.1-0.8,0.3c-0.2,0.2-0.4,0.4-0.5,0.7C220.3,473.7,220.2,474,220.2,474.5z"/>
			<path class="st81" d="M230.1,469.7v2.5c0.3-0.3,0.6-0.6,0.9-0.7c0.3-0.2,0.7-0.3,1.2-0.3c0.5,0,1,0.1,1.4,0.4
				c0.4,0.3,0.7,0.6,0.9,1.1c0.2,0.5,0.3,1.1,0.3,1.7c0,0.5-0.1,0.9-0.2,1.4c-0.1,0.4-0.3,0.8-0.5,1.1c-0.2,0.3-0.5,0.5-0.9,0.7
				c-0.3,0.2-0.7,0.2-1.1,0.2c-0.2,0-0.5,0-0.7-0.1c-0.2-0.1-0.4-0.1-0.6-0.2c-0.2-0.1-0.3-0.2-0.4-0.3c-0.1-0.1-0.3-0.3-0.4-0.5
				v0.2c0,0.3-0.1,0.5-0.2,0.7c-0.1,0.2-0.3,0.2-0.6,0.2c-0.2,0-0.4-0.1-0.5-0.2c-0.1-0.2-0.2-0.4-0.2-0.7v-7.1
				c0-0.3,0.1-0.6,0.2-0.7c0.1-0.2,0.3-0.3,0.6-0.3c0.3,0,0.4,0.1,0.6,0.2C230,469.2,230.1,469.4,230.1,469.7z M230.1,474.5
				c0,0.6,0.1,1.1,0.4,1.5c0.3,0.3,0.7,0.5,1.2,0.5c0.4,0,0.8-0.2,1.1-0.5c0.3-0.4,0.4-0.9,0.4-1.5c0-0.4-0.1-0.8-0.2-1.1
				c-0.1-0.3-0.3-0.5-0.5-0.7c-0.2-0.2-0.5-0.3-0.8-0.3c-0.3,0-0.6,0.1-0.8,0.3c-0.2,0.2-0.4,0.4-0.6,0.7
				C230.2,473.7,230.1,474.1,230.1,474.5z"/>
			<path class="st81" d="M237,478l0.1-0.4l-2-5c-0.1-0.3-0.2-0.5-0.2-0.6c0-0.1,0-0.3,0.1-0.4c0.1-0.1,0.2-0.2,0.3-0.3
				c0.1-0.1,0.3-0.1,0.4-0.1c0.2,0,0.4,0.1,0.5,0.2c0.1,0.1,0.2,0.4,0.3,0.6l1.4,4l1.3-3.7c0.1-0.3,0.2-0.5,0.3-0.7
				c0.1-0.2,0.2-0.3,0.3-0.3c0.1-0.1,0.2-0.1,0.4-0.1c0.1,0,0.2,0,0.4,0.1c0.1,0.1,0.2,0.2,0.3,0.3c0.1,0.1,0.1,0.2,0.1,0.4
				c0,0.1,0,0.2-0.1,0.3c0,0.1-0.1,0.3-0.1,0.4l-2.1,5.5c-0.2,0.5-0.4,0.9-0.5,1.1c-0.2,0.3-0.4,0.5-0.7,0.6
				c-0.3,0.1-0.7,0.2-1.2,0.2c-0.5,0-0.8-0.1-1.1-0.2c-0.2-0.1-0.4-0.3-0.4-0.6c0-0.2,0.1-0.3,0.2-0.4c0.1-0.1,0.3-0.2,0.5-0.2
				c0.1,0,0.2,0,0.3,0c0.1,0,0.2,0,0.3,0c0.2,0,0.3,0,0.4-0.1c0.1-0.1,0.2-0.2,0.3-0.3C236.8,478.4,236.9,478.2,237,478z"/>
		</g>
		<g>
			<path class="st81" d="M260.4,471.3h0.4v-0.5c0-0.5,0.1-0.9,0.2-1.2c0.1-0.3,0.3-0.5,0.7-0.7c0.3-0.1,0.7-0.2,1.3-0.2
				c0.9,0,1.4,0.2,1.4,0.7c0,0.1,0,0.3-0.2,0.4c-0.1,0.1-0.2,0.2-0.3,0.2c-0.1,0-0.2,0-0.3,0c-0.1,0-0.3,0-0.4,0
				c-0.3,0-0.5,0.1-0.6,0.3c-0.1,0.2-0.1,0.4-0.1,0.7v0.4h0.4c0.6,0,0.9,0.2,0.9,0.6c0,0.3-0.1,0.4-0.2,0.5
				c-0.2,0.1-0.4,0.1-0.7,0.1h-0.4v4.3c0,0.3-0.1,0.6-0.2,0.7c-0.2,0.2-0.3,0.3-0.6,0.3c-0.2,0-0.4-0.1-0.6-0.3
				c-0.2-0.2-0.2-0.4-0.2-0.7v-4.3h-0.4c-0.2,0-0.4-0.1-0.6-0.2c-0.1-0.1-0.2-0.2-0.2-0.4C259.6,471.5,259.9,471.3,260.4,471.3"/>
			<path class="st81" d="M265.7,475.4v1.4c0,0.3-0.1,0.6-0.2,0.7c-0.2,0.2-0.3,0.2-0.6,0.2c-0.2,0-0.4-0.1-0.6-0.3
				c-0.1-0.2-0.2-0.4-0.2-0.7v-4.5c0-0.7,0.3-1.1,0.8-1.1c0.3,0,0.5,0.1,0.6,0.3c0.1,0.2,0.2,0.4,0.2,0.8c0.2-0.3,0.4-0.6,0.6-0.8
				c0.2-0.2,0.5-0.3,0.8-0.3c0.3,0,0.7,0.1,1,0.3c0.3,0.2,0.5,0.4,0.5,0.7c0,0.2-0.1,0.4-0.2,0.5c-0.1,0.1-0.3,0.2-0.4,0.2
				c-0.1,0-0.2,0-0.4-0.1c-0.2-0.1-0.4-0.1-0.6-0.1c-0.2,0-0.4,0.1-0.6,0.2c-0.2,0.1-0.3,0.3-0.4,0.6c-0.1,0.2-0.1,0.5-0.2,0.9
				C265.8,474.5,265.7,474.9,265.7,475.4"/>
			<path class="st81" d="M273.2,474.9H270c0,0.4,0.1,0.7,0.2,1c0.1,0.3,0.3,0.5,0.6,0.6c0.2,0.1,0.5,0.2,0.8,0.2
				c0.2,0,0.4,0,0.5-0.1c0.2,0,0.3-0.1,0.5-0.2c0.2-0.1,0.3-0.2,0.4-0.3c0.1-0.1,0.3-0.3,0.5-0.4c0.1-0.1,0.2-0.1,0.4-0.1
				c0.2,0,0.3,0,0.4,0.1c0.1,0.1,0.2,0.2,0.2,0.4c0,0.1-0.1,0.3-0.2,0.5c-0.1,0.2-0.3,0.4-0.5,0.6c-0.2,0.2-0.5,0.3-0.9,0.4
				c-0.3,0.1-0.8,0.2-1.2,0.2c-1,0-1.9-0.3-2.4-0.9c-0.6-0.6-0.9-1.4-0.9-2.4c0-0.5,0.1-0.9,0.2-1.3c0.1-0.4,0.3-0.8,0.6-1.1
				c0.3-0.3,0.6-0.5,1-0.7c0.4-0.2,0.8-0.2,1.3-0.2c0.6,0,1.2,0.1,1.6,0.4c0.5,0.3,0.8,0.6,1,1c0.2,0.4,0.3,0.9,0.3,1.3
				c0,0.4-0.1,0.7-0.4,0.8C273.9,474.8,273.6,474.9,273.2,474.9 M270,473.9h2.9c0-0.6-0.2-1-0.4-1.2c-0.3-0.3-0.6-0.4-1-0.4
				c-0.4,0-0.7,0.1-1,0.4C270.2,473,270.1,473.4,270,473.9"/>
			<path class="st81" d="M279.9,474.9h-3.2c0,0.4,0.1,0.7,0.2,1c0.1,0.3,0.3,0.5,0.6,0.6c0.2,0.1,0.5,0.2,0.8,0.2
				c0.2,0,0.4,0,0.5-0.1c0.2,0,0.3-0.1,0.5-0.2c0.2-0.1,0.3-0.2,0.4-0.3c0.1-0.1,0.3-0.3,0.5-0.4c0.1-0.1,0.2-0.1,0.4-0.1
				c0.2,0,0.3,0,0.4,0.1c0.1,0.1,0.2,0.2,0.2,0.4c0,0.1-0.1,0.3-0.2,0.5c-0.1,0.2-0.3,0.4-0.5,0.6c-0.2,0.2-0.5,0.3-0.9,0.4
				c-0.3,0.1-0.8,0.2-1.2,0.2c-1,0-1.8-0.3-2.4-0.9c-0.6-0.6-0.9-1.4-0.9-2.4c0-0.5,0.1-0.9,0.2-1.3c0.1-0.4,0.3-0.8,0.6-1.1
				c0.3-0.3,0.6-0.5,1-0.7c0.4-0.2,0.8-0.2,1.3-0.2c0.6,0,1.2,0.1,1.6,0.4c0.5,0.3,0.8,0.6,1,1c0.2,0.4,0.3,0.9,0.3,1.3
				c0,0.4-0.1,0.7-0.4,0.8C280.7,474.8,280.4,474.9,279.9,474.9 M276.8,473.9h2.9c0-0.6-0.2-1-0.4-1.2c-0.3-0.3-0.6-0.4-1-0.4
				c-0.4,0-0.7,0.1-1,0.4C277,473,276.8,473.4,276.8,473.9"/>
			<path class="st81" d="M283.5,472.1v0.2c0.3-0.4,0.6-0.7,1-0.8c0.3-0.2,0.7-0.3,1.1-0.3c0.5,0,1,0.1,1.4,0.4
				c0.4,0.3,0.7,0.6,1,1.1c0.2,0.5,0.4,1.1,0.4,1.8c0,0.5-0.1,1-0.2,1.4c-0.1,0.4-0.3,0.8-0.6,1c-0.2,0.3-0.5,0.5-0.9,0.7
				c-0.3,0.2-0.7,0.2-1.1,0.2c-0.5,0-0.9-0.1-1.2-0.3c-0.3-0.2-0.6-0.5-0.9-0.8v2.4c0,0.7-0.3,1.1-0.8,1.1c-0.3,0-0.5-0.1-0.6-0.3
				c-0.1-0.2-0.1-0.5-0.1-0.8v-7c0-0.3,0.1-0.5,0.2-0.7c0.1-0.1,0.3-0.2,0.6-0.2c0.2,0,0.4,0.1,0.6,0.2
				C283.4,471.6,283.5,471.8,283.5,472.1 M286.7,474.4c0-0.4-0.1-0.8-0.2-1.1c-0.1-0.3-0.3-0.5-0.5-0.7c-0.2-0.2-0.5-0.2-0.8-0.2
				c-0.4,0-0.8,0.2-1.1,0.5c-0.3,0.4-0.5,0.9-0.5,1.6c0,0.6,0.2,1.1,0.5,1.5c0.3,0.4,0.7,0.5,1.1,0.5c0.3,0,0.5-0.1,0.7-0.2
				c0.2-0.2,0.4-0.4,0.6-0.7C286.6,475.3,286.7,474.9,286.7,474.4"/>
			<path class="st81" d="M289.9,470.4c-0.2,0-0.4-0.1-0.6-0.2c-0.2-0.1-0.2-0.3-0.2-0.6c0-0.2,0.1-0.4,0.2-0.6
				c0.2-0.1,0.4-0.2,0.6-0.2c0.2,0,0.4,0.1,0.6,0.2c0.2,0.1,0.2,0.3,0.2,0.6c0,0.2-0.1,0.4-0.2,0.6
				C290.3,470.3,290.1,470.4,289.9,470.4 M290.7,472.1v4.7c0,0.3-0.1,0.6-0.2,0.7c-0.2,0.2-0.4,0.3-0.6,0.3c-0.2,0-0.4-0.1-0.6-0.3
				c-0.1-0.2-0.2-0.4-0.2-0.7v-4.6c0-0.3,0.1-0.6,0.2-0.7c0.2-0.2,0.3-0.2,0.6-0.2c0.2,0,0.4,0.1,0.6,0.2
				C290.7,471.6,290.7,471.8,290.7,472.1"/>
			<path class="st81" d="M296,477l-1.4-2.4l-0.9,0.8v1.3c0,0.3-0.1,0.6-0.2,0.7c-0.2,0.2-0.4,0.3-0.6,0.3c-0.2,0-0.4-0.1-0.6-0.3
				c-0.1-0.2-0.2-0.4-0.2-0.7v-6.9c0-0.4,0.1-0.6,0.2-0.8c0.1-0.2,0.3-0.3,0.6-0.3c0.2,0,0.4,0.1,0.6,0.3c0.1,0.2,0.2,0.4,0.2,0.8
				v3.9l1.8-1.9c0.2-0.2,0.4-0.4,0.5-0.5c0.1-0.1,0.3-0.1,0.4-0.1c0.2,0,0.4,0.1,0.5,0.2c0.1,0.1,0.2,0.3,0.2,0.5
				c0,0.2-0.2,0.6-0.7,1l-0.9,0.8l1.7,2.6c0.1,0.2,0.2,0.3,0.3,0.4c0.1,0.1,0.1,0.2,0.1,0.3c0,0.3-0.1,0.5-0.2,0.6
				c-0.1,0.1-0.3,0.2-0.6,0.2c-0.2,0-0.4,0-0.5-0.2C296.3,477.5,296.1,477.3,296,477"/>
			<path class="st81" d="M299.5,477.8c-0.2,0-0.5-0.1-0.6-0.2c-0.2-0.2-0.3-0.4-0.3-0.7c0-0.2,0.1-0.4,0.3-0.6
				c0.2-0.2,0.4-0.3,0.6-0.3c0.2,0,0.5,0.1,0.6,0.3c0.2,0.2,0.3,0.4,0.3,0.6c0,0.3-0.1,0.5-0.3,0.7
				C299.9,477.7,299.7,477.8,299.5,477.8"/>
			<path class="st81" d="M307.5,475.8c0,0.2-0.1,0.4-0.2,0.6c-0.1,0.2-0.3,0.4-0.6,0.7c-0.2,0.2-0.6,0.4-0.9,0.5
				c-0.4,0.1-0.8,0.2-1.3,0.2c-1,0-1.8-0.3-2.3-0.9c-0.6-0.6-0.8-1.4-0.8-2.3c0-0.7,0.1-1.3,0.4-1.8c0.3-0.5,0.6-0.9,1.1-1.2
				c0.5-0.3,1.1-0.4,1.7-0.4c0.4,0,0.8,0.1,1.2,0.2c0.4,0.1,0.6,0.3,0.9,0.5c0.2,0.2,0.4,0.4,0.6,0.6c0.1,0.2,0.2,0.4,0.2,0.6
				c0,0.2-0.1,0.4-0.2,0.5c-0.1,0.1-0.3,0.2-0.5,0.2c-0.1,0-0.2,0-0.3-0.1c-0.1-0.1-0.2-0.2-0.3-0.3c-0.2-0.3-0.4-0.5-0.6-0.7
				c-0.2-0.2-0.5-0.2-0.8-0.2c-0.5,0-0.9,0.2-1.2,0.6c-0.3,0.4-0.4,0.9-0.4,1.5c0,0.3,0,0.6,0.1,0.8c0.1,0.3,0.2,0.5,0.3,0.7
				c0.1,0.2,0.3,0.3,0.5,0.4c0.2,0.1,0.4,0.1,0.7,0.1c0.3,0,0.6-0.1,0.8-0.2c0.2-0.2,0.4-0.4,0.6-0.7c0.1-0.2,0.2-0.3,0.3-0.4
				c0.1-0.1,0.3-0.2,0.4-0.2c0.2,0,0.4,0.1,0.5,0.2C307.5,475.4,307.5,475.6,307.5,475.8"/>
			<path class="st81" d="M314.5,474.5c0,0.5-0.1,0.9-0.2,1.3c-0.2,0.4-0.4,0.8-0.7,1c-0.3,0.3-0.6,0.5-1,0.7
				c-0.4,0.2-0.8,0.2-1.3,0.2c-0.5,0-0.9-0.1-1.3-0.2c-0.4-0.2-0.7-0.4-1-0.7c-0.3-0.3-0.5-0.6-0.7-1c-0.1-0.4-0.2-0.8-0.2-1.3
				c0-0.5,0.1-0.9,0.2-1.3c0.2-0.4,0.4-0.8,0.6-1c0.3-0.3,0.6-0.5,1-0.7c0.4-0.2,0.8-0.2,1.3-0.2c0.5,0,0.9,0.1,1.3,0.2
				c0.4,0.2,0.7,0.4,1,0.7c0.3,0.3,0.5,0.6,0.6,1C314.5,473.5,314.5,474,314.5,474.5 M312.9,474.5c0-0.7-0.1-1.2-0.4-1.5
				c-0.3-0.4-0.7-0.6-1.2-0.6c-0.3,0-0.6,0.1-0.8,0.2c-0.2,0.2-0.4,0.4-0.6,0.7c-0.1,0.3-0.2,0.7-0.2,1.1c0,0.4,0.1,0.8,0.2,1.1
				c0.1,0.3,0.3,0.6,0.6,0.7c0.2,0.2,0.5,0.3,0.8,0.3c0.5,0,0.9-0.2,1.2-0.6C312.8,475.6,312.9,475.1,312.9,474.5"/>
			<path class="st81" d="M320.7,474.6v2.2c0,0.3-0.1,0.6-0.2,0.8c-0.2,0.2-0.4,0.3-0.6,0.3c-0.2,0-0.4-0.1-0.6-0.3
				c-0.2-0.2-0.2-0.4-0.2-0.8v-2.6c0-0.4,0-0.7,0-1c0-0.2-0.1-0.4-0.2-0.6c-0.1-0.1-0.3-0.2-0.6-0.2c-0.5,0-0.9,0.2-1,0.6
				c-0.2,0.4-0.3,0.9-0.3,1.6v2.2c0,0.3-0.1,0.6-0.2,0.8c-0.2,0.2-0.4,0.3-0.6,0.3c-0.2,0-0.4-0.1-0.6-0.3c-0.2-0.2-0.2-0.4-0.2-0.8
				v-4.6c0-0.3,0.1-0.5,0.2-0.7c0.1-0.2,0.3-0.2,0.6-0.2c0.2,0,0.4,0.1,0.6,0.2c0.1,0.1,0.2,0.4,0.2,0.6v0.2
				c0.3-0.3,0.6-0.6,0.9-0.7c0.3-0.2,0.7-0.2,1.1-0.2c0.4,0,0.8,0.1,1,0.2c0.3,0.2,0.5,0.4,0.7,0.7c0.3-0.3,0.6-0.6,0.9-0.7
				c0.3-0.2,0.7-0.2,1-0.2c0.4,0,0.8,0.1,1.1,0.3c0.3,0.2,0.6,0.4,0.7,0.7c0.1,0.3,0.2,0.8,0.2,1.4v3.2c0,0.3-0.1,0.6-0.2,0.8
				c-0.2,0.2-0.4,0.3-0.6,0.3c-0.2,0-0.4-0.1-0.6-0.3c-0.2-0.2-0.2-0.4-0.2-0.8V474c0-0.3,0-0.6,0-0.8c0-0.2-0.1-0.4-0.2-0.5
				c-0.1-0.1-0.3-0.2-0.6-0.2c-0.2,0-0.4,0.1-0.6,0.2c-0.2,0.1-0.3,0.3-0.5,0.5C320.8,473.4,320.7,473.9,320.7,474.6"/>
		</g>
		<g>
			<path class="st81" d="M245.3,474.1C245.3,474.1,245.3,474.1,245.3,474.1C245.3,474.1,245.3,474.1,245.3,474.1z"/>
			<path class="st81" d="M245.4,474.6C245.4,474.6,245.4,474.6,245.4,474.6c0-0.1-0.1-0.3-0.1-0.4
				C245.3,474.3,245.3,474.5,245.4,474.6z"/>
			<path class="st81" d="M245.9,476.1C245.9,476.1,245.9,476.1,245.9,476.1C245.9,476.1,245.9,476.1,245.9,476.1z"/>
			<path class="st81" d="M245.8,476C245.8,476,245.8,475.9,245.8,476C245.8,475.9,245.8,476,245.8,476z"/>
			<path class="st81" d="M245.5,475.2c0.1,0.3,0.2,0.5,0.3,0.7C245.7,475.7,245.6,475.4,245.5,475.2
				C245.5,475.2,245.5,475.2,245.5,475.2z"/>
			<path class="st81" d="M251.5,467.9c0.3,0,0.5,0,0.8,0.1l0.1-0.5c0,0-0.7-0.2-1.7-0.1l-0.1-0.3c0.3-0.1,0.5-0.3,0.5-0.6
				c0-0.4-0.3-0.7-0.7-0.7c-0.4,0-0.7,0.3-0.7,0.7c0,0.3,0.2,0.6,0.5,0.6l0.1,0.3c-1,0.1-1.8,0.5-1.8,0.5l0.1,0.4
				c0.6-0.2,1.2-0.3,1.6-0.4C250.9,467.9,251.3,467.9,251.5,467.9z"/>
			<path class="st81" d="M245.9,470.3L245.9,470.3C245.9,470.2,245.9,470.2,245.9,470.3l-0.1-0.2l-0.3-0.2c0,0-0.5,0.5-0.9,1.3
				c0,0,0-0.1-0.1-0.1c-0.1-0.1-0.3-0.2-0.5-0.2c0,0,0,0,0,0c-0.1,0-0.2,0-0.3-0.1c0.1-0.1,0.1-0.2,0.1-0.3c0-0.2-0.2-0.4-0.4-0.4
				c-0.2,0-0.4,0.2-0.4,0.4c0,0.2,0.2,0.4,0.4,0.4c0,0,0.1,0,0.1,0c0.1,0.1,0.3,0.2,0.5,0.2c0.1,0,0.2,0,0.3,0.1
				c0.1,0.1,0.1,0.2,0.1,0.3c0,0,0,0,0,0c-0.3,0.7-0.2,1.7-0.2,1.7l0.7,0c0-0.3,0.1-0.9,0.2-1.4
				C245.4,470.9,245.9,470.3,245.9,470.3z"/>
			<path class="st81" d="M257.3,468.4c-0.2,0-0.4,0.2-0.4,0.4c0,0,0,0.1,0,0.1c-0.1,0.1-0.2,0.3-0.2,0.5c0,0.1,0,0.2-0.1,0.3
				c-0.1,0-0.1,0.1-0.2,0.1c-0.5-0.7-1.1-1.1-1.1-1.1l-0.5,0.5c0.4,0.3,0.7,0.7,1.1,1.2c0.2,0.4,0.5,0.8,0.7,1.3l0.6-0.3
				c0,0-0.3-0.7-0.7-1.4c0.1,0,0.1-0.1,0.2-0.1c0.1-0.1,0.2-0.3,0.2-0.5c0-0.1,0-0.2,0.1-0.3c0.1,0.1,0.2,0.1,0.3,0.1
				c0.2,0,0.4-0.2,0.4-0.4C257.7,468.6,257.5,468.4,257.3,468.4z"/>
			<path class="st81" d="M255.6,474.2c-0.9,0.4-2.3,1-4.2,1.3c-0.7,0.1-1.5,0.1-2.1,0.1c-0.9,0-1.6-0.1-2.2-0.1
				c-0.7-0.1-1.2-0.2-1.5-0.3c0.1,0.2,0.2,0.5,0.3,0.7c0,0,0,0,0,0c0,0,0,0.1,0,0.1c0,0,0,0.1,0,0.1c0,0,0,0,0,0
				c0.2,0.4,0.4,0.7,0.7,1c0.9,1,1.8,1.1,1.8,1.1l0,0l0,0c0,0,0.8,0.3,2.1,0.3c1.2,0,2.4-0.2,3.5-0.7c0.8-0.4,1.6-1.1,2-1.7
				c0.3-0.5,0.5-0.9,0.7-1.4c0.1-0.3,0.1-0.7,0.1-1.1C256.6,473.7,256.2,473.9,255.6,474.2z"/>
			<path class="st81" d="M246.2,470.5c0,0-0.4,0.6-0.7,1.4c-0.2,0.6-0.2,1.5-0.2,1.5v0c0,0.2,0,0.4,0,0.6c0,0,0,0,0,0
				c0,0,0,0.1,0,0.1c0,0.1,0,0.3,0.1,0.4c0.4,0.1,3,0.7,6,0.3c1.8-0.3,3.2-0.8,4.1-1.2c0.7-0.3,1.2-0.6,1.3-0.8
				c-0.2-0.6-0.7-1.7-1.1-2.3c-1.3-1.8-2.6-2.2-3.3-2.4c-0.3,0-0.5-0.1-0.8-0.1c-0.3,0-0.6,0-1.1,0.1c-0.5,0-1,0.2-1.6,0.4
				c-0.8,0.3-1.6,0.7-2.2,1.3l0,0C246.6,470,246.4,470.2,246.2,470.5z M253.8,470.1c0.6,0,1.1,0.5,1.1,1.1c0,0.6-0.5,1.1-1.1,1.1
				c-0.6,0-1.1-0.5-1.1-1.1C252.7,470.6,253.2,470.1,253.8,470.1z M248.7,470c1,0,1.8,0.8,1.8,1.8c0,1-0.8,1.8-1.8,1.8
				c-1,0-1.8-0.8-1.8-1.8C246.9,470.8,247.7,470,248.7,470z"/>
		</g>
	</g>
</g>
</svg>
